<mxfile host="Electron" modified="2024-11-23T22:29:42.408Z" agent="Mozilla/5.0 (Macintosh; Intel Mac OS X 10_15_7) AppleWebKit/537.36 (KHTML, like Gecko) draw.io/23.0.2 Chrome/120.0.6099.109 Electron/28.1.0 Safari/537.36" etag="I1O4YCppd27FOSeePh35" version="23.0.2" type="device">
  <diagram name="Page-1" id="ofzxBS9mfT8VJ1EvsjLv">
    <mxGraphModel dx="658" dy="437" grid="1" gridSize="10" guides="1" tooltips="1" connect="1" arrows="1" fold="1" page="1" pageScale="1" pageWidth="3000" pageHeight="3000" math="0" shadow="0">
      <root>
        <mxCell id="0" />
        <mxCell id="1" parent="0" />
        <mxCell id="fgCzt5P4TZWiUm7buIOH-170" value="" style="rounded=1;whiteSpace=wrap;html=1;dashed=1;" parent="1" vertex="1">
          <mxGeometry x="1030" y="722" width="170" height="192" as="geometry" />
        </mxCell>
        <mxCell id="fgCzt5P4TZWiUm7buIOH-102" value="" style="rounded=1;whiteSpace=wrap;html=1;dashed=1;" parent="1" vertex="1">
          <mxGeometry x="717.75" y="724" width="302.25" height="192" as="geometry" />
        </mxCell>
        <mxCell id="KsrdHVBfr6KVUB-R_dGB-17" style="edgeStyle=orthogonalEdgeStyle;rounded=0;orthogonalLoop=1;jettySize=auto;html=1;exitX=1;exitY=0.5;exitDx=0;exitDy=0;entryX=0;entryY=0.5;entryDx=0;entryDy=0;endArrow=classicThin;endFill=1;" parent="1" source="fgCzt5P4TZWiUm7buIOH-104" target="KsrdHVBfr6KVUB-R_dGB-9" edge="1">
          <mxGeometry relative="1" as="geometry" />
        </mxCell>
        <mxCell id="fgCzt5P4TZWiUm7buIOH-104" value="" style="shape=image;verticalLabelPosition=bottom;labelBackgroundColor=default;verticalAlign=top;aspect=fixed;imageAspect=0;image=data:image/png,iVBORw0KGgoAAAANSUhEUgAAAPoAAAD6CAYAAACI7Fo9AAAACXBIWXMAAA7EAAAOxAGVKw4bAAAIg0lEQVR4nO3dsYsc5xkG8NlcijR2/oIsBNwEI5MikBQLEkdQFyI3Ka5ycUXAhYtAECkUosKIQBJcCFJc4UqBNFJwZREOFVukNBHGjcBwfYrYTZrj0gRSfK/wK83crnTP71d+7N7MzvHwwcM7M6uL6WICrrZv7fsEgMsn6BBA0CGAoEMAQYcAgg4BBB0CCDoEEHQIIOgQQNAhgKBDAEGHAIIOAQQdAgg6BBB0CCDoEEDQIYCgQwBBhwCCDgEEHQIIOgQQdAgg6BBA0CGAoEMAQYcA3973CfDNVtOt1+6VtxfTo9W+z4H/s6NDAEGHAIIOAQQdAijj9qhbsm2mm8Pa+mDdOsZ63ftc5ezsrPe58/Fz3d+mtNsNOzoEEHQIIOgQQNAhwOpieu2Grl5LVTnVLdnmFGr7UhV5VWm3nR4Pawq65dnRIYCgQwBBhwCCDgGUcZcgrXjrUtDtjx0dAgg6BBB0CCDoEMBtqjuSVrxVyt9b3Ql7fumnEseODgEEHQIIOgQQdAigjJupOwXXVRVW1URZ9bntdrvoMSqbzab13VnHKK5fdZ1Ny/XZ0SGAoEMAQYcAgg4BlHGXYM7LFeYUb9Utn6XiY93vVsdduqArr59puVns6BBA0CGAoEMAQYcAyrgXsPQUXKVdYjWftVaaUWxtznu/t/s72sc1LTeLHR0CCDoEEHQIIOgQQBl3CaqirJr26r7QoFIVbw/fe9Y6xpyJvHc/Hs/laDoa/17xO7q3qbYn/Gizo0MAQYcAgg4BBB0CKOMuQVWUVRNl66m4/bT4blV2VZYu3ury7K3WuZTXYCpuZ21O+C09gZjGjg4BBB0CCDoEEHQIoIzbo/akWPNzV/kYzGNHhwCCDgEEHQIIOgRQxu1I+Ty38tltfxtW7n3Z+9zJ6fip48M3vunUnuvk9OvWcbvn98BLGPbGjg4BBB0CCDoEEHQIoIx7AdeKgml8t2j/u0+nnw9rT548GdZu3PjTsHZxMby7YFqtln13wdNirT7urWGt+zu616UqM6vvUrOjQwBBhwCCDgEEHQIo42b66HAcR/vg9HBYq4qtanrs+vVHw9rRwTihtnTx1lUd9+jgk2Ht+vXrxbdvDCv1dRlV17maBKRmR4cAgg4BBB0CCDoEUMZdgnraa1lVAVZZr28Pa90XOBwd3HvxE1tAPfH28rfbYkeHCIIOAQQdAgg6BFhdTONth0zTaro1XJjqjZ7/nt5v/b2bxUtI//BsXLtWfLcq8qrP3X3v7da5zHHn48+Hte75VZ/7VXFdHhfXpfLd6f6wVt3OejE92s8Y4SvEjg4BBB0CCDoEEHQIoIx7jqqM66omu6oybr0ep72qCbVqrZpu227HomyzefmCrvv3uudXr4234FZlXPUcuS5lnB0dIgg6BBB0CCDoEMBtqlO/eKtKneq71cTW42fjBN3NqXpb6VhYzVFNsnVVBWJlu+29xqJbvFXXb2pOvFX/j2otraCzo0MAQYcAgg4BBB0CxE3GLV28HR0cD989O+8Vat1bXI8Pe89LqybUllZNt1VOTquicVQXb6P1wfjbHpyfDGvd/1vlKhd0dnQIIOgQQNAhgKBDgLjJuH0VLlWZdHbee+bZyWn1QoPRzbfGKbjqVtiu7iRbpbqttHrmXn1dlp0OvMolW5cdHQIIOgQQdAgg6BAgrozrWnoKbo7289KeFaXds96E2uLnsrDqOlf/j9W5W1IrdnQIIOgQQNAhgKBDAGXcJaimvfp6U3CVg7//dcZxm376ixlfHifjKruYlktjR4cAgg4BBB0CCDoEiHtmXGXpKbhumbRtPjOuPEbzDaaVHxal3WfNkm3OcSub4plxc8q4Oc+Wu8rs6BBA0CGAoEMAQYcAJuNeQPU8t6q0m6NbdlVr3e9+9viPi57L0t8t/16zZDualv1/XBV2dAgg6BBA0CGAoEMAk3FT/22bldvfvzusVaXTg/Oftf7e0iVW5e5/xlLxznd6t5B2zfkdRweftP7evS/vvPiJ/Y/JOODKEXQIIOgQQNAhgMm456jKmm5pN+f5ZrOmx5oF2Ha7XfTvVeb8jur6rafec/jm/N+uMjs6BBB0CCDoEEDQIYAybqay7Go+C24XU3CVzWYzrI2zcstrl4XF9VufjdNy9NnRIYCgQwBBhwCCDgGUcdP+bllcegpuF/Y1LTdH2i2pFTs6BBB0CCDoEEDQIYAybqbqJQKVbnm2r8JqF+Zcg+51pmZHhwCCDgEEHQIIOgRQxl2CD9+/Paz95v69RY+xi9Ju6WN0/159/b5Y9FzS2NEhgKBDAEGHAIIOAZRxM1W3QL5zfzW8MKAsmE6Lgq7ZOc2ZMuuWYotP8/1gXPrwcLwufymKy4vpwosZZrCjQwBBhwCCDgEEHQIo43bkX5+OBdPDzdvD2rtffN76e6/jZNzDH4+/d1tcF5ZnR4cAgg4BBB0CCDoEWF1Mhot24Z1pnJY7Pnxj+NwHp1/3/uCvfzL7nBbz+3+0PvZR8XtPit/7z2IKjnns6BBA0CGAoEMAQYcAyrg9qgq6ytPLPpFLcK35OcXbbtjRIYCgQwBBhwCCDgGUca+BVbO066qfv3b5x2B/7OgQQNAhgKBDAEGHAIIOAQQdAgg6BBB0CCDoEEDQIYCgQwBBhwCCDgEEHQJ4m+orZunbRfel+h1uXd0fOzoEEHQIIOgQQNAhgDJuj7rF23q9HtbOzs6GtT+/+bth7eSrk9a5/Gj63rB2/ObxsPbLr3770uenoNsfOzoEEHQIIOgQQNAhgDLuFVMVW6+jbkHHbtjRIYCgQwBBhwCCDgG8TXWP9nVL6i7epjrnXFieHR0CCDoEEHQIIOgQQBkHAezoEEDQIYCgQwBBhwCCDgEEHQIIOgQQdAgg6BBA0CGAoEMAQYcAgg4BBB0C/Be+lmekVPwPUwAAAABJRU5ErkJggg==;clipPath=inset(11.6% 22.4% 6.4% 23.6%);" parent="1" vertex="1">
          <mxGeometry x="760" y="783.46" width="33.77" height="51.28" as="geometry" />
        </mxCell>
        <mxCell id="KsrdHVBfr6KVUB-R_dGB-35" style="edgeStyle=orthogonalEdgeStyle;rounded=0;orthogonalLoop=1;jettySize=auto;html=1;entryX=0;entryY=0.5;entryDx=0;entryDy=0;endArrow=classicThin;endFill=1;" parent="1" source="fgCzt5P4TZWiUm7buIOH-105" target="KsrdHVBfr6KVUB-R_dGB-11" edge="1">
          <mxGeometry relative="1" as="geometry" />
        </mxCell>
        <mxCell id="fgCzt5P4TZWiUm7buIOH-105" value="" style="shape=image;verticalLabelPosition=bottom;labelBackgroundColor=default;verticalAlign=top;aspect=fixed;imageAspect=0;image=data:image/png,iVBORw0KGgoAAAANSUhEUgAAAPoAAAD6CAYAAACI7Fo9AAAACXBIWXMAAA7EAAAOxAGVKw4bAAAJDUlEQVR4nO3dT4idVxkG8Hurgkqr+KcFlYbuDHRlN+liSLKaFsW6iSjdVMqgIrgwoOLCUCIoUUi2KoMYBEkhC9uiNOMmlCwaF+1CClmWCVpobaWmVjd2XLo47+A7893cO5nn91sevu9+d254cuDhnO/Md2Y7M+Bwu2vVXwC4/QQdAgg6BBB0CCDoEEDQIYCgQwBBhwCCDgEEHQIIOgQQdAgg6BBA0CGAoEMAQYcAgg4BBB0CCDoEEHQIIOgQQNAhgKBDAEGHAIIOAQQdAgg6BBB0CCDoEOD9q/4C/H/z2fyOO/J2Z7YzX/V34H/M6BBA0CGAoEMAQYcAyrgV6pZsRz48/n985MiRfT93e3t7HHv3vWFs7egD+/68+bu9v01ptxxmdAgg6BBA0CGAoEOA+c7sjlt0dUda1eq2x9ePD2NlGdcs6JZBQbd4ZnQIIOgQQNAhgKBDAGXcbTCleOuuRqt0C7WqoPvt1gvD2KJX5F278eq+71XQTWNGhwCCDgEEHQIIOgRQxk3ULd6qAmyK7uq28t6ioKuKt0pVxk0p6CpVMVhR0PWZ0SGAoEMAQYcAgg4BlHETVWVcd2toVWJV101ZUVaVbN0ybso21WqFX/fvra6rCjplXJ8ZHQIIOgQQdAgg6BBAGbcHB714O+gUdKtjRocAgg4BBB0CCDoEcJrqCnW3lf7j+R8MY/cU5dSt4vNWdd1HHv3JMNYt2Vg8MzoEEHQIIOgQQNAhgJVxu6hWwU05XKFSrYK7E4u3KQXdMn5Tq+XM6BBB0CGAoEMAQYcAyrhdVGXclNNFuyedVs6furd13cbGxjC26EJtc3Oz9V1OX36jdd0yflNlnBkdIgg6BBB0CCDoEEAZtwdTCropZVy1Wq5SFWVVQdc15fOqVXCVRf9+ireaGR0CCDoEEHQIIOgQQBm3B1UZV1n0yaRd3dJuim7JNsWU308ZVzOjQwBBhwCCDgEEHQI4wOE2KFd2Nd8P99IHHxnGTp48OYzt7Iy94Hw+9lBTCrqqeOs+9+rVq8PYQ/++0npG9/ejz4wOAQQdAgg6BBB0CKCM20W1Cu7x9eOte7unpFZOnDgxjP36+E+HsaoAW4bqudX3q/6OW1fGMq6r+9vPt8Z/N6vlzOgQQdAhgKBDAEGHAMq4ibrFW7X1sl559uPW51UF2Fv3/WwYm3KAQ3VwxMdf/27r+1XKVXDF71KpfufuQQ+Y0SGCoEMAQYcAgg4BvDNuF933w60dfWAY6xZ03fegVcVb1xM/v2ff91785q193/u1F77Xuq5bxlXF27Xm1lUr48zoEEHQIYCgQwBBhwDKuF10y7gpugcV7Lzz+/HmovB75dq1YezBtbX9fbm9fF5RlM3v/sJ42YoOtlDGmdEhgqBDAEGHAIIOAWxTnfWLt6rUWcYKuqp467pw5sy+711fX29dd6so7bqq32XKirfq36MaSyvozOgQQNAhgKBDAEGHAHFl3KKLt+5qr6p4q66r3tNWveOtUq1am7IyrtL9LtXfcfryG+OFE965N3+3V7Ip6MzoEEHQIYCgQwBBhwC2qe7BlDJuiqrYqlQr2aYcclAViFtbW617y+JtgvaW3kNcqE1hRocAgg4BBB0CCDoEUMbtYtHF20Eq7aZYVck25V4FnRkdIgg6BBB0CCDoECBum+oydE8ILd3/xL5v/dPbf9j/c7smfL/ZzYuty1Z10MNhZkaHAIIOAQQdAgg6BFDGzZaz/bS8tyi2PrexMd5bbBddK94Fd6l5VsNXj46l3aUbn2/d+6WzZ4exa8UBDtX22Jc3x8/bLgq6bplZ/aZT3i13mJnRIYCgQwBBhwCCDgGUcRNNWgVXfV7zHW9VAVYVZc8Up6le+uM/xw+8fxyaUryVZdz4iDar5aYxo0MAQYcAgg4BBB0CKON20X5vWVE6VSvZuqvgyu9SfF713Kooqxz79liyXf/dn1uf1/17q+uqv7daLTd78ze95954dRxT0JXM6BBA0CGAoEMAQYcAyrhdVNsYq+2slbIQ+kTvud1CrVJtXX2mOP30evmMj7Y+rywaC90ir1JuP23dOe3f7TAzo0MAQYcAgg4BBB0CKOMmmrIKrn6v2rhUrLuCrutYUbJVK+O6un/HWrHtddZcLbe9Pa6Wo8+MDgEEHQIIOgQQdAigjJst52X+VWnXXWVW6a4yW7T2ttzClFV/U6Qd1lAxo0MAQYcAgg4BBB0CKOMm6m5JrbZ8VqptpYfFlN/Au+CmMaNDAEGHAIIOAQQdAijjboNzNy8OY98fDzVtW/Squq5Fr2SrTnatlL/fQr9JHjM6BBB0CCDoEEDQIYAybqJqC+SFU/cNBwacuzwWTP9632PD2FOf/tgwVm0N7W5TLVeZNYu87kq26vPeLK576q9/H8Y+9J9nh7EPnLp3GNu5/LqDGSYwo0MAQYcAgg4BBB0CzHdm+oyuqvzplnHr6+vD5z1YlF3zR17c/xds+tRD48mpr7309m1/7s6Vh4exV4rVd1tFgfidZhnn/XA1MzoEEHQIIOgQQNAhgJVxe9Ateqri6MJsLOiq1W3HvvzWMFYVeT96dP8bN1+7ue9bSz98/twwVhVqt4oVdN3iraJ46zOjQwBBhwCCDgEEHQJYGbdC1Qq6ytNHxhVlGxsbw1i1XbQqu7qqErAqEDc3N4exr2z3Vvh1izemMaNDAEGHAIIOAQQdAlgZt0LdIurp048ttDF98fyzw3MfXvAzlGwHixkdAgg6BBB0CCDoEEDQIYCgQwBBhwCCDgEEHQIIOgQQdAgg6BBA0CGAoEMA74w7YBa9XbSyjG2q3eeyHGZ0CCDoEEDQIYCgQwDvjFuhJ39xaijAzm98a7juyF3joQlnfnlmGHvu7vHQhL9t/qX1Xa6//Nww9smNzwxjX3xnPEzi7NfPDmPb742HSTz52fHv/dU3LivolsCMDgEEHQIIOgQQdAigjDtgquLtTnRY/o7DwowOAQQdAgg6BBB0CGCb6gpVK+OWoVqNdpC+C4tnRocAgg4BBB0CCDoEUMZBADM6BBB0CCDoEEDQIYCgQwBBhwCCDgEEHQIIOgQQdAgg6BBA0CGAoEMAQYcA/wXSdOxZkSJ+EQAAAABJRU5ErkJggg==;clipPath=inset(11.6% 22.4% 6.4% 23.2%);" parent="1" vertex="1">
          <mxGeometry x="760" y="833.5600000000001" width="34.13" height="51.44" as="geometry" />
        </mxCell>
        <mxCell id="KsrdHVBfr6KVUB-R_dGB-16" style="edgeStyle=orthogonalEdgeStyle;rounded=0;orthogonalLoop=1;jettySize=auto;html=1;exitX=1;exitY=0.5;exitDx=0;exitDy=0;entryX=0;entryY=0.5;entryDx=0;entryDy=0;endArrow=classicThin;endFill=1;" parent="1" source="fgCzt5P4TZWiUm7buIOH-103" target="KsrdHVBfr6KVUB-R_dGB-7" edge="1">
          <mxGeometry relative="1" as="geometry" />
        </mxCell>
        <mxCell id="fgCzt5P4TZWiUm7buIOH-103" value="" style="shape=image;verticalLabelPosition=bottom;labelBackgroundColor=default;verticalAlign=top;aspect=fixed;imageAspect=0;image=data:image/png,iVBORw0KGgoAAAANSUhEUgAAAPoAAAD6CAYAAACI7Fo9AAAACXBIWXMAAA7EAAAOxAGVKw4bAAAJLklEQVR4nO3dQYhV1x0G8PfGbKoN6cZdEREjSTelme46EJGJXWYldluRthBiCEKzm4W4aWkIVdwUa8FF28FVFoIxg7gwu05CCTRgXJShuJlNxWpXOl22cP7S49w77038fr/l4b5377v6zYGPc+6dbk22JsCLbWHeFwDsPEGHAIIOAQQdAgg6BBB0CCDoEEDQIYCgQwBBhwCCDgEEHQIIOgQQdAgg6BBA0CGAoEMAQYcAgg4BXpr3BfD/TSfTb9yD/bYmW9N5XwP/ZUaHAIIOAQQdAgg6BJh6gcP8DCnZFhcXt33ejY2NZuzAgQPb/r719fVtf1ZpNxtmdAgg6BBA0CGAoEMAK+NmpCre9u/f3xy3ubnZjFXF25DyrDL291UFXfV7p5vtfVHQjc+MDgEEHQIIOgQQdAigjNsBvcVbZUjxVh1XrYLr1ft9vddXfVZBNxtmdAgg6BBA0CGAoEMAZdxAQ4q3IYYUZbM4bggF3fjM6BBA0CGAoEMAQYcAyrgZmcUqs1lsXe0t3nZTuYcZHSIIOgQQdAgg6BBAGfcc5rUKrjJ28TbkvLMoz6yWG8aMDgEEHQIIOgQQdAigjNtlvvzyy1GP63X9+vVRv4/dxYwOAQQdAgg6BBB0CKCMm5EHDx40Y6+88kozdu7cuWZsXqvghqhWy62srDRj1X1hfGZ0CCDoEEDQIYCgQ4Dp1qTZ6ccz9G5TrUq248ePN2NLS0td562Krd30XLWqLOwtEO/cudOM3bx5sxmrSrvNzc1mzDbVmhkdAgg6BBB0CCDoEEAZ9xyqMu7w4cPNcVXx1vustaqIelGMfV/u3bvXjCnjamZ0CCDoEEDQIYCgQwBl3HN49fCrzc2qCqZKb8n27uLLXcedKbazPi5KrL1F2TX2cReK7aeVi+sPu44bck+/vve1Mq5gRocAgg4BBB0CCDoEUMY9Q+8quF4HDx5sxtbW1pqxR59easYuX77cdY7Tp08/93U9r7GvZd9b7zRjQ+6zMq5mRocAgg4BBB0CCDoE8AKHyWRy4eQbbSO52h63sND3d/Hu3btdnz116lQzVpVT/dqibEhBVxVv761+0fXZ91b7fkd1D6ptqlVxWSn/LQtnVj+PKu3M6BBA0CGAoEMAQYcAyriBquLtyJEjzdjYb0Td2mo7p+m07ZeGLJarirfe896+fbsZO3r0aNd5h7ycoiofe1fzvcjM6BBA0CGAoEMAQYcAyrjJM1ZJFSuseleFVcVb78ququz6xZ9eb8aqAmwWqvP+/I+vNWNvvvlmM/bbkz9oxt67cqUZW15ebsaq0vOr33/QjFXFW9oquIoZHQIIOgQQdAgg6BBAGfcMQwq63mfBDVEVYN/7+FvN2JAXM1Tl2d/e/nfvJTaqVWvVyr1qq27vs/QUbzUzOgQQdAgg6BBA0CGAFzgMVL3ooSqxqjeEVivo9i4tbf9iBmzv7DZgu+3jO3easWpLau+bZxVv/czoEEDQIYCgQwBBhwBWxu02VaFWFWCzKN4qc7q+agXimVHP8GIzo0MAQYcAgg4BBB0CKON2wKUvHhWj7WqvcrVc8cm9A67lwsrKtj975ty5ruOqFW+V3lVw9f1jCDM6BBB0CCDoEEDQIYBtqjug2rpaqbazVqpnrVWq576NrXreXKX3Daa9L8XYmmzZkjqAGR0CCDoEEHQIIOgQwMq4GanKpOlqX2k3mfQVW73Ppes15HluQ0q23jKTfmZ0CCDoEEDQIYCgQwBl3A4Ysoqr+uyea3u6yqmPtnvS5/D+tb92HTekZLMKbnxmdAgg6BBA0CGAoEMA21R3mT0LbfF27Nix5ri1tbVm7NGnl3bmov7HvrfeacaWl5ebsVu3bjVjT54+UbLNiRkdAgg6BBB0CCDoEMDKuDmqVootFH97Dx061IydP3++GXv5x+92nffhJxe3/dnqvNV21qqMq36vVXCzYUaHAIIOAQQdAgg6BFDG7TJPnz7d8XPs++hxMzb2X/xZ/A76mdEhgKBDAEGHAIIOAWxTnZFqVVi1vbPaflodV6le1nDlypX2uL+0/+YbP2wXqJ06darrvNXKuN7fUR1ntdz4zOgQQNAhgKBDAEGHAFbG7TJHjhxpxoYUdJWNjX8O+Gxf8Vb9DubHjA4BBB0CCDoEEHQIoIzbAb2r4KqVbFWxtbDQ9xy56vuqz373wHeasX90nuOll9r/MtU57t6924wtLS01Y9V9ma55ttzYzOgQQNAhgKBDAEGHAMq4HVCVU1WJdf/+/VlcTqNaGTeLv/jV7+0t9yYeQTeIGR0CCDoEEHQIIOgQQBk3I9WqsMqNGzeaseplCLdv3+76vuqzB4qVcRvFcVevXt32OSq99+DmzZtdx9HPjA4BBB0CCDoEEHQIoIzbAR+d+H4z9v7KStdnq1VhdaHWbkmtxqrtohsrv+m6lqo8q54ZV52j+h0rnfegun+T1a6P8gxmdAgg6BBA0CGAoEMAZdyMPPzkYjO2tyjP9rz+djM29jPjfne2fU7bz26M+8y4ypOvPm7GHhfl3uXLl7u+j35mdAgg6BBA0CGAoEMAZdyMVCvKXivKs15DCquqtKv0rmQborovjM+MDgEEHQIIOgQQdAgw3Zo0L65kB1w4+UZzo0+fPt0c99O1fzVjx48fb8aqQq0qtnqLt0rv91XHVc99+8Pyt5uxqlQ8s/q5N6eOzIwOAQQdAgg6BBB0CKCMm6OqoKt8dvAnzVhV5PWWYr16S8CqUPvR3//cdQ7F22yY0SGAoEMAQYcAgg4BbFOdo94i6rMPfj1qY7r6q1825z058jmUbLuLGR0CCDoEEHQIIOgQQNAhgKBDAEGHAIIOAQQdAgg6BBB0CCDoEEDQIYCgQwDPjNtlxt4uWpnFNtXe8zIbZnQIIOgQQNAhgKBDAGXcHE0n0+bmnzhxojmuemnChx9+2IwtLi42Y+vr683Y1mSrKcWqa+n9vrNnzzZj1cskrl271nUtjM+MDgEEHQIIOgQQdAjgBQ67TFW8fRO9KL/jRWFGhwCCDgEEHQIIOgSwMm6OqtVos9C7Mm5e18L4zOgQQNAhgKBDAEGHAMo4CGBGhwCCDgEEHQIIOgQQdAgg6BBA0CGAoEMAQYcAgg4BBB0CCDoEEHQIIOgQ4D9F8Xun7aZAtwAAAABJRU5ErkJggg==;clipPath=inset(7.6% 24% 6.8% 25.6%);" parent="1" vertex="1">
          <mxGeometry x="762.13" y="730.8000000000001" width="32.03" height="54.41" as="geometry" />
        </mxCell>
        <mxCell id="fgCzt5P4TZWiUm7buIOH-58" value="" style="rounded=1;whiteSpace=wrap;html=1;dashed=1;" parent="1" vertex="1">
          <mxGeometry x="149" y="725" width="270" height="190" as="geometry" />
        </mxCell>
        <mxCell id="fgCzt5P4TZWiUm7buIOH-59" value="" style="shape=image;verticalLabelPosition=bottom;labelBackgroundColor=default;verticalAlign=top;aspect=fixed;imageAspect=0;image=data:image/png,iVBORw0KGgoAAAANSUhEUgAAAPoAAAD6CAYAAACI7Fo9AAAACXBIWXMAAA7EAAAOxAGVKw4bAAAJA0lEQVR4nO3dMYhdWR0G8HmiCBsrA1oIgxBIEJuNTRSmjOkCIsQIVsaBhSzsFAGDTYo0koUsJJCFhdlYx4BNukkKi9lSo4VIRmyms4iVWVCLsRXvP/LPnDtvJu/7/crDfe+d+x4fBz7OeXdxsHawBqy2Lxz3BICjJ+gQQNAhgKBDAEGHAIIOAQQdAgg6BBB0CCDoEEDQIYCgQwBBhwCCDgEEHQIIOgQQdAgg6BBA0CGAoEMAQYcAgg4BBB0CCDoEEHQIIOgQQNAhgKBDAEGHAF887glwOIu1xYl5DO7B2sHiuOfA/2dFhwCCDgEEHQIIOgRQxh2jkULt7Nmzk7H19fXWWNf+/n5rbLF3+PtQ5C2HFR0CCDoEEHQIIOgQYHGwdmI2WK20qnjrFmqVkZJtGbpF3t7e3mRMQTc/KzoEEHQIIOgQQNAhgJ1xR2CkeDvpJVvXyH1UO+0UdGOs6BBA0CGAoEMAQYcAyrhBcxdv1Vi1o6yyjNdWY8vYzaegG2NFhwCCDgEEHQIIOgRQxh2BuYu3kQKsa+Qzuq8dmXN1nJU+KzoEEHQIIOgQQNAhgDLuDcy9C667a61bdo1cN2IZ86u+Z7vl+qzoEEDQIYCgQwBBhwDKuBNmd3d3MtbdFbaxsTEZm7ugm3t+lWUUiGms6BBA0CGAoEMAQYcAyrglqcqkbrF18OLJZGxx7nLrtdWOsqoUm7sAm7ugY4wVHQIIOgQQdAgg6BBAGXcEuv/7VhVW966en4zdv3Wrdd3m5uZk7NT333/tPP9bVYp1y8JqLpWtR88PPRfGWNEhgKBDAEGHAIIOARYHa5O/3eI1uv8Zd5IeNvDq6YPJWFXQnfT76M7Pf8bVrOgQQNAhgKBDAEGHAHbGDXr//KnJ2FbRYR0cHE/puVj0uqmy2DpBc+5+z9Ss6BBA0CGAoEMAQYcAyrg3UB3HvHTp0vTC4jjmv/Y+m4z94pPfTMauX78+Gfv4448nY3fv3p2M3bhxYzqXAdX7dT+3ex+/fO+HrblU3/O96sJHrbeLY0WHAIIOAQQdAgg6BFDGDaoefND1g3e/MRk7c+bMZOx7P/naZGykeOseXa1Un1vNr7qP6n67Rr5nrOgQQdAhgKBDAEGHAMq4I1DtoPvyuelDCf75YvqAhK6qAPv6n740Gfvo0J9Ql2d/+/a/D/1+Fy5cmIxV30v3gRD0WdEhgKBDAEGHAIIOATzAYdD9q99pfYHVMctv/ezO7PP5Xwcvnhz6tYtzl2ecSe3Pn96cjO3s7LRe+8Gj33tYQ5MVHQIIOgQQdAgg6BBAGTeoesJq97/lqqOX71THMaux/f3mDJegOb/Pi7H9Yqwq47aK/+Hz5NQ+KzoEEHQIIOgQQNAhgGOqR+CPp4pjlkXBVBZ0xfu9MzCX+7duHfq1H9y+3bru893ecdtu8VZ+f2vTMo4+KzoEEHQIIOgQQNAhgJ1xb6DaBXfx4sXJddWOt6qIunz6ZetzNzc3W9eVu+pmVu1uq2xvb7eue/Ly9GSs+/09e/ZsMma3XM2KDgEEHQIIOgQQdAhgZ9ygkad8Pnj+qndhs9jqHoXt6u5kq1QlW/V+6+vd6zxNdYQVHQIIOgQQdAgg6BBAGfca3V1wlapM6hZM1XXt0m6tV5SN6M6lKtm699st3qrfY/Fs+rvZLWdFhwiCDgEEHQIIOgRQxq2NHT+d297e3qFfu3XjrzPO5DUenWldVt3HyJHeSvVaBV3Nig4BBB0CCDoEEHQIEFfGzV28jeyCq/7zrJpL9X4bGxuTsYfv9YqytU+K0q752mvXrk3GdosHOIzc7wjHWWtWdAgg6BBA0CGAoEOAlS7jTlLx1tV9bVWAVUXZw4cPW59R7UUbKd7m/g7slhtjRYcAgg4BBB0CCDoEWOkyrnJcxdvIrrDu51ZF2Yhu8dadX3W/dssthxUdAgg6BBB0CCDoEGBlyrjjeuBC9/26Rgq16ujqyH/QVe/XvbdukTdiZLdcGis6BBB0CCDoEEDQIcDKlHGV7i6uuY+ajjy8YBk7xebWvY+q3BvZLTdSeqYdXbWiQwBBhwCCDgEEHQKsdBlXGdlN1S3yup87UiYd126vkf9zm/sYLX1WdAgg6BBA0CGAoEOAuDKu2rV29uzZI//caldYZeRYadd3f/vRZOzwtWDfMr6DuXc5rgorOgQQdAgg6BBA0CHASpdxIzvPRty7en4ytlU81bRr7l11t2//fDL26zs3J2Nz72Srnuxaqb6/Jy9nnUocKzoEEHQIIOgQQNAhwEqXcSfJq6cPJmM/ffaPyVhVilU7u7q7vapdZru7f2i9truTrSoGq8/90c07k7FfXfzKZGx7e7v1uZXqc7v3scqs6BBA0CGAoEMAQYcAK13Gjewem3tXXf1+X229tnqgwYiNjXdb13V3so1Yxu7FuXcWvo2s6BBA0CGAoEMAQYcAK13GVbukqqdjLvamT9GsdHejbT16Phm7V134zR9Phnb+Mj2PWe0Uq46aVjveunOuPrcqrKoi79atDydjm5ubk7HqPnZ2diZjT16efu08D6O7c29VnpxasaJDAEGHAIIOAQQdAqxMGVeWbGu9km1u1QMhPiuKt6qwqoqjS5cuzTOxI1LNr7qPuqAr3vDl09b7zV22rjIrOgQQdAgg6BBA0CHAypRxI+beLTdyBLLaKVaVWF3r672jsNV13fuovoNqF9zIfTDGig4BBB0CCDoEEHQIsNJl3Mixw7l3WFUPZkhTFXR//928u+C6VvlIasWKDgEEHQIIOgQQdAiwOFiLP8E3ZOQobLcQunrzw7fuR6rKx+r4blWyVdLKs7lZ0SGAoEMAQYcAgg4BlHFLUpV2x/U/dyOl2NyUbMthRYcAgg4BBB0CCDoEUMYdo6p4u3LlyuS67hNRq+Odjx8/PsTMljcXZdxyWNEhgKBDAEGHAIIOAVb6P+PeRt2ya8QyduQt4z7os6JDAEGHAIIOAQQdAtgZd4yWcSS1clzHY7tzYX5WdAgg6BBA0CGAoEMAZRwEsKJDAEGHAIIOAQQdAgg6BBB0CCDoEEDQIYCgQwBBhwCCDgEEHQIIOgQQdAjwH8cV9ZEMMgoVAAAAAElFTkSuQmCC;clipPath=inset(12% 19.6% 6% 19.6%);" parent="1" vertex="1">
          <mxGeometry x="257.42" y="746.5" width="45.97" height="62" as="geometry" />
        </mxCell>
        <mxCell id="fgCzt5P4TZWiUm7buIOH-60" style="edgeStyle=orthogonalEdgeStyle;rounded=0;orthogonalLoop=1;jettySize=auto;html=1;exitX=1;exitY=0.5;exitDx=0;exitDy=0;entryX=0;entryY=0.5;entryDx=0;entryDy=0;endArrow=classicThin;endFill=1;" parent="1" source="fgCzt5P4TZWiUm7buIOH-61" target="fgCzt5P4TZWiUm7buIOH-68" edge="1">
          <mxGeometry relative="1" as="geometry" />
        </mxCell>
        <mxCell id="fgCzt5P4TZWiUm7buIOH-61" value="" style="rounded=1;whiteSpace=wrap;html=1;" parent="1" vertex="1">
          <mxGeometry x="157" y="780" width="70" height="70" as="geometry" />
        </mxCell>
        <mxCell id="fgCzt5P4TZWiUm7buIOH-62" value="" style="shape=image;verticalLabelPosition=bottom;labelBackgroundColor=default;verticalAlign=top;aspect=fixed;imageAspect=0;image=data:image/svg+xml,PHN2ZyB4bWxuczp4bGluaz0iaHR0cDovL3d3dy53My5vcmcvMTk5OS94bGluayIgeG1sbnM9Imh0dHA6Ly93d3cudzMub3JnLzIwMDAvc3ZnIiB2ZXJzaW9uPSIxLjEiIHZpZXdCb3g9IjAgMCA0MDAgNDAwIiBoZWlnaHQ9IjQwMHB4IiB3aWR0aD0iNDAwcHgiPiYjeGE7ICAgICYjeGE7ICAgIDx0aXRsZT5DVCBpY29uIFlXPC90aXRsZT4mI3hhOyAgICA8ZGVzYz5DcmVhdGVkIHdpdGggU2tldGNoLjwvZGVzYz4mI3hhOyAgICA8ZGVmcy8+JiN4YTsgICAgPGcgZmlsbC1ydWxlPSJldmVub2RkIiBmaWxsPSJub25lIiBzdHJva2Utd2lkdGg9IjEiIHN0cm9rZT0ibm9uZSIgaWQ9IkNULWljb24tWVciPiYjeGE7ICAgICAgICA8cmVjdCBoZWlnaHQ9IjQwMCIgd2lkdGg9IjQwMCIgeT0iMCIgeD0iMCIgZmlsbD0iIzFDMjUyQSIgaWQ9IlJlY3RhbmdsZSIvPiYjeGE7ICAgICAgICA8ZyBmaWxsLXJ1bGU9Im5vbnplcm8iIHRyYW5zZm9ybT0idHJhbnNsYXRlKDc1LjAwMDAwMCwgODEuMDAwMDAwKSIgaWQ9IkNULWljb24tbW9ub1ciPiYjeGE7ICAgICAgICAgICAgPHBhdGggZmlsbD0iI0ZGRkZGRiIgaWQ9IlNoYXBlIiBkPSJNMTQ2LjgsMTczIEwxMDQuNiwxOTEuMyBMMTA0LjYsMTg5LjUgQzk2LjUsMTkxLjYgODcuNCwxOTIuOCA3OC45LDE5My4yIEMzOS4yLDE5Mi44IDcuNywxNzIgNy4zLDE0Ny4zIEw3LjMsMTM4LjEgQzIwLjMsMTU3LjEgNDYuOSwxNjkuOCA3OC45LDE2OS4zIEM4OS43LDE2OS44IDEwMC44LDE2OCAxMTAuMSwxNjUuNiBMMTEzLjgsMTU2LjQgQzEwMi44LDE1OS43IDkwLjcsMTYyIDc4LjksMTYxLjkgQzM5LjIsMTYyIDcuNywxNDEuMiA3LjMsMTE2IEw3LjMsMTA4LjcgQzIwLjMsMTI2LjIgNDYuOCwxMzguOSA3OC45LDEzOC4xIEM5My4zLDEzOSAxMDcuNCwxMzUuOSAxMTkuMywxMzAuOCBMMTIxLjEsMTIxLjYgQzEwOS41LDEyNy43IDk0LjUsMTMxLjMgNzguOSwxMzAuOCBDMzkuMiwxMzEuMyA3LjcsMTEwLjUgNy4zLDg0LjkgTDcuMyw3Ny42IEMyMC4zLDk1LjUgNDYuOSwxMDguMiA3OC45LDEwOC44IEM5Ny4xLDEwOC4yIDExNC4zLDEwMy40IDEyOC40LDk2IEwxMzAuMiw4NSBDMTE3LjQsOTQuNSA5OC43LDEwMC42IDc4LjgsMTAxLjUgQzM5LjEsMTAwLjYgNy42LDc5LjggNy4yLDUzLjggQzcuNiwyOSAzOS4xLDguMyA3OC44LDcuOSBDMTAyLjUsOC4yIDEyNC40LDE2LjUgMTM3LjUsMjkuOSBMMTM4LjgsMzIgTDE0OC4xLDMyIEwxNDYuNywyOS44IEMxMzMuNywxMi4xIDEwNy43LDAuNCA3OC44LDAuNCBDMzUsMC41IDAsMjQuNyAwLDUzLjcgTDAsNTUuNSBMMCwxNDkuMSBDMS41LDE3Ny40IDM1LjcsMjAwLjUgNzguOSwyMDAuNSBDMTA3LjQsMjAwLjUgMTMzLDE4OS4zIDE0Ni44LDE3MyBaIi8+JiN4YTsgICAgICAgICAgICA8cGF0aCBmaWxsPSIjRjdCMzIzIiBpZD0iU2hhcGUiIGQ9Ik0xMjkuNiwyMzcuNSBMMTQ0LjQsMTc0LjUgTDEwMS44LDE5MyBMMTI3LjcsODMuNyBMNzcuNyw4My43IEw5MC43LDMwIEwyNTAsMzAgTDIzNyw4My43IEwxODUuMSw4My43IEwxNzQsMTEzLjMgTDIzMS40LDg5LjIgTDEyOS42LDIzNy41IFogTTE1NS42LDE2MS42IEwxNDguMiwxOTguNiBMMjA5LjMsMTA2IEwxNTkuMywxMjguMiBMMTgxLjUsNzYuMyBMMjMxLjUsNzYuMyBMMjQwLjgsMzcuNCBMOTYuMywzNy40IEw4Nyw3Ni4zIEwxMzcsNzYuMyBMMTEzLDE4MC4xIEwxNTUuNiwxNjEuNiBaIi8+JiN4YTsgICAgICAgIDwvZz4mI3hhOyAgICA8L2c+JiN4YTs8L3N2Zz4=;" parent="1" vertex="1">
          <mxGeometry x="196.49999999999974" y="790" width="25" height="25" as="geometry" />
        </mxCell>
        <mxCell id="fgCzt5P4TZWiUm7buIOH-63" value="" style="shape=image;verticalLabelPosition=bottom;labelBackgroundColor=default;verticalAlign=top;aspect=fixed;imageAspect=0;image=data:image/svg+xml,PHN2ZyB4bWxucz0iaHR0cDovL3d3dy53My5vcmcvMjAwMC9zdmciIGZpbGw9Im5vbmUiIHZpZXdCb3g9IjAgMCAxMTIgMTEyIiBoZWlnaHQ9IjExMiIgd2lkdGg9IjExMiI+JiN4YTs8cmVjdCBmaWxsPSIjOEJDNTNGIiBoZWlnaHQ9IjExMiIgd2lkdGg9IjExMS4zMjEiLz4mI3hhOzxnIGNsaXAtcGF0aD0idXJsKCNjbGlwMF8yMzhfNTAzNikiPiYjeGE7PHBhdGggZmlsbD0iIzhEQzYzRiIgZD0iTTEwMy4zMiA1NS43ODQ4QzEwMy40MzcgODIuMjkzMSA4Mi4xOTU1IDEwMy44ODIgNTUuODc1NyAxMDRDMjkuNTUyNSAxMDQuMTE3IDguMTIwNjggODIuNzIzNiA4LjAwMDQ4IDU2LjIxNTJDNy44ODM2MiAyOS43MDM1IDI5LjEyNTEgOC4xMTgxOCA1NS40NDUgOC4wMDA0OEM4MS43NjgxIDcuODgyNzkgMTAzLjIgMjkuMjczMSAxMDMuMzE3IDU1Ljc4NDhIMTAzLjMyWiIvPiYjeGE7PHBhdGggZmlsbD0iI0Y5RTk4OCIgZD0iTTk5LjcyNzYgNTUuNzk3OUM5OS44Mzc4IDgwLjMxMjIgODAuMTk1NiAxMDAuMjczIDU1Ljg1OSAxMDAuMzg0QzMxLjUxOTEgMTAwLjQ5NSAxMS42OTk5IDgwLjcxMjQgMTEuNTg5OCA1Ni4xOTgxQzExLjQ3OTYgMzEuNjgzOSAzMS4xMjE4IDExLjcyMjcgNTUuNDYxNyAxMS42MTE4Qzc5Ljc5ODMgMTEuNTA0MiA5OS42MTc1IDMxLjI4MzcgOTkuNzI3NiA1NS43OTc5WiIvPiYjeGE7PHBhdGggZmlsbD0id2hpdGUiIGQ9Ik01Ni40NjMzIDE0LjQ4NzNDNTkuMjQxMSAxMy45MzkyIDYyLjEyNTkgMTQuMDEzMiA2NC45MzcyIDE0LjQ3MDVDNjcuNzQ4NCAxNC45NDQ2IDcwLjUxOTYgMTUuODE5IDczLjAyNzEgMTcuMTk3N0M3NS41Mzc5IDE4LjU4OTggNzcuNzExNCAyMC40NzYzIDc5Ljg3NSAyMi4yNDg1QzgyLjAzMTkgMjQuMDQwOCA4NC4xODg3IDI1LjgyOTggODYuMjM1NCAyNy43OTdDODguMzAyMSAyOS43NDQgOTAuMTU1MiAzMS45NTMzIDkxLjY1NzYgMzQuMzk0NkM5My4xODY4IDM2LjgxNTggOTQuNTE5IDM5LjM4NDkgOTUuNDYwNiA0Mi4xMDU0Qzk3LjMwMDIgNDcuNTQ5NiA5Ny45Mzc5IDUzLjQxNzYgOTcuMDIzMSA1OS4wMTMxSDk2LjczOTNDOTUuODE3OCA1My40NjQ2IDk0LjU2NTggNDguMTgxOCA5Mi42MTI1IDQzLjE1MTJDOTEuNjYxIDQwLjYzNTkgOTAuNjMyNiAzOC4xNDA3IDg5LjM1MzkgMzUuNzU5OUM4OC4wNDg0IDMzLjM5OTMgODYuNjUyOCAzMS4wNjg5IDg1LjA2NjggMjguODI5M0M4My40NjQyIDI2LjYwOTkgODEuNTYxMSAyNC41Njg4IDc5LjMxNzQgMjIuOTg0OUM3Ny4wODA0IDIxLjM4MDkgNzQuNTA2MiAyMC4zMzg1IDcyLjAxODggMTkuMzQ5OEM2OS41MjQ3IDE4LjM0NzcgNjcuMDQwNiAxNy4zODI2IDY0LjQ1MyAxNi42MzI3QzYxLjg2ODggMTUuODYyNyA1OS4yMjExIDE1LjMxNzkgNTYuNDYzMyAxNC43Njk4VjE0LjQ4NFYxNC40ODczWiIvPiYjeGE7PHBhdGggZmlsbD0iIzhCQzUzRiIgZD0iTTc4LjAwODcgNDAuMTE0NEM3NC44MTAxIDM5LjE4MyA3MS40OTggMzcuODU4MSA2OC4xMzkyIDM2LjUyMzFDNjcuOTQ1NSAzNS42NzU2IDY3LjIwMSAzNC42MTk4IDY1LjY5MTggMzMuMzI1MUM2My40OTgyIDMxLjQwODMgNTkuMzc4MSAzMS40NTg4IDU1LjgxOSAzMi4zMDYyQzUxLjg4OTIgMzEuMzc0NyA0OC4wMDYyIDMxLjA0MTggNDQuMjgwMSAzMS45NDNDMTMuODEwMSA0MC40MDAzIDMxLjA4NTEgNjEuMDIzOSAxOS44OTY3IDgxLjc2MThDMjEuNDg5MyA4NS4xNjE1IDM4LjY0NzUgMTA1LjAwOCA2My40NzQ5IDk5LjY4MTdDNjMuNDc0OSA5OS42ODE3IDU0Ljk4NDMgNzkuMTMyMSA3NC4xNDU3IDY5LjI2NTlDODkuNjg3OSA2MS4yNjYgMTAwLjkxNiA0Ni40MDk1IDc4LjAwNTQgNDAuMTExMUw3OC4wMDg3IDQwLjExNDRaIi8+JiN4YTs8cGF0aCBmaWxsPSJ3aGl0ZSIgZD0iTTgxLjc2ODEgNTMuNjI5M0M4MS43NjgxIDU0LjY1NDkgODAuOTQ2OCA1NS40OTIyIDc5LjkyODQgNTUuNDk1NkM3OC45MTAxIDU1LjUwMjMgNzguMDc4NyA1NC42NzE3IDc4LjA3MjEgNTMuNjQyN0M3OC4wNjU0IDUyLjYxNzEgNzguODkwMSA1MS43Nzk4IDc5LjkxMTcgNTEuNzc2NEM4MC45MzAxIDUxLjc2OTcgODEuNzYxNCA1Mi42MDAzIDgxLjc2ODEgNTMuNjI1OVY1My42MjkzWiIvPiYjeGE7PHBhdGggZmlsbD0iIzAwOTM0NSIgZD0iTTU1LjgxODkgMzIuMzEwMUM1OC4wMzkyIDMyLjQ2ODEgNjYuMDY1NyAzNS4xMDc5IDY4LjEzNTggMzYuNTIzNkM2Ni40MTk2IDMxLjQ3OTUgNjAuNjAwMSAzMC44MTAzIDU1LjgxODkgMzIuMzEwMVoiLz4mI3hhOzxwYXRoIGZpbGw9IndoaXRlIiBkPSJNNTcuOTI5MSA0NS4wNjA3QzU3LjkyOTEgNDkuODAyMiA1NC4xMTI4IDUzLjY0MjQgNDkuNDA4NSA1My42NDI0QzQ0LjcwNDEgNTMuNjQyNCA0MC44ODc4IDQ5LjgwMjIgNDAuODg3OCA0NS4wNjA3QzQwLjg4NzggNDAuMzE5MyA0NC43MDQxIDM2LjQ4MjQgNDkuNDA4NSAzNi40ODI0QzU0LjExMjggMzYuNDgyNCA1Ny45MjkxIDQwLjMyMjcgNTcuOTI5MSA0NS4wNjA3WiIvPiYjeGE7PHBhdGggZmlsbD0iIzU4NTk1QiIgZD0iTTU1LjQwNDkgNDUuMTQxNkM1NS40MDQ5IDQ4LjQ3NCA1Mi43MjA1IDUxLjE3NzYgNDkuNDExNyA1MS4xNzc2QzQ2LjEwMyA1MS4xNzc2IDQzLjQxODYgNDguNDc3NCA0My40MTg2IDQ1LjE0MTZDNDMuNDE4NiA0MS44MDU3IDQ2LjEwMyAzOS4xMDU1IDQ5LjQxMTcgMzkuMTA1NUM1Mi43MjA1IDM5LjEwNTUgNTUuNDA0OSA0MS44MDkxIDU1LjQwNDkgNDUuMTQxNloiLz4mI3hhOzxwYXRoIGZpbGw9IiM4QkM1M0YiIGQ9Ik04OC42NzI2IDU3LjQwOTFDODEuNzcxMyA2Mi4zMDg2IDczLjkxNTEgNjYuMDI0NCA2Mi43ODAyIDY2LjAyNDRDNTcuNTY4MyA2Ni4wMjQ0IDU2LjUwOTkgNjAuNDQ1NyA1My4wNjQzIDYzLjE3OTZDNTEuMjg0NyA2NC41OTE5IDQ1LjAxNDQgNjcuNzQ5NSA0MC4wMzYyIDY3LjUxMDhDMzUuMDE0NiA2Ny4yNjg3IDI2Ljk5ODIgNjQuMzI5NiAyNC43NDQ1IDUzLjYzMjhDMjMuODUzIDY0LjMyOTYgMjMuMzk4OSA3Mi4yMTE5IDE5LjQwOTEgODEuMjQ0MUMyNy4zNTIxIDk0LjA1MjcgNDYuMjg2NSAxMDMuOTMyIDYzLjQ3NDcgOTkuNjg1M0M2MS42MjgzIDg2LjY5NTEgNzIuOTAwMSA3My45NzM5IDc5LjI1MDUgNjcuNDYzN0M4MS42NTQ1IDY0Ljk5ODggODYuMjYyIDYwLjk3MzYgODguNjcyNiA1Ny40MDkxWiIvPiYjeGE7PHBhdGggZmlsbD0iIzU4NTk1QiIgZD0iTTg4LjQwMjMgNTcuNzMyMUM4Ni4yNTg4IDU5LjY5OTMgODMuNzA3OSA2MS4xNTg3IDgxLjExMDMgNjIuNDQzMkM3OC40ODYgNjMuNjkwOCA3NS43NTE2IDY0LjcwNjMgNzIuOTI2OSA2NS40NDI4QzcwLjExMjMgNjYuMTc1OSA2Ny4xNzA4IDY2LjcyNzMgNjQuMTkyNiA2Ni40NTgzQzYxLjI2NzggNjYuMTk5NCA1OC4xNzYxIDY1LjE2MzcgNTYuMjAyOCA2Mi45MjA3TDU2LjI5NjMgNjIuODEzMUM1OC43MzAzIDY0LjM5MzYgNjEuNTA0OCA2NC45NDg1IDY0LjI3OTQgNjUuMDI5MkM2Ny4wNTQgNjUuMTAzMiA2OS44ODE5IDY0Ljg5NDcgNzIuNjY5OCA2NC4zMjY0Qzc1LjQ1MTEgNjMuNzQ4IDc4LjE4MjIgNjIuODgzOCA4MC44MjMyIDYxLjc4NzVDODMuNDU3NSA2MC42OTEzIDg2LjA2MTggNTkuNDIzNSA4OC4zMDg4IDU3LjYyMTFMODguMzk5IDU3LjcyODdMODguNDAyMyA1Ny43MzIxWiIvPiYjeGE7PC9nPiYjeGE7PGRlZnM+JiN4YTs8Y2xpcFBhdGggaWQ9ImNsaXAwXzIzOF81MDM2Ij4mI3hhOzxyZWN0IHRyYW5zZm9ybT0idHJhbnNsYXRlKDggOCkiIGZpbGw9IndoaXRlIiBoZWlnaHQ9Ijk2IiB3aWR0aD0iOTUuMzIwNiIvPiYjeGE7PC9jbGlwUGF0aD4mI3hhOzwvZGVmcz4mI3hhOzwvc3ZnPg==;fontSize=14;" parent="1" vertex="1">
          <mxGeometry x="164" y="790" width="25" height="25" as="geometry" />
        </mxCell>
        <mxCell id="fgCzt5P4TZWiUm7buIOH-64" value="" style="shape=image;verticalLabelPosition=bottom;labelBackgroundColor=default;verticalAlign=top;aspect=fixed;imageAspect=0;image=data:image/png,iVBORw0KGgoAAAANSUhEUgAAAMgAAADICAMAAACahl6sAAAAkFBMVEX///+Ftfg9ifUWVrmwz/uguuLQ4vyfxPmUvvjv9f+Kqtvc6fxGjvXw9PokYL3I3fu9z+sdW7uDpdlKkfWQvPi61fuMufjB2fv3+v/R3fCjx/rf6/1tpvdSlfYvaMDe5/WswuXn8P3A0evW4fJNfcmzyOd/sfhnkdFUg8tZhsxijc9in/ZIesg9csSszPqbtuD/00jBAAAD90lEQVR4nO3bi1raMBTA8WIQLyiMqdjB5tDd53Tv/3Yr4pzapD239JzsO/8HgPw+GkibUFWe53me53me53me53me53me53kmqqeX49Xqfjxf19pDYVRPVqOnluO19niozc9HLzsoknJ0MGp3Ud4FNl1GHM2HcqQ9MGSTKKPpsCxJ0lGYpMNRlKTTUZCkx1GMpNdRiATgKEICchQgATrMS8AO4xKEw7QE5TAsQTrMStAOoxKCw6SE5DAoITrMScgOYxKGw5SE5TAkYTrMSNgOIxIBhwmJiMOARMihLhFzKEsEHaoSUYeiRNihJhF3KEkyOFQkWRwKkjq2HyXRfGBIVU0zUJYXKtNdmqLEkKYoMiQpygwpigHGNi7FCGMbh7K0dYiASjHG2EahLC/NMbZhKUYZ2zAUw4xtUIomYw5bmUIoMMbp2zfMIUebn+ydyFCgjEVYZJA0jiYBynIOZTTJS3YOPgXFyCB5cvAo50iGuOS5g04hMIQlrxw0Co0hKpm0HHgKmbGV3DABj12fRRxwynrFYzTNPjIJu97HHQgKjHGcYDR9ZhIeGicdcEp/p8ezJKNpn/8O9YcuiBClhxHCFX9ldtHtkKD0Mpo2bEh6hghRIAyBWXIEcHAoMEbTKRNyCYMQKWBGCF+YkEMohEBBMEI4ZkK+wiFICooRwjcmBDLXKRQkI4Tvw0L29s4gf3VBMxQgAAqBEcIPJmSEh/RQSAz+HFlRIB0UIoP/rTWnQRIUMiME7j1JHbupAlImr1/shswIC/aqEfVD8rLx69faJzvCT66Dfm3JQgTudm8tQH7xHdXEAkTk8cNSH8L9EdlVUy8uMcid0BbEdc9te27IlczTILpECCLnoEpkIJIOokQEIuuoqnXiuWluiNDT0mdN8RIByOyTtIMi4UNyOAgSNiSPAy/hQmbv8jjQEiYknwMr4UFyOpASFiSvAyfhQHI7UBIGJL8jsccrDBnCgZCQIcM44BIqZCgHWEKESJ0PkJPQIEM6gBISZFhH7JyNDCTHmTm2hAAZ3gGR4CEaDoAEDdFx9EuwEC1HrwQJ0XP07TngIJqOnhMeKMiCe0aDWZcEA9F2dEoQEH1H18k0OGSxURh4q6QEDLHhSEugECuO5EFUKGSjMOREcQkQInAUVq6oBAYx5YhLQBBjjqgEAjHniEkAEIOOiKQfYtLRlvRCjDpakj6IWUdV3WMgvzVGCG0Fh3APKWZuBYUYd7yQdEHMO6rqAAIpwPFMkoYU4fgnSUIKcTxJUpBiHH8lCUhBjkdJHFKUYyeJQgpzPKxWIpCF6XVJvOltG3I32H6taK3/XVxrjMLzPM/zPM/zPM/zPM/zPM/zPO8/7Q+TO2bI5NlSkwAAAABJRU5ErkJggg==;clipPath=inset(16% 15% 15.5% 15%);" parent="1" vertex="1">
          <mxGeometry x="164" y="820" width="25" height="24.47" as="geometry" />
        </mxCell>
        <mxCell id="fgCzt5P4TZWiUm7buIOH-65" value="" style="shape=image;verticalLabelPosition=bottom;labelBackgroundColor=default;verticalAlign=top;aspect=fixed;imageAspect=0;image=data:image/png,iVBORw0KGgoAAAANSUhEUgAAALQAAAC0CAMAAAAKE/YAAAAAMFBMVEX///+6wN3U2OrL0OX29/v6+/zCyOG+xN/u7/bh5PDY3Ozl5/LHzOPQ1Ojd4O/q7PSNTLihAAAHEklEQVR4nO1c25bbMAj0PU7sJP//t429iQ0IELDpaR+Yt+6xJIwGBGOlTZNIJBKJRCKRSCQSiUQikUgkEolEIpFIJP4nDMuju6/Tpd0wTX1/ezyHf22UgvF5W3+MLbDer/O/No/BeO15ew9c+ut/5fK6xW+Hn0OuXXi17vYNkx8CKQqA1frLGFxuaPtfmzx0VpPbFvD60j6CCy5tG33fN+xe3nAuNr84Hlxyatvnr2xePCbDbX1gvzswY5q5MdjC7wAgRI/fwYHuNXKK2+xzM3LtuP87kgGHfWSU1OPNaXLbnoNn6nkzflZdYjYPq9tmQIefpSNZb9pHxpL8PLltbq/n8LX4ixHLz8AQqXU6X9Z799hw63pQjZyUHkrfG/EJ/UA4LLK9r8qIbPo4X+/bvoC8/Czfw4bP2wb26CpZfBONmJc74GH3GXF3rnwMdJNasLm3u+0MCF8ojgfXvMfpkzW5c7BsOIf5sh6gpY/UAxeDvWsOsLbPYyBluUg9MLlucsZTB8Z6hs7QTY5xI2Nz5z0j4Bye2ge+rGeLyrP74s4+0GGeKnNA69q3qEzQkz/No0kcu4QXN4dwSeiAzc0djF/rjx/Ai5tJ3bUEEZsbmH4clCa7bK225pYgZDOaxZE8aMdhHErJEbIZH6h2Sg9kceMm0SiM2Yw85si2BTVtY6mjg0IXnMJxipcHhGWXqKODukWQ0kw1bEnx5FWjHfEDzOE41pjuzkBq+qpRMTFG6SJx2dxGMk5U1BrhJPYKoAjDDVVSk4wTzBzEZeZJiny3oyokXJ3PS4AV17m/tYDkm9Jqz4UDYQrrlnCes0NcK/PxgkWN1GR/woo4mufYrrnCbr7Dq9JrcT1tXP6YZankkXvLoxLIOHrjUjyc59zdu37M8GFY33BMKr9Uws1zLnnR/cDmuw364TTih8PskCjdqkkXeexiNgQfSHFNe2FX3NOpfFrheEJRoW45ztJeMesE3Oiz0+r1rUZn8Yr8rgYXbsL/AqVbORRxGC7IFpXUuPAIfzHmxYNZ9xoKw4lkTc0UfB6G45DvtB6qAdjRnaPkwvpd+AyHh8Tp2M828vUxDsPNXys7Swk0sFUe1MGKB4fneFEA5bs9BSBSKw5ENoczHt9pnX/l9hon26c8zd8yGlH6+OvpOG6vaRg2hNRKz/Udo/lOC1C0dBvNd8o8f8loOMlxAI6qBfiAeKct2BsrWeErRvNcfKoWoDDsuIlkIQGlvOidB/4oQ76kBUiZ7zaMNgkTV6ZBoyEVz/IFRSf1BzqJy8y+QRaLv3EiCicZchsJRTYM6YuKpMb9TuxiC99pkbDCocjkux2I1KIw8I0qjxcPtE8peBNgb2UiNa6nY704Lx40hLjQBD4M6RAxmX2hc+E7rWJyWEyw+W4HcqIUYqRHjJR5EqUbklBP7mFPoRCd+REEOOdFRDFePNghhKIUhvQ9Rbb+XvfgO60dfNaT8l1hj3jY4UgMXD5CJtCciVzy8ciirWgiNRF5wpeP+FUwe9/2yWFI7RGtwa2t50PrD/TPtGj2R/mWpTMho0RJAwVLoCHXbx4wBYhQdnxgIjXhhzcUK9VkGYpqGDZkI0QXkm8uzqxXK3GKrKflu4a+lEjq4Pf0N3jxQLBh8xwKQ84okzo2krtLvuvA1QqHFCCVMGysQgIJxfDtI34gKUBQAc8eeTZSU1dfHL0ALx4goNlx/c6ahMohWSemrq59kgIwNP109hNCUWlTx6irHXU1HCWEejH7ASFRocZE9l/xCdJqtUnIkr6sSNW7VfItfgNgtNqkg3Pf7LU1rOpYeWXTZjUvHmhPAYjxbhMSuAu9qyGHGGVw/rawHGNGUnPeMNxHUDot9G5sKMp6hU1IaPi7ptWrH5J4QMFlPeV5ozr2wsy4o0YRUTygVjBGax40CQk72KsXD81sWTzQrHhDm/hhfVA4uqZFHmSkdMNlPTU7mUktWd1O4gV7RTygKLin+88kJKhWv7IT725FPKjNXGmQIJ2qqrlc3PQ3+jMXXTwgoFmvsucmIcFg9Qtrf7sC41TxgALLszXR0KaO8e/IAGQ21x1vHIrVIsEkJIDZ9V+cgdf2/WwBZb3qjkOHWD4Fcb8d4ZZz/mwBkqlejaENN/V/yq8oARmdd7xhKNatcJJ6wyI6W6C0ReI5Y9yi3V+cszfbb8YFo0Gq8v5sYeQmEYHUMWvPKjBboLSJdZ9QNHX7flLv4DgiUdo04ec1TU0ROrk816NLs8F6gTveE90tw8Oe+T9mk5oSZDb4Z6MU//BYgKLK+YFiuMJX/g2lP1nPKMva1DHF7o+/wWFtvkQHsQ2yfqu0CgkK5ut9xf+NB5jSfHFy2x5zUMEd9n9VOTAAas0AdsHy9bCZngNcwmVnIpFIJBKJRCKRSCQSiUQikUgkEolEIpGI4Q+IITAwceoGhQAAAABJRU5ErkJggg==;" parent="1" vertex="1">
          <mxGeometry x="195.25" y="820" width="25" height="25" as="geometry" />
        </mxCell>
        <mxCell id="fgCzt5P4TZWiUm7buIOH-66" value="Crypto Data Provider" style="text;html=1;strokeColor=none;fillColor=none;align=center;verticalAlign=middle;whiteSpace=wrap;rounded=0;" parent="1" vertex="1">
          <mxGeometry x="159.5" y="852" width="67.5" height="25" as="geometry" />
        </mxCell>
        <mxCell id="fgCzt5P4TZWiUm7buIOH-67" value="" style="group" parent="1" vertex="1" connectable="0">
          <mxGeometry x="338" y="780" width="70" height="70" as="geometry" />
        </mxCell>
        <mxCell id="fgCzt5P4TZWiUm7buIOH-68" value="" style="rounded=1;whiteSpace=wrap;html=1;" parent="fgCzt5P4TZWiUm7buIOH-67" vertex="1">
          <mxGeometry width="70" height="70" as="geometry" />
        </mxCell>
        <mxCell id="fgCzt5P4TZWiUm7buIOH-69" value="" style="shape=image;verticalLabelPosition=bottom;labelBackgroundColor=default;verticalAlign=top;aspect=fixed;imageAspect=0;image=data:image/png,iVBORw0KGgoAAAANSUhEUgAAAgAAAAIACAYAAAD0eNT6AAAABHNCSVQICAgIfAhkiAAAAAlwSFlzAAAOxAAADsQBlSsOGwAAABl0RVh0U29mdHdhcmUAd3d3Lmlua3NjYXBlLm9yZ5vuPBoAACAASURBVHic7d15vGVVdeDxXwFFUYhMIjIJahSNKGqMEyLOU9TExI5xRqPEbjVqYqKxTT6dWWM0jnHWoDGtBDWJGlBR1IjzAFFEBUQEcQBkkAKkoOr1H+dV+3jUfe++u9c56+y7f9/PZ39i94d71lpnqLPevufuA5IkSZIkSZIkSZIkSZIkSZIkSZIkSZIkSZIkSZIkSZIkSZIkSZIkSZIkSZIkSZIkabl1PWzzjsAzgAcCtwBu1EMMSWrBlcC5wEnAW4EzUrPRXIlsADYArwKeCewQuF1JEmwB3gi8ANicnIvmQFQDsAE4Ebh/0PYkSdv3KeBRwKbkPFS5qL/UX403f0kawv3o/uDaLTkPVS5iBuCOwGk47S9JQzoFeDjOBGhGETftZwRtR5I0vSOBjwI3zk5EdYq4cT8oYBuSpLU7AjgBvw7QDCK+ArgCTz5JyvQ54GF0/x5LU4loABYCtiFJKmMToDXxu3tJmg9HAB/BZwI0JRsASZofNgGamg2AJM0XmwBNxQZAkuaPTYBWZQMgSfPJJkArsgGQpPllE6CJbAAkab7ZBGi7xrAOQOQriSWpJq6jMm5XAucCHwfeBpyemk0wGwBJymMDUI8twJuAPwQ2J+cSwgZAkvLYANTnZLq3MFbfBPgMgCRJ03sA8MrsJCI4AyBJeZwBqNMW4E7AN7MTKeEMgCRJa7Mj8PTsJErZAEiStHYPzk6glF8BSFIevwKo1xXA7tlJlLABkKQ8NgB1q/r+5VcAkiQ1yAZAkqQG2QBIUr1OyU5A9bIBkKR6PQz4VHYSqpMNgCTV60rgkdgEaAY2AJJUN5sAzcQGQJLqZxOgFAuFIzv+LONjAXlPq8X9W1N9tRtb/XcEXkP33vVNAfm1dv7dCPhkT7V+FrhxQM1jkn38q5e9AzMu+i3AwQG5T6PF/VtTfbUbS/0bgDfQXVvZ51Tt559NwPSyj3/1sndg1oX/koDcp9Hq/q2lvtqNof4NdO9Yzz6X5un8swmYTvbxr172Dsy68M9kmGUgW92/tdRXuzHU/8aAPDz/bsgmYHXZx7962Tsw8+K/d0D+fdeXHb/vkV1f7bLrvyP1TfvXdP7ZBKws+/in8lcAZY7OTkCq3DPw36E+9fnrgCOAj1B/E9CseXgbYGYX9jNgf+CqHmO0vH+nkV1f1W8DI7/+bwK3L9xGplrOvxsBHwbuVxhvez5HtyLhFT1su2/Z538qO+8yuwO/mZ2EVLGhfk3TOmcCdAM2AOX8GkCa3W7ZCTTkSuBR9PMCoSOAE2jvePb9jMkmujUxXg3cYaCa1iT7IYq+D8Bqo+81AVrfv2Ovr3bZ9WefP7XXP4vdgM8ExN7e+Ax1NQHZ589axnXA64Gdo4p3BqDcDsCTs5OQpCltAh5OPzMBRwInUlcTUIsdgWfT7d+wJqBU7R10xOhzTQD377jrq112/dnnT+31l3AmIP/8mXW8LqJ4fwUQ50i638VGc/+uLLu+qp8CJr/+sZ9fq8muvzT+bnR/UR5ZuJ3tOYVupmFTD9uOUuv5twW4E92vaGbmVwBxjs5OQJLWaBPdT/g+1cO2jwQ+ir8O6MOOwNNLN+IMQJy+1gRw/64suz5nAHLjZ8uuP+r8a3UmoObz73S6lTRn5gxAHNcEkFQrZwLqc0h2AjA/D9E8MWBbHwuop6/6ao3ft3mvbzXZ9WfHzza2+lt7d0AfdQ450mUXEBV/I3Bp4bb6WBNgXvbvWM17favJrj87frYx1t9SE9BHjUOOIn4F8AtXA8cXbsM1ASTVzmWDNbXsDjYy/r0Dthe9JsA87d8xmvf6VpNdf3b8bGOuv4WZgD5qG3Kkyy4gOv63ArZ574C6+qqvtvh9m/f6VpNdf3b8bGOvf96bgD7qGnIU8SuAG3p3wDaODtiGJGXz6wCtKLuDjY5/IN1LF0q2eTmwa0BtfdRXW/y+zXt9q8muPzt+tlrqn9eZgD7qGXIUcQbghi4ATi7chmsCSJonzgTMIRuA7XtnwDaODtiG2nNX4M3AWcDmxXEW8CbgVxLzkmwCbmhd4ahe9hRWH/HHtCbAPO7fMRlLfbsCbwO2rhBrK/BWuvMzSnb92fGz1Vj/PH0dkL3/s+MXyy6gr/hvCdj2S0ZcXy3x+zaG+nalWy992pifJq4JyK4/O362WuuflyYge/9nxy+WXUBf8ceyJsC87t+xGEN9b5sh7puDYmfXnx0/W831z0MTkL3/s+MXyy6gz/hjWBNgnvfvGGTXdydWnvafNLYufrZUdv3Z8bPVXn/tTUD2/k+N70OAK3NNAPXt+cw2S7QOeF5wLtJa+WBg4+a5gxrDmgDzvH/HILO+Pej+AZ019lXAXoU5ZB/f7PjZ5qX+WmcCsvd/anxnAFbmmgDq01Moaw430r3GWsrmTECj5r2DemJAjI+NuL6+4/c9susrcWpA/K8X5lD7/u97bAJOB14N3CGg3uj6x6a2mYDs/Z8dv1h2AX3Hz14ToPb92/fIrm9W9wqIvW3csyCP2vf/kOM64PXAzgF1R9U/RjU1Adn7PzW+XwGs7mrg+MJt7AA8OSAXzY/fG+m2NNmOwLOBE4ltAuaNXwc0pIUOKnNNgNr3b98ju75ZlD78t3yUPAxY+/7PGq8LqD2i/jGrYSYge/9nxy+WXcBQ8bPWBKh9//Y9suubxXMC4i4fz54xl9r3f9a4DjhsBPWP3dibgOz9nxrfrwCm55oAivL0Hrb5zB62qcl2pJ/jOG/8OmDOtdJBZa0JUPv+7Xtk17dWkQ//LR+zPAxY+/7PHN8YQf21GOtMQPb+T43vDMD0XBNAEfp8YM+HAYd1SHYCFXEmYE611EFlrAlQ+/7te2TXtxbRD/8tH7M8DJi9/38WkIPnXz3GNhOQvf9T4zsDsDYfAC4r3MYDmX1NANXtyZSt/LeajcATetx+H87PTkCDciZgRGwA1sY1AVRiiIfGavsa4KTsBDQ4m4A50toUytBrAtS+f/se2fVNq8+H/5aPtTwMmL3/70D5w7Wef3Uaw9cB2fs/O36x7AIy4g+5JkDt+7fvkV3ftN4REGva8fYR1r+S1wfk4flXp+wmIHv/Z8cvll1ARvyXBMR9y4jri4zf98iubxp70L1UZqh9spaHAbP3P3TL6n48IBfPvzplNgHZ+z87frHsAjLiD7kmQO37t++RXd80+lj5b7Ux7cqA2ft/m53pltet7euAUtnxxyKrCcje/9nxi2UXkBX/YwGxp3mXe+37t++RXd80Il77u9bx3yOqfy0OA/6BbpGdKwLy8/yrR0YTkL3/s+MXyy4gK/5QawK0un+H0nd99wyIMeu4xwjqH7vs+rPjj83QTUD2/s+OXyy7gKz4G4FLC2NvYfU1AVrdv0Ppu74hH/5bPqZ5GHDej+9qsuvPjj9GQzYB2fs/O36x7AIy478lIP5LRlzfGOL3rc/6hn74b/m4Ctgzsf4aZNefHX+shmoCsvd/anwXAirzzoBtHM30awKoLk+i+4csS40rA0rgYkHVaLqDov81AbLry47ftz7ry3j4b/lY7WHAeT++q8muPzv+2O0GfIZ+ro2I7ZZKje8MQLl3B2zj6IBtaFzuAdy5cBtXLo4ShzPdw4DSGG0CHkY/MwFH9rDNqtgAlDuW7mG+Er9Dvy+J0fCeGbCN9wLHBWyntvcDSEv1+XWACjU9hbKozzUBsuvLjt+3PuqLevjv7nR/vZduZ6WHAef9+K4mu/7s+DXp88HAJo+/MwAxoh4G1HyIePjv68CXgC/SPUtQwocBNQ+cCRihpjuoRX2uCZBdX3b8vvVR39cCtvusJdt7dsD2Jj0MOO/HdzXZ9WfHr9GYZgJKZccvll1Advxt+loTILu+7Ph9i64vYuW/5VP2UV8pbO9hwHk/vqvJrj87fq3G0gSUSo3vVwBxXBNAAMcEbOM9wGVL/t+XA/8asN2I3KQx8OuAkWi6g1qmjzUBsuvLjt+3yPr6/Es9YmbhSm74MOC8H9/VZNefHb922TMBpVLjOwMQyzUB2hb18N8Xt/P//wXgtMJt74oPA2q+OBOQrOkOapkDKX+f+eVcf02A7Pqy4/ctsr7oh/+W6+NhwHk/vqvJrj87/rzImgkolR2/WHYB2fGXi14TILu+7Ph9i6qv79/rQ+z6AtH11yq7/uz48ySjCSiVGj/igbPSJEpzyI6/3BOJ+SogSvb+7ds81fcO4OlT/DdPGyCXac3T/p9F6/W3Lvv4F8W3AYhvADYCP2T117AOJXv/9m2e6rsX3Xf9q/03nxsgl2nN0/6fRev1ty77+BfF9yHAeFcDx2cnoep8ndVv/gCfp/xhQEmyAehJxJoAastb1vDfvr23LCQ1w68A+lt451vA7Xra9lpk79++zUN9V9P9guTSKf/7Pei+ZhrDGyTnYf+XaL3+1mUff78CGKkxPQiocXsv09/8IW5lQEkNswHoz7F0L/iRVrOW6f+Sz0jS/2cD0J8LgJOzk9DofYPpHv5bzocBJRWxAeiXDwOO36bk+CV/yb8jLIvZ/Cw5fraI+q8I2IY0ExuAfn2A67/VTeNzXmLsqyh7VuSfF7eRJXPfjUFE/ecHbEOaiQ1Av1wTYPw+lhj7OMoaxMvIfRgwc9+NQUT9JwVsQ0rT9FrKU7h3QI4179+x13d7yl/gNMvYChwekP/hi9saOv/rFvddqezzJ7v+O5Bz/jliRqnU+M4A9O+zwLezk9BEZwBvTIj7JrrV/0p9nZxfBPwj3b5rVVT9p9OdC1KVmu6gpvSSgDxr3b9jrw9gZ+DjA+b8Cbp3RkTZyLBvQTsJWB+Ue/b5k10/DH/+OeJGqez4xbILyI4/jQPJm+YrlX2BDXX8dgZeR7/HaQvdX44bAvPeZhfgDYsx+sr/OuA1xN78ss+f7Pq3GeL8c8SPUtnxi2UXkB1/Wh8LyLXG/Tv2+pY7DHgV3e/zNwXkdyXdVPHrgDv2kO9yhwOvX4x5ZUD+V9Dti1cS8533ctnnT3b9yx0G/MNizCsGqM9RNkqlxp+HdwFIkjSL7PtXanwfApQkqUE2AJIkNcgGQJKkBtkASJLUIBsASZIaZAMgSVKDbAAkSWqQDYAkSQ2yAZAkqUE2AJIkNcgGQJKkBtkASJLUIBsASZIaZAMgSVKDbAAkSWrQTtkJBCh9n7IkqU7rshOomTMAkiQ1yAZAkqQG2QBIktQgGwBJkhpkAyBJUoNsACRJapANgCRJDbIBkCSpQTYAkiQ1yAZAkqQG2QBIktQgGwBJkhpkAyBJUoNsACRJapANgCRJDdopO4EAvg9akqQ1cgZAkqQG2QBIktQgGwBJkhpkAyBJUoNsACRJapANgCRJDbIBkCSpQTYAkiQ1yAZAkqQG2QBIktQgGwBJkhpkAyBJUoNsACRJapANgCRJDbIBkCSpQTYAkiQ1yAZAkqQG2QBIktQgGwBJkhpkAyBJUoNsACRJapANgCRJDbIBkCSpQTtlJxBgITsBKdG67AQasQ7YDzhocdx8cRwE7A/sBuwCbFz83+uBPej+yLoS2Ly4nUuBK4CLgIsXx4+A7wHnLv7fHw9QjxTyj0fpDbg0BxsAtcwGIN4G4A7AnZeMOwE3Hij+JuB04OvAfy/+368BVw0UvyW137+K4tsASHWzASh3I+C+wIOA+wOH0f0FPybXAqcCnwNOAT5NN3ugMrXfv2wACj8v1cwGYO12AO4GPJjupn8vYOfUjNZuK/Bl4CPAiYv/e2tqRnWq/f5lA1D4ealmNgDTOwz4beDJwK2Sc4n2U+AE4F3AydgMTKv2+5cNQOHnpZrZAKzs9sDjgccBt07OZSjnA+8B3g6cmZzL2NV+/7IBKPy8VDMbgBvaCfgt4LnAvZNzybRA96zAW4H3A9fkpjNKtd+/bAAKPy/VzAbgF/YAngr8IXBwbiqjcyHwRuD1+PDgUrXfv2wACj8v1cwGoPs+/8XAE+l+h6/JrgKOBV5Bt+ZA62q/f9kAFH5eqlnLDcC+dH/tP5/ut/ua3rXAe4E/B87JTSVV7fcvG4DCz0s1a7EBuCnwJ8D/wr/4S10DvBn4a7rVCVtT+/3LBqDw81LNWmoAdgFeBLyA4Vbla8VlwF8Br6ObHWhF7fcvG4DCz0s1a6UBeDDwBtr5KV+W79B9rXJCdiIDqf3+VRTftwFKGrP96Ba3+Rje/IdwW+A/gQ8BBybnop7ZAEgao3XAs4Bv0a3cp2E9ku4lRE+lnVmm5vgVgFS3efzHeX/gnXTT/sp3AvC7wE+yE+lB7fev9Ot/oXDUHl8q4fl7fQ8BfkT5fnHEjguBR61w3GqVff1lxy+WXUB2fKmE529nF+C1dC+xyb7ZObY/ti4eo9renLiS7OsvNb5fAYxgCkVN8/yFQ4H3AXfMTkRT+TzdWxUvyE4kQPb1lxrfhwAlZXog8AXybv6b6N6c99fU8QrdLcBfAO8GLk/K4V7AV4GjkuJrRJqeQpEKtXz+/k9gM8NPZW8BTqT7K3YjsBfdcrhD5zHr+C6wJ93yx4+m+8nedQl5bAaOucFRrUv29Zcdv1h2AdnxpRItnr87Aq9h+BvWj+n+ej5kSS7r6G6gQ+dSOv6d60//Hgj8KfCDhFxeSr1fRWVff9nxi2UXkB1fKtHa+bsb3V/fQ96gvgk8ne2/MOjFA+cSOV64nXp2Bp4CnDZwLu+le5CzNtnXX3b8YtkFZMeXSrR0/u4BfI7hbkrfoJsin/TX6VHkTJ1HjWuBe6+wvx9B9139UPl8HLjRCvmMUfb1lx2/WHYB2fGlEq2cv3sDX2aYG9GZwBNY+SHnPYFzB8qnz3EOsPsKda4Dfgs4faB8TqFr9GqRff1lxy+WXUB2fKlEC+fvTYFT6f/mcxnwR0z3O/V/GSCfocY7p6h3J+DZwMUD5PMV4CZT5DQG2ddfdvxi2QVkx5dKzPv5ux/9//W5FXgHcLMpc3piz/lkjMdOWfvewOvpfgnRZz5foY6ZgOzrLzt+sewCsuNLJeb5/N2b7gG8Pm8059CtJTCtQ+hmCvrMKWNcAhy0hv1wBHBGzzmdwvifCci+/rLjF8suIDu+VGJez99dgP+iv5vLtmVp13KDWQd8NDCHnwds46rAfD68hn0B3a8i/pZ+H4Q8ie3/+mIssq+/7PjFsgvIji+VmMfzdwfgePq7qVxI94T7Wj0tOI/fD9jGMcE5PWmG/XJP+l0I6TjGu+ps9vWXHb9YdgHZ8aUS83j+9rnIz0l0zxWs1f500+RRebyfbkYh4vi9OzCvi4F9Z9g/ewMfCMxj+fjbGXIaQvb1lx2/WHYB2fGlEvN2/v4x/dxAtgJ/R7eK4Cwib27n0P2MkIBtQbc40rcD8ztuxn20jm5hpL4eEHzGjHn1Kfv6y45fLLuA7PhSiXk6fx9OPzePK4HHF+T16MBcrgHutmTbUcfvcGKfB5jlK5JtHg5cGpjLtrEZuE9BXn3Ivv6y4xfLLiA7vlRiXs7fQ+jnN+Y/4fo33LXaCHwvMJ/nL9t+5PH7vcA8z6Zsad7b0c9CST8CDijIK1r29Zcdv1h2AdnxpRLzcP6uBz5L/M3iu8Chhbn9ZWA+H+KGywpHH79/Dsz3z9a2q25gP/pZSvjzTLdY0xCyr7/s+MWyC8iOL5WYh/P39cTfJL5Ct4JgiV8Crg7K50d0D8otF338dgfOC8r5KuAW0+6sCXYHPhmUz9LxqsK8omRff9nxi2UXkB1fKlH7+ft44m8OXwL2Csjtg4E5PWZCjD6O368F5v1vU+yn1exK96KfyGO8FXhYQG6lsq+/7PjFsgvIji+VqPn8PRj4GeU1LB1f4BdP2Jd4QGBOx68Qp6/j967A/O+7QpxpbSR2EaUFulmV0lmeUtnXX3b8YtkFZMeXStR8/n6E8vyXjtOIufnvQPcVQkROF7PyOwb6On57Az8OquGLTH4l8lpsBD4dlNO28cGAvEpkX3/Z8YtlF5AdXypR6/kbvare2XSL9UR4UmBeq62s1+fx+/XAOn5nlVjT2p34BwOfHJTbLLKvv+z4xbILyI4vlajx/I1eVe9HwK2CcttA3M/+/nOKeH0fv/cF1XI2cU/e70f3C42o438ReV8FZF9/2fGLZReQHV8qUeP5G7mq3s/p1qKP8vygvC5nurfr9X38bgb8NKim50wRb1q3J/ativ8SmNtaZF9/2fGLZReQHV8qUdv5+5jCfJePowNz20g3mxCR1x9PGXOI4/ecoJp+QNniQMv9GrFvEnxoYG7Tyr7+suMXyy4gO75UoqbzdwOxU7+vDM4v6q//s5n+FbZDHL+dgDOCaoucBYDYdz+cQbeo1JCyr7/s+MWyC8iOL5Wo6fx9QUC+28YXiV0Nbhe6v3AjcvvNNcQd6vhFrQ3wQ7qZkijr6NYaiDovnheY2zSyr7/s+MWyC8iOL5Wo5fzdi7i1/i+hfIW65Z4XlNsn1xh3yON3YlCNz15j3NXsRdyDl5cA+wTnt5Ls6y87frHsArLjSyVqOX9fGZDrtvEbwbmtB84PyGsLcJc1xh7y+B0GXBsQ8zzip9qPIO55gCGXCc6+/rLjF8suIDu+VKKG8/eWdE/rR/zjfmwP+T0lKLe3zhB76OP3jwExF4AnzBB7NS8Lyu1qpvsFRoTs6y87frHsArLjSyVqOH+jlqW9gJg1/pc7NSC3K+h+375WQx+/fYj5+d1XZ4i9ml2AbwbktkDX6Awh+/rLjl8su4Ds+FKJsZ+/Nwc2B+S5QLeyXbQHBeX20hnjZxy/vwiIuwDcf8b4K7k7MV8FXAMc0kN+y2Vff9nxi2UXkB1fKjH28/cfAnJcAP6jp/wi3kdwJbDvjPEzjt/exLyE6cMzxl/NGwNyWwBe01N+S2Vff9nxi2UXkB1fKjHm83dPYm40VxO31O9Sh9K9VrY0v5L1CLKO30sDYm8Fbl2QwyR70y3vW5rfpsVt9Sn7+suOXyy7gOz4Uokxn78vCshvgW7Kug+vCMjtaspeQpR1/G5Kd4Msjf/yghxWckxAbgvA/+4pv22yr7/s+MWyC8iOL5UY6/m7ge6hvdL8fgLs1lN+EX9lvrYwj8zjF9EAXcT0qx6uxY7EPBD4o57y2yb7+suOXyy7gOz4Uomxnr9Rr9Tta2W3Jwbk9nPKf26Wefz2A64KyKGPnwRCt6JixDkU9Srj7cm+/rLjF8suIDu+VGKs5+8nAnI7l/7+evuvgPzeFJBH9vF7bUAOnw7IY5LPBeR3Uo/5ZR+/1PjrSjcQkERpDtnxpRJjPH8Port579jDtqW1WqB74PPsnrZdour71w6FwSXNn6Px5q/xWAc8LTuJeeQMgDMAyjXG8/fbwG172K40q/PoXiAV/bVX9vXnDICk0TgCb/4an4PpVhlUIBsASUs9KTsBaYI+fw3QJL8C8CsA5Rrb+Xse3fr/0tj8gG4mIPJrgOzrz68AJI3C4Xjz13gdBNwlO4l5YgMgaZuHZycgrcJzNJANgKRt/MdVY+c5GshnAHwGQLnGcv7uDlwMrA/antSHLXSvbr4kaHvZ15/PAEhK9xC8+Wv8dgSOyk5iXtgASAK4T3YC0pTunZ3AvLABkARwt+wEpCnZAATxGQCfAVCuMZy/64HLgY0B25L6di2wJ92rkEtlX38+AyAp1R3w5q96rAfunJ3EPLABkHSP7ASkNTo8O4F5YAMgqfT7/0/RTUX2Nf6sML+v95hbqb7y+kZhXn/WY27rgC8W5nfHws8LGwBJ5X9NfTUki8nuUPj5L4VkUZfSmg8LyWKyrxR+3hmAADYAkm5V+PnSf8xXU/rXXulfmzUqbQBKm67VlJ4zfefXBBsAqW17AnsXbqPPBmADcGjhNmwA1u62wM4RiUxQes7sCewTkUjLbACktpX+9X81cE5EIhPcCtip4PPXAt8OyqUmZwDXFXx+PXBIUC7b8x26Y1PiFgF5NM0GQGpbaQPwXWBrRCITlN6Evkv5jaZGm4FzC7dxi/I0JroW+H7hNm4ZkUjLbACktpU2AGeFZDHZLQo//52IJCpVWvstIpJYwZmFn7cBKGQDILWt9C/ss0OymKw0v9KbTM3mvQE4MCSLhtkASG0rfZDqvJAsJjug8POl08w1Kz02+4VkMdn5hZ/3IcBCNgBS2/Ys/PxPQrKYrPQXCn3nN2altd8kJIvJxp7f3LMBkNq2R+HnLwzJYrLSf+RtAGY39gbAGYBCNgBS225c+Pm+G4DSGYC+8xuz0hts6b5fzdjzm3s2AFLb9ir8/OUhWUxW2qBcFpJFnUqPzW4hWUxWmt8uIVk0zAZAalvpVwDXhGQxWelqdH3nN2Y/L/z8hpAsJht7fnPPBkBq2/rCz5f+I76a0vxsAGbX51LA0K0iWcIGoJANgNS2LYWf77sBKP1H3gZgdn3fYG0AktkASG0rbQCkLAvZCdTOBkBqW8kLY6D/B7E2F36+72nsMSs9Nn3Pnmws/PxVIVk0zAZAatu8NwAtPyleWnvpvl9NaX42AIVsAKS2lTYAfX8PW3oTavl7YmcAtCIbAKltpTfY0qWEV3NF4ef7zm/MSn/iuSkki8l2L/x86UOEzbMBkNp2UeHn9w3JYrKfFn7+ZiFZ1Kn0ZT6l+341pfk5A1DIBkBqW+lSuTYA41V6bC4JyWKymxZ+/sqQLBpmAyC1rXQ99r5vsDYAsyv9C/vikCwmKz02PwzJomE7ZScwAv6WVC0rnQG4eUgWk/248PMHh2RRp9JjU7rvV3NQ4ed/EJJFw5wBkNpW2gDcOiSLyb5f+PnbhmRRp9sVfr5036/m0MLPnx+SRcNsAKS2lX4FcJuQLCY7t/DzLTcApTfYcyOSWEFp8+gMQCEbAKlt3yv8/C/R778jpX+F3oryFwrVaGfgFoXbOLc8jYl2oDs2Jc6LSKRlNgBS284o/PxGuiagL+dQtljResqnwmt0e8qe8dpMv18BHEr5Ik0XRCTSMhsAqW2XUP6w169GJDLBNcCZhdu4GZinwQAAE0RJREFUR0Qilbl74efPpN+lgO9a+PnLKV/Donk2AJK+Vfj50n/MV3N64edbbABKay7d56spbRpPw19wFbMBkFTaAPQ5AwDwjcLPt9gAlM4AfDMki8lKz5lTQ7Jo3LqAbZR2YaU52AWqZRHX8HOA1wVsRxrKU4F3Bmyn9vtXUXxnACSdlp2AtEaeswGcAZDqFnENbwAuo/z1sdIQNgM3JuYhxdrvX84ASCpyDfDl7CSkKX2dfn+h0AwbAEkAp2QnIE3pk9kJzAsbAElgA6B6fDw7gXnhMwBS3SKuYYA96F69u2PQ9qQ+bAb2Bq4M2l7t9y+fAZBU7HJ8slrjdwpxN//mlawVPRZRfwFJrfsg/a/qJ5Vw+j+QMwCStvm37ASkVdgABJqHZwAkxTkTuE12EtJ2nEf3iuPI576y718+AyBpND6YnYA0wXvwoe9QNgCSlvJrAI3Ve7ITmDd+BSBpqR2A84EDshORlvgWcPsetpt9//IrAEmjsRU4NjsJaRn/+u+BMwCSlrslcDb+gaDxOBQ4q4ftZt+/suMXWygcksbno5Rf22fS31oj/xWQ32sC8sj+9+9NATl8OiCPST4XkN8neswv+/hlxy9WfQGSbuB/UH5tLwDH9JTfEwNyu5ryZx0y//27OfDzgBweX5jHJI8JyG0B+I2e8iMgt9rjF6u+AEk3sB74IeXX9wXArj3ktwG4MCC/vy/MI/Pfv9cHxL+Ibl9G2xH4ZkB+59Lv+ymy71/Z8YtVX4Ck7fobyq/vBeBPesrv7wNy2wTsU5BD1r9/B9DNYJTG/7uCHFbyzIDcFoAX9JTfNtn3r+z4xaovQNJ27Uv34pXSa/wK4KAe8rsN3a8WSvP7m4Icsv79e1VA7C3ALxXkMMlNgIsD8tsE7NlDfktl37+y4xervgBJE0XcaBaA43rK74SA3C4H9poxfsa/fzcjpjH70IzxV/PmgNwWgDf0lN9S2fev7PjFqi9A0kQHEvOg2QLwkB7ye2BQbv9nxvgZ//69PCDuAnC/GeOv5B50Mwuluf0cOLiH/JbLvn9lxy9WfQGSVvRGYm443wd27yG/UwNyu5Ru6nqthv737wC6qfHSuF+ZIfZqdgHOCMhtgZifaE4j+/6VHb9YdgERJ5vDUesYwsHANUH5vqWH/J4UlNvrZog99PE7NiDmAvC4GWKvJuKhzAW6Bme/HvLbnuzrLzt+sewCIk44h6PWMZSIBWcW6B7ae3hwbuvp3l9Qmtu1rH29+SGP312JmV7/PvELNB0JXBeQ2wLw0uDcVpJ9/WXHL5ZdQMQJ53DUOoayN/DToJwvpHu2INJzg3I7aY1xhzx+EasfLgDPWmPc1exF93v9iNwuozvXhpJ9/WXHL5ZdQMRJ53DUOob0B4F5f4rYBV52oVt0KCK3h60h7lDH77eDajuf2IV/1tH9miDqvOhrzYhJsq+/7PjFsguIOvEcjhrHkNbTvZY1Kve/Dc7veUF5fZPpp8iHOH67AOcE1Rb91/8Lg/JaoHuAcOfg/FaTff1lxy+WXUDUyedw1DiG9qDCfJeOrcATAnOLnAV49pQxhzh+Lw6q6YfAxiljTuNhxH3vvxV4QGBu08q+/rLjF8suIOLkczhqHRk+vMYcVxpXAXcLzC1qFuCndAvurKbv43cw8LOgmiL/+r9DYF4LwLsCc1uL7OsvO36x7AKiTkCHo8aR4WC6h7WiargAuEVQbhuImy4/fop4fR+/jwTVchbdVzgRDgC+F5TXAl2ztW9QbmuVff1lxy+WXUDUSehw1DiyPHWFnGYZZxJ3E3h8YF6PWSVWn8fvqYF1/PYqsaa1F/D1wLwWgN8Lym0W2ddfdvxi2QVEnogOR20j038QW8tXiVkpcB3w5aCcfsTKP0vr6/jtD1wSVMMXFvdJqV2BzwTltG2cEJTbrLKvv+z4xbILiDwZHY7aRqabAj8htp7PEtME3Dcwp3euEKev4/f+wPzvv0Kcae1Kt0ZC5LH+CcOt+DdJ9vWXHb9YdgGRJ6TDUdvIFvX79KXj88AeAblFzlBMWr2wj+P32MC8PzDFflrNjYCTA3NaoHvq/6EBuZXKvv6y4xfLLiDypHQ4ahtj8Hbi6/oSsE9hXrcCrg7K5zy2PzMRffz2IW5W5UrgkKn31vbtAXw6KJ+l4xWFeUXJvv6y4xfLLiD6xHQ4ahpjsAH4IvG1nQ3cujC3vwjM57jtbD/y+K0D/j0w3z9d2666gf2JedPi8vFVhl/wZ5Ls6y87frHsAqJPToejpjEWNyf+eYAFuofw7lKQ10bifha4wA2fWI88fi8IzPMsypb8vT3dS4Oij+dFwC0L8oqWff1lxy+WXUD0Cepw1DTG5L7AZuJr3ETZz9h+PTCXq4DDl2w76vjdg9h992sz7y14JLHrPGwb1wD3KcirD9nXX3b8YtUXIClM1Fv5lo+twMuY/QVC7wvM5Ux+8TxAxL9/exI7S/F/Z9xH64AXEfPK4e2NY2bMq0/Z96/s+MWqL0BSqLfSzw1kAfgo0y3Ru9x+xL3OeAF49+J2S7ezju5J/ai8LqL7eeZa7QN8MDCP5ePvZshpCNn3r+z4xaovQFKoHekemOvrZnIh8IgZ8jo6OI9nBGwjesbk8TPsl/sDPwjOY+k4gdhXP0fKvn9lxy9WfQGSwm0gfuGYpWMr8Gq636ivxYmBOVwVsI2fB+bzoTXui43Ay+lvyn8B+BTdIkJjlX3/yo5frPoCJPViN7plaPu6uSwA3wUeuIacDgYu7TmnjPFT4MA17Iej6J5l6DOnz9KdA2OWff/Kjl+s+gIk9WZv4HT6vdFsBf6J6Z8NiHxZ0FjGtL+S2Ad4C90+6zOfLxGzmmPfsu9f2fGLVV+ApF7tT/9NwAJwOfBHTLfIzLsHyGeocewU9e4EPI+4FwytNL5G99bAGmTfv7LjF6u+AEm925v+vw7YNs4EngDssEI+exD7Tvus8V1WfnnSOrrZgTMGyudUypdwHlL2/Ss7frHqC5A0iN3o98HA5eMbwG8xuRE4Erh2wHyix7XAERNqW0e3ANJpA+bzcWLe5Dik7PtXdvxi1RcgaTA7A//KsDfKs+imvzduJ58XDZxL5PijCfv3KXTNz5C5HA/ssp18xi77/pUdv1j1BUga1I50D6INfcP8MfCXXP8NeeuIfW3wUOPfF3Pf5ubA/wF+mJDL3y/LpSbZ96/s+MWqL0BSit+nn3cHrDa2AB8BHks3K7AX3XfpQ+cx6zibbvngXYDH0C200+dv+SeN6+hmVmqWff/Kjl+s+gIkpTmK7i/zrJvpFcB7gL8i5yY6y033z+l+xfCzxDwuBB50w8NZnez7V3b8YtUXICnVgcDnyb+5OqYbX+L6X6PULPv+lR2/WPUFSEq3AXgb+Tc3x+SxFXglsH7CMaxR9v0rO36x6guQNBqPoZtezr7ZOa4/LgV+c4XjVqvs+1dq/IgnN0uTKM0h4iBI2r6Mp7v3Bd7EfN5wanQC8Ey6NwbOm9rvX0XxV1opS5IyXEi3gM9j6ZauVY5L6W78j2A+b/7NswGQNFbHA3dm7a+5VbnjgNvRrdegOWUDIGnMzqdb0vahwLeSc2nBWcBvAI+jm4nRHLMBkFSDjwGH001JX5ycyzy6BPgT4I7AB5Nz0UB8CFDSSsa4xOs+dEv6PoP5+klahp8DrwFeSvc65dbUfv8qim8DIGklY2wAtjkEeCHwu9T5IppMm4F/oVtV8LzcVFLVfv+yASj8vKTJxtwAbLMv8CzgD6jvdbRDuwL4J+AVdM9XtK72+5cNQOHnJU1WQwOwzT7Ac+m+Gtg/OZex+SHdVP+baXOqf5La7182AIWflzRZTQ3ANjsBjwKOofv1QKsPO28FPgkcC/wr3bS/rq/2+5cNQOHnJU1WYwOw1CHA04GnAQcl5zKUbwPvontjoNP8K6v9/mUDUPh5SZPV3gBsswNwd7rlhR8NHJqbTrhzgQ/T3fS/mJtKVWq/f9kAFH5e0mTz0gAsd3u6RuDRwK8AO+ams2abgc8AJy6OM3LTqVbt9y8bgMLPS5psXhuApW4MHAEcCRwF3A3YmJrRDV0JfA34Mt2N/xN0T/SrTO33LxuAws9LmqyFBmC5nYFfBe5EN1NwO+CXgQMHin8hcA5wGt0N/8t0f+FvGSh+S2q/f9kAFH5e0mQtNgCT7EHXDNwauCnd+gP7Lf7vbWMdsOeyz+1Ct+LezxbH5Uv+90V039+fs2Rs6rcMLVH7/av5BkCSpFlk379S47f6+1hJkppmAyBJUoNsACRJapANgCRJDbIBkCSpQTYAkiQ1yAZAkqQG2QBIktQgGwBJkhpkAyBJUoNsACRJapANgCRJDbIBkCSpQTYAkiQ1yAZAkqQG7ZSdQIDS9ymrTPb7sKVMnv+5Svd/05wBkCSpQTYAkiQ1yAZAkqQG2QBIktQgGwBJkhpkAyBJUoNsACRJapANgCRJDbIBkCSpQTYAkiQ1yAZAkqQG2QBIktQgGwBJkhpkAyBJUoNsACRJatBO2QkE8H3QdfP4qWWe/0rjDIAkSQ2yAZAkqUE2AJIkNcgGQJKkBtkASJLUIBsASZIaZAMgSVKDbAAkSWqQDYAkSQ2yAZAkqUE2AJIkNcgGQJKkBtkASJLUIBsASZIaZAMgSVKDdspOIMBCdgKNK32fee3HL7v+7PirGXt+pea9vr6V7j8VcAZAkqQG2QBIktQgGwBJkhpkAyBJUoNsACRJapANgCRJDbIBkCSpQTYAkiQ1yAZAkqQG2QBIktQgGwBJkhpkAyBJUoNsACRJapANgCRJDbIBkCSpQRHvYs5+n7kkSbPIvn+lxncGQJKkBtkASJLUIBsASZIaZAMgSVKDbAAkSWqQDYAkSQ2yAZAkqUE2AJIkNcgGQJKkBtkASJLUIBsASZIaZAMgSVKDbAAkSWqQDYAkSQ2yAZAkqUE7ZScQoPR9yiqT/T5sKZPnf67S/d80ZwAkSWqQDYAkSQ2yAZAkqUE2AJIkNcgGQJKkBtkASJLUIBsASZIaZAMgSVKDbAAkSWqQDYAkSQ2yAZAkqUE2AJIkNcgGQJKkBtkASJLUIBsASZIatFPANjYDOxd8fufFbczK90HXzeOnlnn+t+tGhZ+/pjSBiBmATYWf3y0gB0mSarJv4ed/VppARANQmsReATlIklSTfQo/f0VpAhENQGkStw7IQZKkmtys8POjmAH4ceHnbxuQgyRJNblr4edL770hDcCZhZ+/Z0AOkiTV5KjCz3+nNIGIBqA0iQfgk7CSpHasp/yP31E0AN8u/PzNgF8NyEOSpBrcF9i1cBvFDUCEfYAtwELBeO3gWUuSWldy31ooiHt8YdwtwN4F8UOdRlkxF1O+KIIkSWuR0QAcQLf4XUncr8wY+3qilgI+ufDzNwGOiUhEkqQReybdMwAlSu+5oR5JeSf1A5wFkCQNZ+gZgIPo1s4pjfuwGWL3ZhfgUsqLetnQiUuSmjV0A3BcQMxLgA0zxO7VWygvbDNwl6ETlyQ1acgG4EEB8RaAN85SaN/uQ0xxZwG7D5y7JKk9QzUABwAXBMRbAO41Y629Wke3KmBEgR8Adhw2fUlSY4ZoAG4EnBoQa4Fu3Z3RLpx3DDFFLgBvHjh3SVJb+m4Adgb+IyDOtvG7ZeX2az3wfeKK/Sdgp0ErkCS1os8GYDfgxIAY28b36RqKUXsucQUvAP8G3HjQCiRJLeirATiA8gXylo9nhVTcs13oHuSLLPxM/HWAJClWHw3A44CfBGx76fg2I/zp3yQPIbb4BeBa4DU4GyBJihHZAOwPvD9gm9sbo1r4Zxrvo58d8UPgD3DVQElSmYgG4FC63+ZfGbC97Y339lN6vw6ie8lPHztkYXHbrwPuwYh/FiFJGq3S+9AHKX8b7krjIrrnCXrR943zkXQ7qO84FwKfBL5A913J9+h23Ca61QUlSVpuYfX/JM0C8Ai6XxL0Yoi/nF8BvGCAOJIkzYuXAS/uM8AQDcB64CTgvgPEkiSpdicDDwWu6zPIUN+d7w58Cn/KJ0nSSr4BHAVc1negIR+e2xc4BbjNgDElSarFOcC9gR8PEWyHIYIsuhB4ON0DepIk6RfOAR7MQDd/GLYBAPgucATdEomSJAlOp5v2P2fIoEM3ANB1N/cDPp0QW5KkMTmZbtr/gqED7zh0wEXXAO+m+53jUbiQjySpLQt0i9k9Bbg6I4Ex3HgfCRwL3CQ5D0mShnAxcDRwQmYSGV8BLPdh4E507w6QJGmeHUd3z0u9+cM4ZgCWuj/wj8AvZyciSVKgs4HfBz6Sncg2Y5gBWOqTdIsFPQc4LzkXSZJKfR94NnAYI7r5w/hmAJbaGXgy8EK61y1KklSL7wAvB/4ZuDY5l+0acwOw1F3pnpR8ArBPci6SJG3PZcCHgHcBn2DcbxuspgHYZgPwgCXjzozvawxJUhu2AqfS/Zb/ZLqvsa9JzWgNamsAltub7pmBQ4HbAbele+fAHovjxnRfJUiStFabgSuAyxfHhcC36ab3z6S7+V+Slp0kSZIkSZIkSZIkSZIkSZIkSZIkSZIkSZIkSZIkSZIkSZIkSZIkSZIkSZIkSZIkSQr3/wAUGz8F9U7a2QAAAABJRU5ErkJggg==;" parent="fgCzt5P4TZWiUm7buIOH-67" vertex="1">
          <mxGeometry x="9" y="9" width="25" height="25" as="geometry" />
        </mxCell>
        <mxCell id="fgCzt5P4TZWiUm7buIOH-70" value="" style="shape=image;verticalLabelPosition=bottom;labelBackgroundColor=default;verticalAlign=top;aspect=fixed;imageAspect=0;image=https://cdn-icons-png.flaticon.com/128/2386/2386473.png;" parent="fgCzt5P4TZWiUm7buIOH-67" vertex="1">
          <mxGeometry x="8.659999999999968" y="39.65999999999997" width="24.34" height="24.34" as="geometry" />
        </mxCell>
        <mxCell id="fgCzt5P4TZWiUm7buIOH-71" value="" style="shape=singleArrow;direction=north;whiteSpace=wrap;html=1;arrowWidth=0.5;arrowSize=0.25;fillColor=#d5e8d4;strokeColor=#82b366;strokeWidth=2;" parent="fgCzt5P4TZWiUm7buIOH-67" vertex="1">
          <mxGeometry x="41" y="41" width="10" height="20" as="geometry" />
        </mxCell>
        <mxCell id="fgCzt5P4TZWiUm7buIOH-72" value="" style="shape=singleArrow;direction=north;whiteSpace=wrap;html=1;arrowWidth=0.5;arrowSize=0.25;fillColor=#f8cecc;strokeColor=#b85450;rotation=-180;strokeWidth=2;" parent="fgCzt5P4TZWiUm7buIOH-67" vertex="1">
          <mxGeometry x="52.23000000000002" y="42" width="10" height="20" as="geometry" />
        </mxCell>
        <mxCell id="fgCzt5P4TZWiUm7buIOH-73" value="" style="shape=image;verticalLabelPosition=bottom;labelBackgroundColor=default;verticalAlign=top;aspect=fixed;imageAspect=0;image=data:image/png,iVBORw0KGgoAAAANSUhEUgAAADoAAAA5CAYAAABnLziGAAABW2lDQ1BJQ0MgUHJvZmlsZQAAKJF1kDtLA1EQhU8eEjUpLLQQFIJgoawSYhrTxYgxsMgSDT5QcHPzEpL1ullRwR9hpX8giJVtUqazESwEBREstRSENBquc7PqJooDw3wczgwzA7h7dc5LXgBlwzJTibng2vpG0PcCP/owhGGM6qzCY5qmkgXftTuad3DJejslZ13e5C/OlhqzY8+T1cPNJ89ff1f0Z3MVRvWDMsS4aQEuhVg7sLjkY+JBk5YiPpFcsLkqOWNzve1ZScWJr4kHWFHPEj8SK5kOvdDB5dI++9pBbh/IGellOYdyBCoSCGIBaSKVaBHz//gjbX8cu+A4gokdFFCERT0xUjhKyBEnYYBhGgpxGCHKiPzz7/852h7dFU0C7rKjbWtA/VWe52jj9KvAFdDY4rqp/3zV1fRW8jNhm/01oOdUiLdVwDcBtO6FeK8J0ToHPA/U2/wEtRJi8ihLqmkAAABWZVhJZk1NACoAAAAIAAGHaQAEAAAAAQAAABoAAAAAAAOShgAHAAAAEgAAAESgAgAEAAAAAQAAADqgAwAEAAAAAQAAADkAAAAAQVNDSUkAAABTY3JlZW5zaG90v9r1yQAAAdRpVFh0WE1MOmNvbS5hZG9iZS54bXAAAAAAADx4OnhtcG1ldGEgeG1sbnM6eD0iYWRvYmU6bnM6bWV0YS8iIHg6eG1wdGs9IlhNUCBDb3JlIDYuMC4wIj4KICAgPHJkZjpSREYgeG1sbnM6cmRmPSJodHRwOi8vd3d3LnczLm9yZy8xOTk5LzAyLzIyLXJkZi1zeW50YXgtbnMjIj4KICAgICAgPHJkZjpEZXNjcmlwdGlvbiByZGY6YWJvdXQ9IiIKICAgICAgICAgICAgeG1sbnM6ZXhpZj0iaHR0cDovL25zLmFkb2JlLmNvbS9leGlmLzEuMC8iPgogICAgICAgICA8ZXhpZjpQaXhlbFlEaW1lbnNpb24+NTc8L2V4aWY6UGl4ZWxZRGltZW5zaW9uPgogICAgICAgICA8ZXhpZjpQaXhlbFhEaW1lbnNpb24+NTg8L2V4aWY6UGl4ZWxYRGltZW5zaW9uPgogICAgICAgICA8ZXhpZjpVc2VyQ29tbWVudD5TY3JlZW5zaG90PC9leGlmOlVzZXJDb21tZW50PgogICAgICA8L3JkZjpEZXNjcmlwdGlvbj4KICAgPC9yZGY6UkRGPgo8L3g6eG1wbWV0YT4KuLnPzQAAA+dJREFUaAXtWk1ME0EUfktrMFGoP6FYwXgxVBM9WGOip5azXtR4MJFEI6jRmwlXm148epIIWL2SiCaGaOJFU06SqL34F4rxYgWBeAGRQqDrvMVZZrcz+1N2ya67L9nMvPdm3rxv3pufbleSCUEAqCEAGBWIIdD/LdJhRL0aUTk/CNUTxwGK7225aCmi+TfPoVgu2TLstcZRvUMI6CEBxpIiGwNItXewYug7f0vDswzOPBSLrAjkf1GQUsfW5akUSN1X13mXajVAcRxR9ERykW8UmF7PyiW90iWeCxTHSjTvNhxyau6XoZ4qpVOnibEEZTWl/EKbORqlw4wQKKapCCxG1ipQh/2t25ylzahu6x7q6DughfESjM7N255CYeratiTqMDUp0liSFwoFpV0ulwNaf30oaakv28h1oLJyxGiPGdYBSOzVsBQMC4w2yCQ7IN3UBLDwe+2o0l0ajI4p14FSJ41KBIfAkChQrGcyGYBSCW7HmiDdTABSInU5/4BySqk5mzWaNcY1oDi77OB4dqJzUncPjJJfwLkBcqEgVLg/AIAPIQSGTzabVUqUyTeuqxcN5Osl14AqDpEbEI1Qrn8Q5AmykfRcU31lgaEQ+RrCmxN5VCJLASdNmURGzk6q2papOAZUBcRJQWY8wHWW7V+PIKvj1fXrbu1qSYCSzAD2KsnrzMhsAx0vfoAfs2Uoj72DzpFOxRQFydhVo4NpiJQh66pK0hAdlHiRYzsb1JUlUcfd2BJQBDfyaAiwZKlMGEw3fNLptFKiHnkeNYy95Yk3RWYJaDJ1BIAAxTJ59DBI7TthYvY7fOob2RQnnRjEElAcqPfeHXU8vOtOl1dV3g+VBj846YSPIVAnZtFLNsKIeikaTvgSmIgKjxejVyVGOidm3w0bQqB23/i54ZyTNiXe34Z6kDeH7yrvdK+cJG/0GNK/52VUnqtyIyoCIJJ7DhXHocBsRiFQTvR9LQpMRLm7rj50dBf282ZkCageuB/5wKRuCNSP6WnkcxhRo9nxo67mrotfBn4e/2aKJRKNwMED+03beaVBDVB0rLK0DM+eDgl9jEaicKHrslDvRQUXKDq6VFkU+hvdxvyFJ2zlLYUQ6EbdJCvAMhl9grO4vArz8wumtmLN26Fxi3hvdQ3oykoVPn75aupge1sCWnYZZ8iT4cdQqfwR2tqTaINzZ88I9ahwDSgan5osQ+HVS6xyKdG2Dy52XeLq9MKfxJaIEKgZiWNt1tNn+sAAFaZuSyv/sza7gfSKHe7PtOnpGUt4WlvjwnZ48ZiZMbfTuLURdsRiG7YTj8dBMti+uUCFo/pYEZg1GhigfwHwMCZAke0M+gAAAABJRU5ErkJggg==;imageBorder=default;strokeWidth=2;" parent="fgCzt5P4TZWiUm7buIOH-67" vertex="1">
          <mxGeometry x="41" y="11.5" width="20.35" height="20" as="geometry" />
        </mxCell>
        <mxCell id="fgCzt5P4TZWiUm7buIOH-74" value="Historical Multi-Modal Data" style="text;html=1;strokeColor=none;fillColor=none;align=center;verticalAlign=middle;whiteSpace=wrap;rounded=0;" parent="1" vertex="1">
          <mxGeometry x="328" y="855" width="90" height="22" as="geometry" />
        </mxCell>
        <mxCell id="fgCzt5P4TZWiUm7buIOH-75" value="Data&lt;br&gt;Fetcher" style="text;html=1;strokeColor=none;fillColor=none;align=center;verticalAlign=middle;whiteSpace=wrap;rounded=0;" parent="1" vertex="1">
          <mxGeometry x="259.39" y="825" width="45" height="25" as="geometry" />
        </mxCell>
        <mxCell id="fgCzt5P4TZWiUm7buIOH-76" value="&lt;b&gt;Data Team&lt;/b&gt;" style="text;html=1;strokeColor=none;fillColor=default;align=center;verticalAlign=middle;whiteSpace=wrap;rounded=0;labelBackgroundColor=#FFFFFF;" parent="1" vertex="1">
          <mxGeometry x="251.5" y="910" width="65" height="10" as="geometry" />
        </mxCell>
        <mxCell id="fgCzt5P4TZWiUm7buIOH-77" value="" style="rounded=1;whiteSpace=wrap;html=1;dashed=1;" parent="1" vertex="1">
          <mxGeometry x="433.25" y="724" width="270" height="190" as="geometry" />
        </mxCell>
        <mxCell id="KsrdHVBfr6KVUB-R_dGB-5" style="edgeStyle=orthogonalEdgeStyle;rounded=0;orthogonalLoop=1;jettySize=auto;html=1;exitX=1;exitY=0.5;exitDx=0;exitDy=0;endArrow=classicThin;endFill=1;" parent="1" source="fgCzt5P4TZWiUm7buIOH-92" target="fgCzt5P4TZWiUm7buIOH-103" edge="1">
          <mxGeometry relative="1" as="geometry" />
        </mxCell>
        <mxCell id="fgCzt5P4TZWiUm7buIOH-92" value="" style="shape=image;verticalLabelPosition=bottom;labelBackgroundColor=default;verticalAlign=top;aspect=fixed;imageAspect=0;image=https://cdn-icons-png.flaticon.com/128/9261/9261044.png;" parent="1" vertex="1">
          <mxGeometry x="640" y="746" width="25" height="25" as="geometry" />
        </mxCell>
        <mxCell id="fgCzt5P4TZWiUm7buIOH-96" value="" style="shape=image;verticalLabelPosition=bottom;labelBackgroundColor=default;verticalAlign=top;aspect=fixed;imageAspect=0;image=data:image/png,iVBORw0KGgoAAAANSUhEUgAAAPoAAAD6CAYAAACI7Fo9AAAACXBIWXMAAA7EAAAOxAGVKw4bAAAJcElEQVR4nO3dX4ilZR0H8DMRMaBsf6BIL4ZZhCCywAiEGFhdcqLsQgIhdkmlhiAQL4Ju1nWQWaMLb0S6CY6hhUsghIRZzcWqMARCFJgmROLhEK5sN7VssCQ0XXrx/Kpn9n3nnMnv53P54z3nfecMXx748rzvu7I/2Z8A723vW/YFAIdP0CGAoEMAQYcAgg4BBB0CCDoEEHQIIOgQQNAhgKBDAEGHAIIOAQQdAgg6BBB0CCDoEEDQIYCgQ4D3L/sC+N9Wrv/M/92D/favvLKy7GvgXVZ0CCDoEEDQIYCgQ4AVL3BYniEl241bW9d83rfm8/b71tau/fum02v+rNJuMazoEEDQIYCgQwBBhwB2xi1IWbxtbrYH7u42o6p4WxtQnlUGfV9xfWVBV/y9K7vt76KgG58VHQIIOgQQdAgg6BDAzrhD0F28Faodar1FWXXcvNgFV82qz/Z+X6U6rtqRVyoKSQXdMFZ0CCDoEEDQIYCgQwA74wYaUrwN0VuULeu4QeygG50VHQIIOgQQdAgg6BBAGbcg1Y63aqdY7y643qJsiCHFW/XZ3mfVde+go5sVHQIIOgQQdAgg6BBAGXcAy9oFVxm7eBty3tF3xlXslhvEig4BBB0CCDoEEHQIoIw7Yv74nW/3HTfyeX/12MhfWPnq6QWchIoVHQIIOgQQdAgg6BBAGbcgVx77fjM7Vhy3842dZrasXXBDVLvltn+03cyuVB9W2o3Oig4BBB0CCDoEEHQI4G2qB9B7m+qxnz3dHvaJ9riNjY2u8/a+EXVZet/EWtnb22tmu39q36Z6uSrovHW1mxUdAgg6BBB0CCDoEEAZdwBVGXfsyl+b46rirfdZa1UR9V4x9u9y+fqPNjNlXM2KDgEEHQIIOgQQdAigjDuAD05uaH6sqmCq9JZsJ6+7o5k9+4+fNLP14rNb993ezKqy656dp5rZA598sJk9/vr3us5bmRWzY5OPd312yG/698lFZVzBig4BBB0CCDoEEHQI4JlxA/WWbJcnb3cdVxVvjxQlW2X65AvNrCroKr23vfZ+X+VscX2V9/LuwGWxokMAQYcAgg4BBB0C2Bl3ACuTlebH+uzkRHPc7yYvNbOqUKvKqfVrvLbJZPyirLrmqvDrNStmvb/LXdd9vZlVxeX+ZN/OuIIVHQIIOgQQdAgg6BDAzrgDWC9mVfE2xGzAZ4fsjOst3mYHvqp3rQ/4bO+tutSs6BBA0CGAoEMAQYcAyrgF6d1R9uKLLzazR+//WjN77g8Xm9nKyribwmbFbH+/3Un5lU/f0My++4OfNrPbbrutmQ3ZaUc/KzoEEHQIIOgQQNAhgDJuoN7bLGed33fiRHvb66PFcb3FW+/bSqvjKtV577y5fTFD9XdUZl1HjX/LbBorOgQQdAgg6BBA0CGAMu4A3iyeR3b8yfY5cuvFZzdP3tTMdi+80cxeemK761qqAuy1V/teEtFbvK0Xs08V561Uf0f1fb2/S1W8Vf8PalZ0CCDoEEDQIYCgQwAvcBioeqnDenFcVTpVpVjvrPftp9s7T3UdV9nZvrfruN7r651VZdysOK+XNfSzokMAQYcAgg4BBB0C2Bl3CD5SvGF190L7oofNk+Oetyre3iye8dbreHFLalXQ7e3tdX1fb/FW/X6zkV+UkcaKDgEEHQIIOgQQdAhgZ9whqHbLVdY7v696I2pvsTW23h1+vc9zm3We1y64YazoEEDQIYCgQwBBhwDKuENQlXFVmTR2aTfkVtght5BWZl1H9f8uyrhhrOgQQNAhgKBDAEGHAMq4JeotnU4/1Ffa/ebcGFf1333+ob7jnj6nZDtKrOgQQNAhgKBDAEGHAJ4Zt0S9xdsr9z/TfPbV6bSZPXLfP8e6tP/o7OoHmtnNW1vN7HRVvBUFHYthRYcAgg4BBB0CCDoEUMYtUbVT7FRx3ONXH25ma2faW023t9vntJ0vdss9UjyD7mzxjLdTxS64P5/5UjObz9vra6tCO+OWyYoOAQQdAgg6BBB0CKCMO2LOr36xmW1N/jLqOc4+eXHU76tUf8dk8utDPy81KzoEEHQIIOgQQNAhgDJuQXpf1lB5YPXhdnipHa3tFMetbjejWy9+s5m9fMMTzexvZ3baaymub77avuih3hvXsltuMazoEEDQIYCgQwBBhwDKuCNm7YevN7NXi2Krek5br5f39trh3X2fnV9qi7fq+XWTB+2CO0qs6BBA0CGAoEMAQYcAyrhD0LsLbm2tfe7bfN6WXaeutrOtq+2tq2uT9vs+dLUtxd7YaHfG3XT18Wa2U6wD8+Japldfa2bnm0n/32u33Pis6BBA0CGAoEMAQYcAgg4BBB0CCDoEEHQIIOgQwM64Jap2hVWqlyE8d2mzPbB4jtzl1X81s1t7z/HbL/Rc3uTy6m4xbXfk9f69jM+KDgEEHQIIOgQQdAigjFuQ6hbNSm9hVX3f2sfa2fO7VVHWZ+NzG82sfGZc5/eN/RvQz4oOAQQdAgg6BBB0CKCMOwTrxWw2oGA6VTz3bcgz416Y39Ge48PtcWM/M663ZFvvOoqDsKJDAEGHAIIOAQQdAijjFuRbJ29qZhsb7c6ze3ae6vq+6bQtwCaTanbttrd/Oer3/Xj73ma2V7zZdffCG6OeFys6RBB0CCDoEEDQIYAy7hC8Wbz58/iF9g2hvbdtnj/Xzobd8jltz/Hzsc/Rd1xVvFW/H8NY0SGAoEMAQYcAgg4BVvYnTUfEghyftAXdbAHn/fLd7ez5Zw7/vOvFTPG2GFZ0CCDoEEDQIYCgQwBl3BGzUhR0lSG71vaLAqw679g746rzshhWdAgg6BBA0CGAoEMAZdwR01vGDdFbxi3ivCyGFR0CCDoEEHQIIOgQwDPjjpiqsLrz7rYo29q6sfnsfP5WM9vdLU5S3JJa3bq6udnO1tba806n7Xl/8Yzi7SixokMAQYcAgg4BBB0C2Bl3xFTF29iqomxZ52UxrOgQQNAhgKBDAEGHAHbGLdEtd51sd7zd+3Rz3JBnt02n7ZtTK2+9c3sz29raGvVabnmn/Xt//+wFBd0CWNEhgKBDAEGHAIIOAZRxh6Aq2SpDyq6jrvo7qr/3lknfb6W0G8aKDgEEHQIIOgQQdAjgNtUF6S3oFqEqto769TGMFR0CCDoEEHQIIOgQQBkHAazoEEDQIYCgQwBBhwCCDgEEHQIIOgQQdAgg6BBA0CGAoEMAQYcAgg4BBB0C/BtEIIn6Whu53wAAAABJRU5ErkJggg==;clipPath=inset(7.2% 27.6% 6.8% 29.2%);" parent="1" vertex="1">
          <mxGeometry x="497.48999999999995" y="817" width="30.14" height="60" as="geometry" />
        </mxCell>
        <mxCell id="fgCzt5P4TZWiUm7buIOH-128" style="edgeStyle=orthogonalEdgeStyle;rounded=1;orthogonalLoop=1;jettySize=auto;html=1;entryX=0;entryY=0.75;entryDx=0;entryDy=0;curved=0;endArrow=classicThin;endFill=1;" parent="1" source="fgCzt5P4TZWiUm7buIOH-97" target="fgCzt5P4TZWiUm7buIOH-117" edge="1">
          <mxGeometry relative="1" as="geometry" />
        </mxCell>
        <mxCell id="fgCzt5P4TZWiUm7buIOH-97" value="" style="shape=image;verticalLabelPosition=bottom;labelBackgroundColor=default;verticalAlign=top;aspect=fixed;imageAspect=0;image=data:image/png,iVBORw0KGgoAAAANSUhEUgAAAMwAAADACAMAAAB/Pny7AAAAnFBMVEX///+gw/9ChfQ1asN2p/qcwP5AgOo4cM0+g/QzaML7/f95qv06gfT3+v/a5/+xzf/i7P/t8//o8P+Xvf8oY8Ese/McXr+ryv++1f/N3v/G2f1KifRWkPU/cslIetGlxv9km/h2ldKnuuEAVbzCzuocdfJRe8mvwOOLsPje5fSDntZghs1sjdBome2Sq93N1+0AbfIASLhcjeGcst5MXfX9AAAH9ElEQVR4nO2d2XbbOAyGo20qylotxba8N24TTxJn2vT9321I74sWbgAVn/6Xvam/Q+IHCJDKwwOgAs+3t/rnm8NEio8A8v+DVOo+XsI4zuD7v6Z/lZzK5aNtX8E4g7f/TP8uCQWjyZHlDMYZzF6+3FbLvDC0q2CcovjITP86McXr07JcwThk9bUCZ7y8YLmEYYHzw/Qv5FcyCe0mGKeYPX2RwIly+4rlBsYh5CMy/Tt51F8esksDjEMGb18gcOLJ4zVKFQzdak7XM06U/LzeYnUw1NVeOr3VsvxnBUoNjOOsupxxUreapQ7GWb13NXCC8bQiXBphnOL5Ryc9OhpeZxcOGIfMnjoYOP21fePIHDA047z2Tf/2a6Ubv56lCYbSdC3jjCcNKM0w9Pw561SptrhN+vwwrBx4Mk1w0rLGkXlhqEe/mWbYq19VwAjC0ANoF/JnMPZrHVkAxinID+MenS3C5nDhhaHH6T+GadJ12L4ufDDU1V6NenS5aQ0XfhhK827wVJDUFmNSMKxUezHFsr45HqvC0BPbhxGUYMkVLmIwrLgxUEbHEx4bE4ZhxQ26DSQCKEIwDAc3cKK8pRhTgaGlGmYfKl2LsQjCoE4+yiWnI0vDoDVwg6S9sFSGQZp8ZDm/IyvA0MITvg+VusLLIgdDbQA6cEZL8WWRhAEPnIZuEgAMm3yAoURroUypDsNOBUAZJxV2ZGUYsMlHaUuzyMPQwAGYfETJo1y4qMI4hfbJR92sAgHGIZonH7H7UzL0NcBonnzUzypwYNjkQxNKtJDMLvpgWMbREjiNswosGE2Tj3TZNKtAg9Ey+SgnGlh0wFAaRzFwFkqOrBWGefQfBZRgo4dFE4zS5CNVdWTtMM7gWS5worGyI+uHkZx8ZJa6IwPAUJo/wsUN56wCH0Zi8lFuNKLohaE0Yjdwk6lWFr0wdKvNBRq4a44xpUkYGjivnCjBUvaojwZDj9PPXD3ClHuEZBCGjaU4bEDpeIwI4xSDtsCJcggWEBj25qMxf6Y9XQUMAkzL5OP6onjXYZoauEPN2QUexhnUNHAj7dkFAYZNPioCJ3XBUCBhaMa57UONwbYYMExFH0p2VtEFGJo/zwMnEp0edwuGbrXT5ENhVtENGNYc2AdOKT497hwM9Wh2xlGbVXQGhpVq0UPyCxwFBcYhv18eYqlZePdgdvmmL3ipp5swZP/6MxoCHMfO5Ps+OAxNNXtzvni5qxXCD8PQnlB9m81mTlEQQkBYBrOzZzixtkbskSQM/cl0uXQvtPmcz2ltqJto8HzRe4p05k26IPZ06fZ67q169F8/56TQyEMGb9eFs/TtixsUezKtBrkAmtH10UJEioq201DDcYaCtJEcgSiPo2HDFaTyeFZOlReHRgkPyRFnPlPFKZ5rWrX0fKZC44ug7Hk2ajikqG9pZPx3yNVW5RyHRo/0sjTeFmx6nti8Ksy+pNRzN3NJJ2i7HBDJHZ/DiSTKAUdmr7U/WA0kTmq+r4Cyw/kUp+Eab0Z1D5RrWWw1lJ1mhRjL6p1vtpn/EjG1cKqDxe19ilQF5Df305QR/+HTt5fCFlZHI8DSOgE4U8xtaiqRf02z4TRp0VcpfZfvyszE1bQuO5o5Dw0h74IXnDKei1n+VCcLJw0hr8IXAaKbj8fcSjMLF43cNbqgLX/qXpctjdtCI/1ph7jxAbavx5LFaFbyN+iyXv2l2XACwcJoGjxt9V3hUnBUe3nOB2JpoiErtdfPwbg6f/r2BgrGdTc14bJS/hJKWmkDqqVlo3qbiqUhheS9uUuaqvkgSPCf9HlDQwo9t85v8yeMkZ10a2kymbJawfX5c6KruKyluSrTdF0432p02fGEZrkuoQfangJsFZ+dP6E32U5nG22l+5sH6fqQcUBd+aje0Z/JSv/XKKLjh3Km4JtsS7N3NDKA+DJVMNr3bzFQmHahT4C+GVYyG/Dho3+n7dIM5mCfCMnY/BOJhdKwTAn4vjlYh1gLwzygeIV9ee7lHppy6C+dpJ6FJi8FhhliwgxhWfp4KEywXwsc4cKMIFmiIS7MEPKTLTEui2XFgDAjxPBn8gD3WZbgslhWAlcBxAtsmAXcPiuxWSyrhGIJsEOGBQ1UdZYl+DBgQZOihwwNGqj6LEZfGLo0UA5QmoABcoAIP/6ZA8BUNJkZGBgHMGBmcHbWN2Bm1M5gzjQmnBnMm1MTLJYFA2MizYAlmvuCyU3A5H9h2mHuapv9hekoDGab+Qzmb9Jsh7mncqaPOQE4yBvCFJp3dQS4q5NmMDYBMwZqnN1TQwN/oMEE1WoyYGdQZmbEAaDinwrfAbwxFMt9zWcy7KDxhnCTM/QBDdx45sHA6AxscPbA/hAYLssC9C9QII+bE0gW7CIA8k4DtQDUfbYAZcHNm4AZc6cAsROYg/85nREaTQ56QWurCA8G4U9qjZFocuiIYcpwWCwL5U+flihLk0NWMidFGLWzB3qj8UwYTWfwO80HBfAekEN1mG4F3tuEu5lVIfCBANYm2wr4lIbjZAeBdp0A+0vVAuxtQHYxatRfANF4QFd/mmmA/Dk3wEItDYQmRzWykyCubABdyDBCY46FVWlaXcBDq8iqabR2a8BuZHOqr69M8xIjPnaubKRpq0Fd+hVSVFoaaDyrRK5hapQmyq6WJ4bD5aSsVNtqnld2YIsdFCgtDl0WtHMll6LYksTJrbgb0XKuSGqv0R2mD+V/lPckw2J7CzMAAAAASUVORK5CYII=;" parent="1" vertex="1">
          <mxGeometry x="461.87" y="740" width="42.5" height="40" as="geometry" />
        </mxCell>
        <mxCell id="fgCzt5P4TZWiUm7buIOH-98" value="Google Scholar" style="text;html=1;strokeColor=none;fillColor=none;align=center;verticalAlign=middle;whiteSpace=wrap;rounded=0;" parent="1" vertex="1">
          <mxGeometry x="463.12" y="782.83" width="45" height="25" as="geometry" />
        </mxCell>
        <mxCell id="fgCzt5P4TZWiUm7buIOH-100" value="Literature&lt;br&gt;Fetcher" style="text;html=1;strokeColor=none;fillColor=none;align=center;verticalAlign=middle;whiteSpace=wrap;rounded=0;" parent="1" vertex="1">
          <mxGeometry x="491.92" y="880" width="45" height="25" as="geometry" />
        </mxCell>
        <mxCell id="fgCzt5P4TZWiUm7buIOH-101" value="&lt;b&gt;Literature Team&lt;/b&gt;" style="text;html=1;strokeColor=none;fillColor=default;align=center;verticalAlign=middle;whiteSpace=wrap;rounded=0;labelBackgroundColor=#FFFFFF;" parent="1" vertex="1">
          <mxGeometry x="527.63" y="909" width="94.37" height="10" as="geometry" />
        </mxCell>
        <mxCell id="fgCzt5P4TZWiUm7buIOH-106" value="&lt;b&gt;Explanation Team&lt;/b&gt;" style="text;html=1;strokeColor=none;fillColor=default;align=center;verticalAlign=middle;whiteSpace=wrap;rounded=0;labelBackgroundColor=#FFFFFF;" parent="1" vertex="1">
          <mxGeometry x="818.62" y="910" width="104.25" height="10" as="geometry" />
        </mxCell>
        <mxCell id="fgCzt5P4TZWiUm7buIOH-107" value="Technical Analyst" style="text;html=1;strokeColor=none;fillColor=none;align=center;verticalAlign=middle;whiteSpace=wrap;rounded=0;" parent="1" vertex="1">
          <mxGeometry x="796.02" y="834.74" width="42.51" height="20" as="geometry" />
        </mxCell>
        <mxCell id="fgCzt5P4TZWiUm7buIOH-115" value="" style="shape=image;verticalLabelPosition=bottom;labelBackgroundColor=default;verticalAlign=top;aspect=fixed;imageAspect=0;image=data:image/png,iVBORw0KGgoAAAANSUhEUgAAAgAAAAIACAYAAAD0eNT6AAAABHNCSVQICAgIfAhkiAAAAAlwSFlzAAAOxAAADsQBlSsOGwAAABl0RVh0U29mdHdhcmUAd3d3Lmlua3NjYXBlLm9yZ5vuPBoAACAASURBVHic7d15vGVVdeDxXwFFUYhMIjIJahSNKGqMEyLOU9TExI5xRqPEbjVqYqKxTT6dWWM0jnHWoDGtBDWJGlBR1IjzAFFEBUQEcQBkkAKkoOr1H+dV+3jUfe++u9c56+y7f9/PZ39i94d71lpnqLPevufuA5IkSZIkSZIkSZIkSZIkSZIkSZIkSZIkSZIkSZIkSZIkSZIkSZIkSZIkSZIkSZIkabl1PWzzjsAzgAcCtwBu1EMMSWrBlcC5wEnAW4EzUrPRXIlsADYArwKeCewQuF1JEmwB3gi8ANicnIvmQFQDsAE4Ebh/0PYkSdv3KeBRwKbkPFS5qL/UX403f0kawv3o/uDaLTkPVS5iBuCOwGk47S9JQzoFeDjOBGhGETftZwRtR5I0vSOBjwI3zk5EdYq4cT8oYBuSpLU7AjgBvw7QDCK+ArgCTz5JyvQ54GF0/x5LU4loABYCtiFJKmMToDXxu3tJmg9HAB/BZwI0JRsASZofNgGamg2AJM0XmwBNxQZAkuaPTYBWZQMgSfPJJkArsgGQpPllE6CJbAAkab7ZBGi7xrAOQOQriSWpJq6jMm5XAucCHwfeBpyemk0wGwBJymMDUI8twJuAPwQ2J+cSwgZAkvLYANTnZLq3MFbfBPgMgCRJ03sA8MrsJCI4AyBJeZwBqNMW4E7AN7MTKeEMgCRJa7Mj8PTsJErZAEiStHYPzk6glF8BSFIevwKo1xXA7tlJlLABkKQ8NgB1q/r+5VcAkiQ1yAZAkqQG2QBIUr1OyU5A9bIBkKR6PQz4VHYSqpMNgCTV60rgkdgEaAY2AJJUN5sAzcQGQJLqZxOgFAuFIzv+LONjAXlPq8X9W1N9tRtb/XcEXkP33vVNAfm1dv7dCPhkT7V+FrhxQM1jkn38q5e9AzMu+i3AwQG5T6PF/VtTfbUbS/0bgDfQXVvZ51Tt559NwPSyj3/1sndg1oX/koDcp9Hq/q2lvtqNof4NdO9Yzz6X5un8swmYTvbxr172Dsy68M9kmGUgW92/tdRXuzHU/8aAPDz/bsgmYHXZx7962Tsw8+K/d0D+fdeXHb/vkV1f7bLrvyP1TfvXdP7ZBKws+/in8lcAZY7OTkCq3DPw36E+9fnrgCOAj1B/E9CseXgbYGYX9jNgf+CqHmO0vH+nkV1f1W8DI7/+bwK3L9xGplrOvxsBHwbuVxhvez5HtyLhFT1su2/Z538qO+8yuwO/mZ2EVLGhfk3TOmcCdAM2AOX8GkCa3W7ZCTTkSuBR9PMCoSOAE2jvePb9jMkmujUxXg3cYaCa1iT7IYq+D8Bqo+81AVrfv2Ovr3bZ9WefP7XXP4vdgM8ExN7e+Ax1NQHZ589axnXA64Gdo4p3BqDcDsCTs5OQpCltAh5OPzMBRwInUlcTUIsdgWfT7d+wJqBU7R10xOhzTQD377jrq112/dnnT+31l3AmIP/8mXW8LqJ4fwUQ50i638VGc/+uLLu+qp8CJr/+sZ9fq8muvzT+bnR/UR5ZuJ3tOYVupmFTD9uOUuv5twW4E92vaGbmVwBxjs5OQJLWaBPdT/g+1cO2jwQ+ir8O6MOOwNNLN+IMQJy+1gRw/64suz5nAHLjZ8uuP+r8a3UmoObz73S6lTRn5gxAHNcEkFQrZwLqc0h2AjA/D9E8MWBbHwuop6/6ao3ft3mvbzXZ9WfHzza2+lt7d0AfdQ450mUXEBV/I3Bp4bb6WBNgXvbvWM17favJrj87frYx1t9SE9BHjUOOIn4F8AtXA8cXbsM1ASTVzmWDNbXsDjYy/r0Dthe9JsA87d8xmvf6VpNdf3b8bGOuv4WZgD5qG3Kkyy4gOv63ArZ574C6+qqvtvh9m/f6VpNdf3b8bGOvf96bgD7qGnIU8SuAG3p3wDaODtiGJGXz6wCtKLuDjY5/IN1LF0q2eTmwa0BtfdRXW/y+zXt9q8muPzt+tlrqn9eZgD7qGXIUcQbghi4ATi7chmsCSJonzgTMIRuA7XtnwDaODtiG2nNX4M3AWcDmxXEW8CbgVxLzkmwCbmhd4ahe9hRWH/HHtCbAPO7fMRlLfbsCbwO2rhBrK/BWuvMzSnb92fGz1Vj/PH0dkL3/s+MXyy6gr/hvCdj2S0ZcXy3x+zaG+nalWy992pifJq4JyK4/O362WuuflyYge/9nxy+WXUBf8ceyJsC87t+xGEN9b5sh7puDYmfXnx0/W831z0MTkL3/s+MXyy6gz/hjWBNgnvfvGGTXdydWnvafNLYufrZUdv3Z8bPVXn/tTUD2/k+N70OAK3NNAPXt+cw2S7QOeF5wLtJa+WBg4+a5gxrDmgDzvH/HILO+Pej+AZ019lXAXoU5ZB/f7PjZ5qX+WmcCsvd/anxnAFbmmgDq01Moaw430r3GWsrmTECj5r2DemJAjI+NuL6+4/c9susrcWpA/K8X5lD7/u97bAJOB14N3CGg3uj6x6a2mYDs/Z8dv1h2AX3Hz14ToPb92/fIrm9W9wqIvW3csyCP2vf/kOM64PXAzgF1R9U/RjU1Adn7PzW+XwGs7mrg+MJt7AA8OSAXzY/fG+m2NNmOwLOBE4ltAuaNXwc0pIUOKnNNgNr3b98ju75ZlD78t3yUPAxY+/7PGq8LqD2i/jGrYSYge/9nxy+WXcBQ8bPWBKh9//Y9suubxXMC4i4fz54xl9r3f9a4DjhsBPWP3dibgOz9nxrfrwCm55oAivL0Hrb5zB62qcl2pJ/jOG/8OmDOtdJBZa0JUPv+7Xtk17dWkQ//LR+zPAxY+/7PHN8YQf21GOtMQPb+T43vDMD0XBNAEfp8YM+HAYd1SHYCFXEmYE611EFlrAlQ+/7te2TXtxbRD/8tH7M8DJi9/38WkIPnXz3GNhOQvf9T4zsDsDYfAC4r3MYDmX1NANXtyZSt/LeajcATetx+H87PTkCDciZgRGwA1sY1AVRiiIfGavsa4KTsBDQ4m4A50toUytBrAtS+f/se2fVNq8+H/5aPtTwMmL3/70D5w7Wef3Uaw9cB2fs/O36x7AIy4g+5JkDt+7fvkV3ftN4REGva8fYR1r+S1wfk4flXp+wmIHv/Z8cvll1ARvyXBMR9y4jri4zf98iubxp70L1UZqh9spaHAbP3P3TL6n48IBfPvzplNgHZ+z87frHsAjLiD7kmQO37t++RXd80+lj5b7Ux7cqA2ft/m53pltet7euAUtnxxyKrCcje/9nxi2UXkBX/YwGxp3mXe+37t++RXd80Il77u9bx3yOqfy0OA/6BbpGdKwLy8/yrR0YTkL3/s+MXyy4gK/5QawK0un+H0nd99wyIMeu4xwjqH7vs+rPjj83QTUD2/s+OXyy7gKz4G4FLC2NvYfU1AVrdv0Ppu74hH/5bPqZ5GHDej+9qsuvPjj9GQzYB2fs/O36x7AIy478lIP5LRlzfGOL3rc/6hn74b/m4Ctgzsf4aZNefHX+shmoCsvd/anwXAirzzoBtHM30awKoLk+i+4csS40rA0rgYkHVaLqDov81AbLry47ftz7ry3j4b/lY7WHAeT++q8muPzv+2O0GfIZ+ro2I7ZZKje8MQLl3B2zj6IBtaFzuAdy5cBtXLo4ShzPdw4DSGG0CHkY/MwFH9rDNqtgAlDuW7mG+Er9Dvy+J0fCeGbCN9wLHBWyntvcDSEv1+XWACjU9hbKozzUBsuvLjt+3PuqLevjv7nR/vZduZ6WHAef9+K4mu/7s+DXp88HAJo+/MwAxoh4G1HyIePjv68CXgC/SPUtQwocBNQ+cCRihpjuoRX2uCZBdX3b8vvVR39cCtvusJdt7dsD2Jj0MOO/HdzXZ9WfHr9GYZgJKZccvll1Advxt+loTILu+7Ph9i64vYuW/5VP2UV8pbO9hwHk/vqvJrj87fq3G0gSUSo3vVwBxXBNAAMcEbOM9wGVL/t+XA/8asN2I3KQx8OuAkWi6g1qmjzUBsuvLjt+3yPr6/Es9YmbhSm74MOC8H9/VZNefHb922TMBpVLjOwMQyzUB2hb18N8Xt/P//wXgtMJt74oPA2q+OBOQrOkOapkDKX+f+eVcf02A7Pqy4/ctsr7oh/+W6+NhwHk/vqvJrj87/rzImgkolR2/WHYB2fGXi14TILu+7Ph9i6qv79/rQ+z6AtH11yq7/uz48ySjCSiVGj/igbPSJEpzyI6/3BOJ+SogSvb+7ds81fcO4OlT/DdPGyCXac3T/p9F6/W3Lvv4F8W3AYhvADYCP2T117AOJXv/9m2e6rsX3Xf9q/03nxsgl2nN0/6fRev1ty77+BfF9yHAeFcDx2cnoep8ndVv/gCfp/xhQEmyAehJxJoAastb1vDfvr23LCQ1w68A+lt451vA7Xra9lpk79++zUN9V9P9guTSKf/7Pei+ZhrDGyTnYf+XaL3+1mUff78CGKkxPQiocXsv09/8IW5lQEkNswHoz7F0L/iRVrOW6f+Sz0jS/2cD0J8LgJOzk9DofYPpHv5bzocBJRWxAeiXDwOO36bk+CV/yb8jLIvZ/Cw5fraI+q8I2IY0ExuAfn2A67/VTeNzXmLsqyh7VuSfF7eRJXPfjUFE/ecHbEOaiQ1Av1wTYPw+lhj7OMoaxMvIfRgwc9+NQUT9JwVsQ0rT9FrKU7h3QI4179+x13d7yl/gNMvYChwekP/hi9saOv/rFvddqezzJ7v+O5Bz/jliRqnU+M4A9O+zwLezk9BEZwBvTIj7JrrV/0p9nZxfBPwj3b5rVVT9p9OdC1KVmu6gpvSSgDxr3b9jrw9gZ+DjA+b8Cbp3RkTZyLBvQTsJWB+Ue/b5k10/DH/+OeJGqez4xbILyI4/jQPJm+YrlX2BDXX8dgZeR7/HaQvdX44bAvPeZhfgDYsx+sr/OuA1xN78ss+f7Pq3GeL8c8SPUtnxi2UXkB1/Wh8LyLXG/Tv2+pY7DHgV3e/zNwXkdyXdVPHrgDv2kO9yhwOvX4x5ZUD+V9Dti1cS8533ctnnT3b9yx0G/MNizCsGqM9RNkqlxp+HdwFIkjSL7PtXanwfApQkqUE2AJIkNcgGQJKkBtkASJLUIBsASZIaZAMgSVKDbAAkSWqQDYAkSQ2yAZAkqUE2AJIkNcgGQJKkBtkASJLUIBsASZIaZAMgSVKDbAAkSWrQTtkJBCh9n7IkqU7rshOomTMAkiQ1yAZAkqQG2QBIktQgGwBJkhpkAyBJUoNsACRJapANgCRJDbIBkCSpQTYAkiQ1yAZAkqQG2QBIktQgGwBJkhpkAyBJUoNsACRJapANgCRJDdopO4EAvg9akqQ1cgZAkqQG2QBIktQgGwBJkhpkAyBJUoNsACRJapANgCRJDbIBkCSpQTYAkiQ1yAZAkqQG2QBIktQgGwBJkhpkAyBJUoNsACRJapANgCRJDbIBkCSpQTYAkiQ1yAZAkqQG2QBIktQgGwBJkhpkAyBJUoNsACRJapANgCRJDbIBkCSpQTtlJxBgITsBKdG67AQasQ7YDzhocdx8cRwE7A/sBuwCbFz83+uBPej+yLoS2Ly4nUuBK4CLgIsXx4+A7wHnLv7fHw9QjxTyj0fpDbg0BxsAtcwGIN4G4A7AnZeMOwE3Hij+JuB04OvAfy/+368BVw0UvyW137+K4tsASHWzASh3I+C+wIOA+wOH0f0FPybXAqcCnwNOAT5NN3ugMrXfv2wACj8v1cwGYO12AO4GPJjupn8vYOfUjNZuK/Bl4CPAiYv/e2tqRnWq/f5lA1D4ealmNgDTOwz4beDJwK2Sc4n2U+AE4F3AydgMTKv2+5cNQOHnpZrZAKzs9sDjgccBt07OZSjnA+8B3g6cmZzL2NV+/7IBKPy8VDMbgBvaCfgt4LnAvZNzybRA96zAW4H3A9fkpjNKtd+/bAAKPy/VzAbgF/YAngr8IXBwbiqjcyHwRuD1+PDgUrXfv2wACj8v1cwGoPs+/8XAE+l+h6/JrgKOBV5Bt+ZA62q/f9kAFH5eqlnLDcC+dH/tP5/ut/ua3rXAe4E/B87JTSVV7fcvG4DCz0s1a7EBuCnwJ8D/wr/4S10DvBn4a7rVCVtT+/3LBqDw81LNWmoAdgFeBLyA4Vbla8VlwF8Br6ObHWhF7fcvG4DCz0s1a6UBeDDwBtr5KV+W79B9rXJCdiIDqf3+VRTftwFKGrP96Ba3+Rje/IdwW+A/gQ8BBybnop7ZAEgao3XAs4Bv0a3cp2E9ku4lRE+lnVmm5vgVgFS3efzHeX/gnXTT/sp3AvC7wE+yE+lB7fev9Ot/oXDUHl8q4fl7fQ8BfkT5fnHEjguBR61w3GqVff1lxy+WXUB2fKmE529nF+C1dC+xyb7ZObY/ti4eo9renLiS7OsvNb5fAYxgCkVN8/yFQ4H3AXfMTkRT+TzdWxUvyE4kQPb1lxrfhwAlZXog8AXybv6b6N6c99fU8QrdLcBfAO8GLk/K4V7AV4GjkuJrRJqeQpEKtXz+/k9gM8NPZW8BTqT7K3YjsBfdcrhD5zHr+C6wJ93yx4+m+8nedQl5bAaOucFRrUv29Zcdv1h2AdnxpRItnr87Aq9h+BvWj+n+ej5kSS7r6G6gQ+dSOv6d60//Hgj8KfCDhFxeSr1fRWVff9nxi2UXkB1fKtHa+bsb3V/fQ96gvgk8ne2/MOjFA+cSOV64nXp2Bp4CnDZwLu+le5CzNtnXX3b8YtkFZMeXSrR0/u4BfI7hbkrfoJsin/TX6VHkTJ1HjWuBe6+wvx9B9139UPl8HLjRCvmMUfb1lx2/WHYB2fGlEq2cv3sDX2aYG9GZwBNY+SHnPYFzB8qnz3EOsPsKda4Dfgs4faB8TqFr9GqRff1lxy+WXUB2fKlEC+fvTYFT6f/mcxnwR0z3O/V/GSCfocY7p6h3J+DZwMUD5PMV4CZT5DQG2ddfdvxi2QVkx5dKzPv5ux/9//W5FXgHcLMpc3piz/lkjMdOWfvewOvpfgnRZz5foY6ZgOzrLzt+sewCsuNLJeb5/N2b7gG8Pm8059CtJTCtQ+hmCvrMKWNcAhy0hv1wBHBGzzmdwvifCci+/rLjF8suIDu+VGJez99dgP+iv5vLtmVp13KDWQd8NDCHnwds46rAfD68hn0B3a8i/pZ+H4Q8ie3/+mIssq+/7PjFsgvIji+VmMfzdwfgePq7qVxI94T7Wj0tOI/fD9jGMcE5PWmG/XJP+l0I6TjGu+ps9vWXHb9YdgHZ8aUS83j+9rnIz0l0zxWs1f500+RRebyfbkYh4vi9OzCvi4F9Z9g/ewMfCMxj+fjbGXIaQvb1lx2/WHYB2fGlEvN2/v4x/dxAtgJ/R7eK4Cwib27n0P2MkIBtQbc40rcD8ztuxn20jm5hpL4eEHzGjHn1Kfv6y45fLLuA7PhSiXk6fx9OPzePK4HHF+T16MBcrgHutmTbUcfvcGKfB5jlK5JtHg5cGpjLtrEZuE9BXn3Ivv6y4xfLLiA7vlRiXs7fQ+jnN+Y/4fo33LXaCHwvMJ/nL9t+5PH7vcA8z6Zsad7b0c9CST8CDijIK1r29Zcdv1h2AdnxpRLzcP6uBz5L/M3iu8Chhbn9ZWA+H+KGywpHH79/Dsz3z9a2q25gP/pZSvjzTLdY0xCyr7/s+MWyC8iOL5WYh/P39cTfJL5Ct4JgiV8Crg7K50d0D8otF338dgfOC8r5KuAW0+6sCXYHPhmUz9LxqsK8omRff9nxi2UXkB1fKlH7+ft44m8OXwL2Csjtg4E5PWZCjD6O368F5v1vU+yn1exK96KfyGO8FXhYQG6lsq+/7PjFsgvIji+VqPn8PRj4GeU1LB1f4BdP2Jd4QGBOx68Qp6/j967A/O+7QpxpbSR2EaUFulmV0lmeUtnXX3b8YtkFZMeXStR8/n6E8vyXjtOIufnvQPcVQkROF7PyOwb6On57Az8OquGLTH4l8lpsBD4dlNO28cGAvEpkX3/Z8YtlF5AdXypR6/kbvare2XSL9UR4UmBeq62s1+fx+/XAOn5nlVjT2p34BwOfHJTbLLKvv+z4xbILyI4vlajx/I1eVe9HwK2CcttA3M/+/nOKeH0fv/cF1XI2cU/e70f3C42o438ReV8FZF9/2fGLZReQHV8qUeP5G7mq3s/p1qKP8vygvC5nurfr9X38bgb8NKim50wRb1q3J/ativ8SmNtaZF9/2fGLZReQHV8qUdv5+5jCfJePowNz20g3mxCR1x9PGXOI4/ecoJp+QNniQMv9GrFvEnxoYG7Tyr7+suMXyy4gO75UoqbzdwOxU7+vDM4v6q//s5n+FbZDHL+dgDOCaoucBYDYdz+cQbeo1JCyr7/s+MWyC8iOL5Wo6fx9QUC+28YXiV0Nbhe6v3AjcvvNNcQd6vhFrQ3wQ7qZkijr6NYaiDovnheY2zSyr7/s+MWyC8iOL5Wo5fzdi7i1/i+hfIW65Z4XlNsn1xh3yON3YlCNz15j3NXsRdyDl5cA+wTnt5Ls6y87frHsArLjSyVqOX9fGZDrtvEbwbmtB84PyGsLcJc1xh7y+B0GXBsQ8zzip9qPIO55gCGXCc6+/rLjF8suIDu+VKKG8/eWdE/rR/zjfmwP+T0lKLe3zhB76OP3jwExF4AnzBB7NS8Lyu1qpvsFRoTs6y87frHsArLjSyVqOH+jlqW9gJg1/pc7NSC3K+h+375WQx+/fYj5+d1XZ4i9ml2AbwbktkDX6Awh+/rLjl8su4Ds+FKJsZ+/Nwc2B+S5QLeyXbQHBeX20hnjZxy/vwiIuwDcf8b4K7k7MV8FXAMc0kN+y2Vff9nxi2UXkB1fKjH28/cfAnJcAP6jp/wi3kdwJbDvjPEzjt/exLyE6cMzxl/NGwNyWwBe01N+S2Vff9nxi2UXkB1fKjHm83dPYm40VxO31O9Sh9K9VrY0v5L1CLKO30sDYm8Fbl2QwyR70y3vW5rfpsVt9Sn7+suOXyy7gOz4Uokxn78vCshvgW7Kug+vCMjtaspeQpR1/G5Kd4Msjf/yghxWckxAbgvA/+4pv22yr7/s+MWyC8iOL5UY6/m7ge6hvdL8fgLs1lN+EX9lvrYwj8zjF9EAXcT0qx6uxY7EPBD4o57y2yb7+suOXyy7gOz4Uomxnr9Rr9Tta2W3Jwbk9nPKf26Wefz2A64KyKGPnwRCt6JixDkU9Srj7cm+/rLjF8suIDu+VGKs5+8nAnI7l/7+evuvgPzeFJBH9vF7bUAOnw7IY5LPBeR3Uo/5ZR+/1PjrSjcQkERpDtnxpRJjPH8Port579jDtqW1WqB74PPsnrZdour71w6FwSXNn6Px5q/xWAc8LTuJeeQMgDMAyjXG8/fbwG172K40q/PoXiAV/bVX9vXnDICk0TgCb/4an4PpVhlUIBsASUs9KTsBaYI+fw3QJL8C8CsA5Rrb+Xse3fr/0tj8gG4mIPJrgOzrz68AJI3C4Xjz13gdBNwlO4l5YgMgaZuHZycgrcJzNJANgKRt/MdVY+c5GshnAHwGQLnGcv7uDlwMrA/antSHLXSvbr4kaHvZ15/PAEhK9xC8+Wv8dgSOyk5iXtgASAK4T3YC0pTunZ3AvLABkARwt+wEpCnZAATxGQCfAVCuMZy/64HLgY0B25L6di2wJ92rkEtlX38+AyAp1R3w5q96rAfunJ3EPLABkHSP7ASkNTo8O4F5YAMgqfT7/0/RTUX2Nf6sML+v95hbqb7y+kZhXn/WY27rgC8W5nfHws8LGwBJ5X9NfTUki8nuUPj5L4VkUZfSmg8LyWKyrxR+3hmAADYAkm5V+PnSf8xXU/rXXulfmzUqbQBKm67VlJ4zfefXBBsAqW17AnsXbqPPBmADcGjhNmwA1u62wM4RiUxQes7sCewTkUjLbACktpX+9X81cE5EIhPcCtip4PPXAt8OyqUmZwDXFXx+PXBIUC7b8x26Y1PiFgF5NM0GQGpbaQPwXWBrRCITlN6Evkv5jaZGm4FzC7dxi/I0JroW+H7hNm4ZkUjLbACktpU2AGeFZDHZLQo//52IJCpVWvstIpJYwZmFn7cBKGQDILWt9C/ss0OymKw0v9KbTM3mvQE4MCSLhtkASG0rfZDqvJAsJjug8POl08w1Kz02+4VkMdn5hZ/3IcBCNgBS2/Ys/PxPQrKYrPQXCn3nN2altd8kJIvJxp7f3LMBkNq2R+HnLwzJYrLSf+RtAGY39gbAGYBCNgBS225c+Pm+G4DSGYC+8xuz0hts6b5fzdjzm3s2AFLb9ir8/OUhWUxW2qBcFpJFnUqPzW4hWUxWmt8uIVk0zAZAalvpVwDXhGQxWelqdH3nN2Y/L/z8hpAsJht7fnPPBkBq2/rCz5f+I76a0vxsAGbX51LA0K0iWcIGoJANgNS2LYWf77sBKP1H3gZgdn3fYG0AktkASG0rbQCkLAvZCdTOBkBqW8kLY6D/B7E2F36+72nsMSs9Nn3Pnmws/PxVIVk0zAZAatu8NwAtPyleWnvpvl9NaX42AIVsAKS2lTYAfX8PW3oTavl7YmcAtCIbAKltpTfY0qWEV3NF4ef7zm/MSn/iuSkki8l2L/x86UOEzbMBkNp2UeHn9w3JYrKfFn7+ZiFZ1Kn0ZT6l+341pfk5A1DIBkBqW+lSuTYA41V6bC4JyWKymxZ+/sqQLBpmAyC1rXQ99r5vsDYAsyv9C/vikCwmKz02PwzJomE7ZScwAv6WVC0rnQG4eUgWk/248PMHh2RRp9JjU7rvV3NQ4ed/EJJFw5wBkNpW2gDcOiSLyb5f+PnbhmRRp9sVfr5036/m0MLPnx+SRcNsAKS2lX4FcJuQLCY7t/DzLTcApTfYcyOSWEFp8+gMQCEbAKlt3yv8/C/R778jpX+F3oryFwrVaGfgFoXbOLc8jYl2oDs2Jc6LSKRlNgBS284o/PxGuiagL+dQtljResqnwmt0e8qe8dpMv18BHEr5Ik0XRCTSMhsAqW2XUP6w169GJDLBNcCZhdu4GZinwQAAE0RJREFUR0Qilbl74efPpN+lgO9a+PnLKV/Donk2AJK+Vfj50n/MV3N64edbbABKay7d56spbRpPw19wFbMBkFTaAPQ5AwDwjcLPt9gAlM4AfDMki8lKz5lTQ7Jo3LqAbZR2YaU52AWqZRHX8HOA1wVsRxrKU4F3Bmyn9vtXUXxnACSdlp2AtEaeswGcAZDqFnENbwAuo/z1sdIQNgM3JuYhxdrvX84ASCpyDfDl7CSkKX2dfn+h0AwbAEkAp2QnIE3pk9kJzAsbAElgA6B6fDw7gXnhMwBS3SKuYYA96F69u2PQ9qQ+bAb2Bq4M2l7t9y+fAZBU7HJ8slrjdwpxN//mlawVPRZRfwFJrfsg/a/qJ5Vw+j+QMwCStvm37ASkVdgABJqHZwAkxTkTuE12EtJ2nEf3iuPI576y718+AyBpND6YnYA0wXvwoe9QNgCSlvJrAI3Ve7ITmDd+BSBpqR2A84EDshORlvgWcPsetpt9//IrAEmjsRU4NjsJaRn/+u+BMwCSlrslcDb+gaDxOBQ4q4ftZt+/suMXWygcksbno5Rf22fS31oj/xWQ32sC8sj+9+9NATl8OiCPST4XkN8neswv+/hlxy9WfQGSbuB/UH5tLwDH9JTfEwNyu5ryZx0y//27OfDzgBweX5jHJI8JyG0B+I2e8iMgt9rjF6u+AEk3sB74IeXX9wXArj3ktwG4MCC/vy/MI/Pfv9cHxL+Ibl9G2xH4ZkB+59Lv+ymy71/Z8YtVX4Ck7fobyq/vBeBPesrv7wNy2wTsU5BD1r9/B9DNYJTG/7uCHFbyzIDcFoAX9JTfNtn3r+z4xaovQNJ27Uv34pXSa/wK4KAe8rsN3a8WSvP7m4Icsv79e1VA7C3ALxXkMMlNgIsD8tsE7NlDfktl37+y4xervgBJE0XcaBaA43rK74SA3C4H9poxfsa/fzcjpjH70IzxV/PmgNwWgDf0lN9S2fev7PjFqi9A0kQHEvOg2QLwkB7ye2BQbv9nxvgZ//69PCDuAnC/GeOv5B50Mwuluf0cOLiH/JbLvn9lxy9WfQGSVvRGYm443wd27yG/UwNyu5Ru6nqthv737wC6qfHSuF+ZIfZqdgHOCMhtgZifaE4j+/6VHb9YdgERJ5vDUesYwsHANUH5vqWH/J4UlNvrZog99PE7NiDmAvC4GWKvJuKhzAW6Bme/HvLbnuzrLzt+sewCIk44h6PWMZSIBWcW6B7ae3hwbuvp3l9Qmtu1rH29+SGP312JmV7/PvELNB0JXBeQ2wLw0uDcVpJ9/WXHL5ZdQMQJ53DUOoayN/DToJwvpHu2INJzg3I7aY1xhzx+EasfLgDPWmPc1exF93v9iNwuozvXhpJ9/WXHL5ZdQMRJ53DUOob0B4F5f4rYBV52oVt0KCK3h60h7lDH77eDajuf2IV/1tH9miDqvOhrzYhJsq+/7PjFsguIOvEcjhrHkNbTvZY1Kve/Dc7veUF5fZPpp8iHOH67AOcE1Rb91/8Lg/JaoHuAcOfg/FaTff1lxy+WXUDUyedw1DiG9qDCfJeOrcATAnOLnAV49pQxhzh+Lw6q6YfAxiljTuNhxH3vvxV4QGBu08q+/rLjF8suIOLkczhqHRk+vMYcVxpXAXcLzC1qFuCndAvurKbv43cw8LOgmiL/+r9DYF4LwLsCc1uL7OsvO36x7AKiTkCHo8aR4WC6h7WiargAuEVQbhuImy4/fop4fR+/jwTVchbdVzgRDgC+F5TXAl2ztW9QbmuVff1lxy+WXUDUSehw1DiyPHWFnGYZZxJ3E3h8YF6PWSVWn8fvqYF1/PYqsaa1F/D1wLwWgN8Lym0W2ddfdvxi2QVEnogOR20j038QW8tXiVkpcB3w5aCcfsTKP0vr6/jtD1wSVMMXFvdJqV2BzwTltG2cEJTbrLKvv+z4xbILiDwZHY7aRqabAj8htp7PEtME3Dcwp3euEKev4/f+wPzvv0Kcae1Kt0ZC5LH+CcOt+DdJ9vWXHb9YdgGRJ6TDUdvIFvX79KXj88AeAblFzlBMWr2wj+P32MC8PzDFflrNjYCTA3NaoHvq/6EBuZXKvv6y4xfLLiDypHQ4ahtj8Hbi6/oSsE9hXrcCrg7K5zy2PzMRffz2IW5W5UrgkKn31vbtAXw6KJ+l4xWFeUXJvv6y4xfLLiD6xHQ4ahpjsAH4IvG1nQ3cujC3vwjM57jtbD/y+K0D/j0w3z9d2666gf2JedPi8vFVhl/wZ5Ls6y87frHsAqJPToejpjEWNyf+eYAFuofw7lKQ10bifha4wA2fWI88fi8IzPMsypb8vT3dS4Oij+dFwC0L8oqWff1lxy+WXUD0Cepw1DTG5L7AZuJr3ETZz9h+PTCXq4DDl2w76vjdg9h992sz7y14JLHrPGwb1wD3KcirD9nXX3b8YtUXIClM1Fv5lo+twMuY/QVC7wvM5Ux+8TxAxL9/exI7S/F/Z9xH64AXEfPK4e2NY2bMq0/Z96/s+MWqL0BSqLfSzw1kAfgo0y3Ru9x+xL3OeAF49+J2S7ezju5J/ai8LqL7eeZa7QN8MDCP5ePvZshpCNn3r+z4xaovQFKoHekemOvrZnIh8IgZ8jo6OI9nBGwjesbk8TPsl/sDPwjOY+k4gdhXP0fKvn9lxy9WfQGSwm0gfuGYpWMr8Gq636ivxYmBOVwVsI2fB+bzoTXui43Ay+lvyn8B+BTdIkJjlX3/yo5frPoCJPViN7plaPu6uSwA3wUeuIacDgYu7TmnjPFT4MA17Iej6J5l6DOnz9KdA2OWff/Kjl+s+gIk9WZv4HT6vdFsBf6J6Z8NiHxZ0FjGtL+S2Ad4C90+6zOfLxGzmmPfsu9f2fGLVV+ApF7tT/9NwAJwOfBHTLfIzLsHyGeocewU9e4EPI+4FwytNL5G99bAGmTfv7LjF6u+AEm925v+vw7YNs4EngDssEI+exD7Tvus8V1WfnnSOrrZgTMGyudUypdwHlL2/Ss7frHqC5A0iN3o98HA5eMbwG8xuRE4Erh2wHyix7XAERNqW0e3ANJpA+bzcWLe5Dik7PtXdvxi1RcgaTA7A//KsDfKs+imvzduJ58XDZxL5PijCfv3KXTNz5C5HA/ssp18xi77/pUdv1j1BUga1I50D6INfcP8MfCXXP8NeeuIfW3wUOPfF3Pf5ubA/wF+mJDL3y/LpSbZ96/s+MWqL0BSit+nn3cHrDa2AB8BHks3K7AX3XfpQ+cx6zibbvngXYDH0C200+dv+SeN6+hmVmqWff/Kjl+s+gIkpTmK7i/zrJvpFcB7gL8i5yY6y033z+l+xfCzxDwuBB50w8NZnez7V3b8YtUXICnVgcDnyb+5OqYbX+L6X6PULPv+lR2/WPUFSEq3AXgb+Tc3x+SxFXglsH7CMaxR9v0rO36x6guQNBqPoZtezr7ZOa4/LgV+c4XjVqvs+1dq/IgnN0uTKM0h4iBI2r6Mp7v3Bd7EfN5wanQC8Ey6NwbOm9rvX0XxV1opS5IyXEi3gM9j6ZauVY5L6W78j2A+b/7NswGQNFbHA3dm7a+5VbnjgNvRrdegOWUDIGnMzqdb0vahwLeSc2nBWcBvAI+jm4nRHLMBkFSDjwGH001JX5ycyzy6BPgT4I7AB5Nz0UB8CFDSSsa4xOs+dEv6PoP5+klahp8DrwFeSvc65dbUfv8qim8DIGklY2wAtjkEeCHwu9T5IppMm4F/oVtV8LzcVFLVfv+yASj8vKTJxtwAbLMv8CzgD6jvdbRDuwL4J+AVdM9XtK72+5cNQOHnJU1WQwOwzT7Ac+m+Gtg/OZex+SHdVP+baXOqf5La7182AIWflzRZTQ3ANjsBjwKOofv1QKsPO28FPgkcC/wr3bS/rq/2+5cNQOHnJU1WYwOw1CHA04GnAQcl5zKUbwPvontjoNP8K6v9/mUDUPh5SZPV3gBsswNwd7rlhR8NHJqbTrhzgQ/T3fS/mJtKVWq/f9kAFH5e0mTz0gAsd3u6RuDRwK8AO+ams2abgc8AJy6OM3LTqVbt9y8bgMLPS5psXhuApW4MHAEcCRwF3A3YmJrRDV0JfA34Mt2N/xN0T/SrTO33LxuAws9LmqyFBmC5nYFfBe5EN1NwO+CXgQMHin8hcA5wGt0N/8t0f+FvGSh+S2q/f9kAFH5e0mQtNgCT7EHXDNwauCnd+gP7Lf7vbWMdsOeyz+1Ct+LezxbH5Uv+90V039+fs2Rs6rcMLVH7/av5BkCSpFlk379S47f6+1hJkppmAyBJUoNsACRJapANgCRJDbIBkCSpQTYAkiQ1yAZAkqQG2QBIktQgGwBJkhpkAyBJUoNsACRJapANgCRJDbIBkCSpQTYAkiQ1yAZAkqQG7ZSdQIDS9ymrTPb7sKVMnv+5Svd/05wBkCSpQTYAkiQ1yAZAkqQG2QBIktQgGwBJkhpkAyBJUoNsACRJapANgCRJDbIBkCSpQTYAkiQ1yAZAkqQG2QBIktQgGwBJkhpkAyBJUoNsACRJatBO2QkE8H3QdfP4qWWe/0rjDIAkSQ2yAZAkqUE2AJIkNcgGQJKkBtkASJLUIBsASZIaZAMgSVKDbAAkSWqQDYAkSQ2yAZAkqUE2AJIkNcgGQJKkBtkASJLUIBsASZIaZAMgSVKDdspOIMBCdgKNK32fee3HL7v+7PirGXt+pea9vr6V7j8VcAZAkqQG2QBIktQgGwBJkhpkAyBJUoNsACRJapANgCRJDbIBkCSpQTYAkiQ1yAZAkqQG2QBIktQgGwBJkhpkAyBJUoNsACRJapANgCRJDbIBkCSpQRHvYs5+n7kkSbPIvn+lxncGQJKkBtkASJLUIBsASZIaZAMgSVKDbAAkSWqQDYAkSQ2yAZAkqUE2AJIkNcgGQJKkBtkASJLUIBsASZIaZAMgSVKDbAAkSWqQDYAkSQ2yAZAkqUE7ZScQoPR9yiqT/T5sKZPnf67S/d80ZwAkSWqQDYAkSQ2yAZAkqUE2AJIkNcgGQJKkBtkASJLUIBsASZIaZAMgSVKDbAAkSWqQDYAkSQ2yAZAkqUE2AJIkNcgGQJKkBtkASJLUIBsASZIatFPANjYDOxd8fufFbczK90HXzeOnlnn+t+tGhZ+/pjSBiBmATYWf3y0gB0mSarJv4ed/VppARANQmsReATlIklSTfQo/f0VpAhENQGkStw7IQZKkmtys8POjmAH4ceHnbxuQgyRJNblr4edL770hDcCZhZ+/Z0AOkiTV5KjCz3+nNIGIBqA0iQfgk7CSpHasp/yP31E0AN8u/PzNgF8NyEOSpBrcF9i1cBvFDUCEfYAtwELBeO3gWUuSWldy31ooiHt8YdwtwN4F8UOdRlkxF1O+KIIkSWuR0QAcQLf4XUncr8wY+3qilgI+ufDzNwGOiUhEkqQReybdMwAlSu+5oR5JeSf1A5wFkCQNZ+gZgIPo1s4pjfuwGWL3ZhfgUsqLetnQiUuSmjV0A3BcQMxLgA0zxO7VWygvbDNwl6ETlyQ1acgG4EEB8RaAN85SaN/uQ0xxZwG7D5y7JKk9QzUABwAXBMRbAO41Y629Wke3KmBEgR8Adhw2fUlSY4ZoAG4EnBoQa4Fu3Z3RLpx3DDFFLgBvHjh3SVJb+m4Adgb+IyDOtvG7ZeX2az3wfeKK/Sdgp0ErkCS1os8GYDfgxIAY28b36RqKUXsucQUvAP8G3HjQCiRJLeirATiA8gXylo9nhVTcs13oHuSLLPxM/HWAJClWHw3A44CfBGx76fg2I/zp3yQPIbb4BeBa4DU4GyBJihHZAOwPvD9gm9sbo1r4Zxrvo58d8UPgD3DVQElSmYgG4FC63+ZfGbC97Y339lN6vw6ie8lPHztkYXHbrwPuwYh/FiFJGq3S+9AHKX8b7krjIrrnCXrR943zkXQ7qO84FwKfBL5A913J9+h23Ca61QUlSVpuYfX/JM0C8Ai6XxL0Yoi/nF8BvGCAOJIkzYuXAS/uM8AQDcB64CTgvgPEkiSpdicDDwWu6zPIUN+d7w58Cn/KJ0nSSr4BHAVc1negIR+e2xc4BbjNgDElSarFOcC9gR8PEWyHIYIsuhB4ON0DepIk6RfOAR7MQDd/GLYBAPgucATdEomSJAlOp5v2P2fIoEM3ANB1N/cDPp0QW5KkMTmZbtr/gqED7zh0wEXXAO+m+53jUbiQjySpLQt0i9k9Bbg6I4Ex3HgfCRwL3CQ5D0mShnAxcDRwQmYSGV8BLPdh4E507w6QJGmeHUd3z0u9+cM4ZgCWuj/wj8AvZyciSVKgs4HfBz6Sncg2Y5gBWOqTdIsFPQc4LzkXSZJKfR94NnAYI7r5w/hmAJbaGXgy8EK61y1KklSL7wAvB/4ZuDY5l+0acwOw1F3pnpR8ArBPci6SJG3PZcCHgHcBn2DcbxuspgHYZgPwgCXjzozvawxJUhu2AqfS/Zb/ZLqvsa9JzWgNamsAltub7pmBQ4HbAbele+fAHovjxnRfJUiStFabgSuAyxfHhcC36ab3z6S7+V+Slp0kSZIkSZIkSZIkSZIkSZIkSZIkSZIkSZIkSZIkSZIkSZIkSZIkSZIkSZIkSZIkSQr3/wAUGz8F9U7a2QAAAABJRU5ErkJggg==;" parent="1" vertex="1">
          <mxGeometry x="565" y="747" width="25" height="25" as="geometry" />
        </mxCell>
        <mxCell id="fgCzt5P4TZWiUm7buIOH-116" value="" style="shape=singleArrow;direction=north;whiteSpace=wrap;html=1;arrowWidth=0.5;arrowSize=0.25;fillColor=#d5e8d4;strokeColor=#82b366;strokeWidth=2;" parent="1" vertex="1">
          <mxGeometry x="597.88" y="749" width="10" height="20" as="geometry" />
        </mxCell>
        <mxCell id="fgCzt5P4TZWiUm7buIOH-117" value="" style="shape=image;verticalLabelPosition=bottom;labelBackgroundColor=default;verticalAlign=top;aspect=fixed;imageAspect=0;image=https://cdn-icons-png.flaticon.com/128/2386/2386473.png;" parent="1" vertex="1">
          <mxGeometry x="565" y="796.66" width="24.34" height="24.34" as="geometry" />
        </mxCell>
        <mxCell id="fgCzt5P4TZWiUm7buIOH-118" value="" style="shape=singleArrow;direction=north;whiteSpace=wrap;html=1;arrowWidth=0.5;arrowSize=0.25;fillColor=#f8cecc;strokeColor=#b85450;rotation=-180;strokeWidth=2;" parent="1" vertex="1">
          <mxGeometry x="597.88" y="798.83" width="10" height="20" as="geometry" />
        </mxCell>
        <mxCell id="fgCzt5P4TZWiUm7buIOH-119" value="" style="shape=image;verticalLabelPosition=bottom;labelBackgroundColor=default;verticalAlign=top;aspect=fixed;imageAspect=0;image=data:image/png,iVBORw0KGgoAAAANSUhEUgAAADoAAAA5CAYAAABnLziGAAABW2lDQ1BJQ0MgUHJvZmlsZQAAKJF1kDtLA1EQhU8eEjUpLLQQFIJgoawSYhrTxYgxsMgSDT5QcHPzEpL1ullRwR9hpX8giJVtUqazESwEBREstRSENBquc7PqJooDw3wczgwzA7h7dc5LXgBlwzJTibng2vpG0PcCP/owhGGM6qzCY5qmkgXftTuad3DJejslZ13e5C/OlhqzY8+T1cPNJ89ff1f0Z3MVRvWDMsS4aQEuhVg7sLjkY+JBk5YiPpFcsLkqOWNzve1ZScWJr4kHWFHPEj8SK5kOvdDB5dI++9pBbh/IGellOYdyBCoSCGIBaSKVaBHz//gjbX8cu+A4gokdFFCERT0xUjhKyBEnYYBhGgpxGCHKiPzz7/852h7dFU0C7rKjbWtA/VWe52jj9KvAFdDY4rqp/3zV1fRW8jNhm/01oOdUiLdVwDcBtO6FeK8J0ToHPA/U2/wEtRJi8ihLqmkAAABWZVhJZk1NACoAAAAIAAGHaQAEAAAAAQAAABoAAAAAAAOShgAHAAAAEgAAAESgAgAEAAAAAQAAADqgAwAEAAAAAQAAADkAAAAAQVNDSUkAAABTY3JlZW5zaG90v9r1yQAAAdRpVFh0WE1MOmNvbS5hZG9iZS54bXAAAAAAADx4OnhtcG1ldGEgeG1sbnM6eD0iYWRvYmU6bnM6bWV0YS8iIHg6eG1wdGs9IlhNUCBDb3JlIDYuMC4wIj4KICAgPHJkZjpSREYgeG1sbnM6cmRmPSJodHRwOi8vd3d3LnczLm9yZy8xOTk5LzAyLzIyLXJkZi1zeW50YXgtbnMjIj4KICAgICAgPHJkZjpEZXNjcmlwdGlvbiByZGY6YWJvdXQ9IiIKICAgICAgICAgICAgeG1sbnM6ZXhpZj0iaHR0cDovL25zLmFkb2JlLmNvbS9leGlmLzEuMC8iPgogICAgICAgICA8ZXhpZjpQaXhlbFlEaW1lbnNpb24+NTc8L2V4aWY6UGl4ZWxZRGltZW5zaW9uPgogICAgICAgICA8ZXhpZjpQaXhlbFhEaW1lbnNpb24+NTg8L2V4aWY6UGl4ZWxYRGltZW5zaW9uPgogICAgICAgICA8ZXhpZjpVc2VyQ29tbWVudD5TY3JlZW5zaG90PC9leGlmOlVzZXJDb21tZW50PgogICAgICA8L3JkZjpEZXNjcmlwdGlvbj4KICAgPC9yZGY6UkRGPgo8L3g6eG1wbWV0YT4KuLnPzQAAA+dJREFUaAXtWk1ME0EUfktrMFGoP6FYwXgxVBM9WGOip5azXtR4MJFEI6jRmwlXm148epIIWL2SiCaGaOJFU06SqL34F4rxYgWBeAGRQqDrvMVZZrcz+1N2ya67L9nMvPdm3rxv3pufbleSCUEAqCEAGBWIIdD/LdJhRL0aUTk/CNUTxwGK7225aCmi+TfPoVgu2TLstcZRvUMI6CEBxpIiGwNItXewYug7f0vDswzOPBSLrAjkf1GQUsfW5akUSN1X13mXajVAcRxR9ERykW8UmF7PyiW90iWeCxTHSjTvNhxyau6XoZ4qpVOnibEEZTWl/EKbORqlw4wQKKapCCxG1ipQh/2t25ylzahu6x7q6DughfESjM7N255CYeratiTqMDUp0liSFwoFpV0ulwNaf30oaakv28h1oLJyxGiPGdYBSOzVsBQMC4w2yCQ7IN3UBLDwe+2o0l0ajI4p14FSJ41KBIfAkChQrGcyGYBSCW7HmiDdTABSInU5/4BySqk5mzWaNcY1oDi77OB4dqJzUncPjJJfwLkBcqEgVLg/AIAPIQSGTzabVUqUyTeuqxcN5Osl14AqDpEbEI1Qrn8Q5AmykfRcU31lgaEQ+RrCmxN5VCJLASdNmURGzk6q2papOAZUBcRJQWY8wHWW7V+PIKvj1fXrbu1qSYCSzAD2KsnrzMhsAx0vfoAfs2Uoj72DzpFOxRQFydhVo4NpiJQh66pK0hAdlHiRYzsb1JUlUcfd2BJQBDfyaAiwZKlMGEw3fNLptFKiHnkeNYy95Yk3RWYJaDJ1BIAAxTJ59DBI7TthYvY7fOob2RQnnRjEElAcqPfeHXU8vOtOl1dV3g+VBj846YSPIVAnZtFLNsKIeikaTvgSmIgKjxejVyVGOidm3w0bQqB23/i54ZyTNiXe34Z6kDeH7yrvdK+cJG/0GNK/52VUnqtyIyoCIJJ7DhXHocBsRiFQTvR9LQpMRLm7rj50dBf282ZkCageuB/5wKRuCNSP6WnkcxhRo9nxo67mrotfBn4e/2aKJRKNwMED+03beaVBDVB0rLK0DM+eDgl9jEaicKHrslDvRQUXKDq6VFkU+hvdxvyFJ2zlLYUQ6EbdJCvAMhl9grO4vArz8wumtmLN26Fxi3hvdQ3oykoVPn75aupge1sCWnYZZ8iT4cdQqfwR2tqTaINzZ88I9ahwDSgan5osQ+HVS6xyKdG2Dy52XeLq9MKfxJaIEKgZiWNt1tNn+sAAFaZuSyv/sza7gfSKHe7PtOnpGUt4WlvjwnZ48ZiZMbfTuLURdsRiG7YTj8dBMti+uUCFo/pYEZg1GhigfwHwMCZAke0M+gAAAABJRU5ErkJggg==;imageBorder=default;strokeWidth=2;" parent="1" vertex="1">
          <mxGeometry x="567.32" y="848.5" width="20.35" height="20" as="geometry" />
        </mxCell>
        <mxCell id="fgCzt5P4TZWiUm7buIOH-120" value="" style="shape=singleArrow;direction=north;whiteSpace=wrap;html=1;arrowWidth=0.5;arrowSize=0.25;fillColor=#d5e8d4;strokeColor=#82b366;strokeWidth=2;" parent="1" vertex="1">
          <mxGeometry x="597.88" y="848.5" width="10" height="20" as="geometry" />
        </mxCell>
        <mxCell id="KsrdHVBfr6KVUB-R_dGB-4" style="edgeStyle=orthogonalEdgeStyle;rounded=0;orthogonalLoop=1;jettySize=auto;html=1;exitX=1;exitY=0.5;exitDx=0;exitDy=0;endArrow=classicThin;endFill=1;" parent="1" source="fgCzt5P4TZWiUm7buIOH-121" target="fgCzt5P4TZWiUm7buIOH-104" edge="1">
          <mxGeometry relative="1" as="geometry" />
        </mxCell>
        <mxCell id="fgCzt5P4TZWiUm7buIOH-121" value="" style="shape=image;verticalLabelPosition=bottom;labelBackgroundColor=default;verticalAlign=top;aspect=fixed;imageAspect=0;image=https://cdn-icons-png.flaticon.com/128/9261/9261044.png;" parent="1" vertex="1">
          <mxGeometry x="640" y="796.6600000000001" width="25" height="25" as="geometry" />
        </mxCell>
        <mxCell id="KsrdHVBfr6KVUB-R_dGB-34" style="edgeStyle=orthogonalEdgeStyle;rounded=0;orthogonalLoop=1;jettySize=auto;html=1;entryX=0;entryY=0.5;entryDx=0;entryDy=0;endArrow=classicThin;endFill=1;" parent="1" source="fgCzt5P4TZWiUm7buIOH-122" target="fgCzt5P4TZWiUm7buIOH-105" edge="1">
          <mxGeometry relative="1" as="geometry" />
        </mxCell>
        <mxCell id="fgCzt5P4TZWiUm7buIOH-122" value="" style="shape=image;verticalLabelPosition=bottom;labelBackgroundColor=default;verticalAlign=top;aspect=fixed;imageAspect=0;image=https://cdn-icons-png.flaticon.com/128/9261/9261044.png;" parent="1" vertex="1">
          <mxGeometry x="640" y="846" width="25" height="25" as="geometry" />
        </mxCell>
        <mxCell id="fgCzt5P4TZWiUm7buIOH-123" value="+" style="text;html=1;strokeColor=none;fillColor=none;align=center;verticalAlign=middle;whiteSpace=wrap;rounded=0;" parent="1" vertex="1">
          <mxGeometry x="622" y="803.8299999999999" width="12.5" height="10" as="geometry" />
        </mxCell>
        <mxCell id="fgCzt5P4TZWiUm7buIOH-124" value="Historical&amp;nbsp;Multi-Modal Data" style="text;html=1;strokeColor=none;fillColor=none;align=center;verticalAlign=middle;whiteSpace=wrap;rounded=0;" parent="1" vertex="1">
          <mxGeometry x="544.5" y="883" width="90" height="22" as="geometry" />
        </mxCell>
        <mxCell id="fgCzt5P4TZWiUm7buIOH-126" value="Academic Paper" style="text;html=1;strokeColor=none;fillColor=none;align=center;verticalAlign=middle;whiteSpace=wrap;rounded=0;" parent="1" vertex="1">
          <mxGeometry x="634.5" y="881.5" width="59.63" height="22" as="geometry" />
        </mxCell>
        <mxCell id="fgCzt5P4TZWiUm7buIOH-127" style="edgeStyle=orthogonalEdgeStyle;rounded=0;orthogonalLoop=1;jettySize=auto;html=1;exitX=1;exitY=0.5;exitDx=0;exitDy=0;entryX=0;entryY=0.75;entryDx=0;entryDy=0;endArrow=classicThin;endFill=1;" parent="1" source="fgCzt5P4TZWiUm7buIOH-68" target="fgCzt5P4TZWiUm7buIOH-117" edge="1">
          <mxGeometry relative="1" as="geometry" />
        </mxCell>
        <mxCell id="fgCzt5P4TZWiUm7buIOH-138" value="Market Analyst" style="text;html=1;strokeColor=none;fillColor=none;align=center;verticalAlign=middle;whiteSpace=wrap;rounded=0;" parent="1" vertex="1">
          <mxGeometry x="800.77" y="732" width="33" height="20" as="geometry" />
        </mxCell>
        <mxCell id="fgCzt5P4TZWiUm7buIOH-139" value="Crypto Analyst" style="text;html=1;strokeColor=none;fillColor=none;align=center;verticalAlign=middle;whiteSpace=wrap;rounded=0;" parent="1" vertex="1">
          <mxGeometry x="794.16" y="783.46" width="43.46" height="20" as="geometry" />
        </mxCell>
        <mxCell id="fgCzt5P4TZWiUm7buIOH-151" value="Explanation" style="text;html=1;strokeColor=none;fillColor=none;align=center;verticalAlign=middle;whiteSpace=wrap;rounded=0;" parent="1" vertex="1">
          <mxGeometry x="956.1899999999999" y="877" width="59.63" height="22" as="geometry" />
        </mxCell>
        <mxCell id="fgCzt5P4TZWiUm7buIOH-167" value="" style="shape=image;verticalLabelPosition=bottom;labelBackgroundColor=default;verticalAlign=top;aspect=fixed;imageAspect=0;image=https://cdn-icons-png.flaticon.com/128/7188/7188022.png;" parent="1" vertex="1">
          <mxGeometry x="971.9999999999999" y="744.5" width="28" height="28" as="geometry" />
        </mxCell>
        <mxCell id="fgCzt5P4TZWiUm7buIOH-168" value="" style="shape=image;verticalLabelPosition=bottom;labelBackgroundColor=default;verticalAlign=top;aspect=fixed;imageAspect=0;image=https://cdn-icons-png.flaticon.com/128/7188/7188022.png;" parent="1" vertex="1">
          <mxGeometry x="972" y="793.83" width="28" height="28" as="geometry" />
        </mxCell>
        <mxCell id="fgCzt5P4TZWiUm7buIOH-169" value="" style="shape=image;verticalLabelPosition=bottom;labelBackgroundColor=default;verticalAlign=top;aspect=fixed;imageAspect=0;image=https://cdn-icons-png.flaticon.com/128/7188/7188022.png;" parent="1" vertex="1">
          <mxGeometry x="972" y="847" width="28" height="28" as="geometry" />
        </mxCell>
        <mxCell id="fgCzt5P4TZWiUm7buIOH-171" value="" style="shape=image;verticalLabelPosition=bottom;labelBackgroundColor=default;verticalAlign=top;aspect=fixed;imageAspect=0;image=data:image/png,iVBORw0KGgoAAAANSUhEUgAAAPoAAAD6CAYAAACI7Fo9AAAACXBIWXMAAA7EAAAOxAGVKw4bAAAIMUlEQVR4nO3dsYtlVx0H8DeSKvkbMkVAjOWmExdmFTKIqEWaxSVIwNkgLCSdAZEtthBit4ERyY4Ygqxsk0YJYQNmA2ObVGIkaDFpbZNKGEuF81ty3js39773vp9PeXj3vXNn+HLgy7n3HFyuLlfAfvva0hMAvnqCDgEEHQIIOgQQdAgg6BBA0CGAoEMAQYcAgg4BBB0CCDoEEHQIIOgQQNAhgKBDAEGHAIIOAQQdAgg6BBB0CCDoEEDQIYCgQwBBhwCCDgEEHQIIOgQQdAjwxNIT4MsdrA527sjby9XlwdJz4H+s6BBA0CGAoEMAQYcAB5ernet59sYulmxTU9rNw4oOAQQdAgg6BBB0CKCMm8lI8XZ4eLjx715cXGx8be/vjvxGRUE3PSs6BBB0CCDoEEDQIYAy7iswdfFWjZ2fn2/8fVV5NvK53mtHSjsF3RgrOgQQdAgg6BBA0CGAd8YNmrp46y3AevUWYCOfm7rwq1R/ZwVdPys6BBB0CCDoEEDQIYCdcYN6y7ipi7epHw0dMTLnkYJOGdfPig4BBB0CCDoEEHQIoIxbwxwHLgyVU//4UzP2RXHtk8Vv9H7u4Bs/7JrLyH2MUNDVrOgQQNAhgKBDAEGHAMq4NUxdxm178baLBZ0yrmZFhwCCDgEEHQIIOgRQxq1hjvfDVbapeNv2gk4ZV7OiQwBBhwCCDgEEHQIo49Yw9fvhKnevX1lvUv/n5OSkGZu6eDs7O9twdqvVqw8+7vqc98hNz4oOAQQdAgg6BBB0COA01QVVxVtVqPWqirLe7+st3kbmt1q139db0DHGig4BBB0CCDoEEHQIYGfcGqbeGff5+6fN2FPP39pgZo//vqlNPb/q++yMm54VHQIIOgQQdAgg6BBAGbeGN64/1/yxpt7Z9ejRo2bs2rVrzdjlZft/Ozhoe6iRgq4qynp/t/c+RlQ7C1958JEyrmBFhwCCDgEEHQIIOgTwmOpMend7HR0dNWOn//xRM1YVYHOofrea39Ez7X1U5jhhFSs6RBB0CCDoEEDQIYAybtAcj15WqgLsP7/4rBkbOcCh2nn2xK+e7p1il5FHekcOk0hjRYcAgg4BBB0CCDoE8JjqoKnfI/f3373WjD1740Yz9sn9++3nrl5txkZOTq0+98n5+cbz++ZPX2/GvB9uHlZ0CCDoEEDQIYCgQwBl3KDeMq5S7fbqLsAGirdeQwVd5/xGDoRQxvWzokMAQYcAgg4BBB0CeEx1QdUOsKo6q4qtSm/x9sbt283YK3fubPx91e62qnjzLrjlWNEhgKBDAEGHAIIOAeyMW8PILrhe1XvaTk5Ouq4d2QXXqyrZKtX73KY+ebZit1zNig4BBB0CCDoEEHQIoIxbQ1XGzXEaaFXQVY6Pj5uxan69qvt4+PBh17VTF2+9f2dlXM2KDgEEHQIIOgQQdAjgMdXHmGMX3NXi8dPz4v1rvcXW3eEZfbmRkq33fkdU/zcFnRUdIgg6BBB0CCDoEEAZtxo7EXVE7w66l77+Ytfn/v3Ll0em0+Wlj97s+txbn/6hGRvZMVi+X69zt5yCzooOEQQdAgg6BBB0CBBXxk1dvE1dMFWqx0+rXWa3X2gPZqg8/U5b2n32Ql/Jdqc46KHa3TZ1GddrjseGd5EVHQIIOgQQdAgg6BBgr98Zt03FW6+LP/6r63ersbKgK05O/fbPj5qxv/76w2ast3ir/n7l2I+facamNlLG7fNuOSs6BBB0CCDoEEDQIUDczrhtKt56C6v7t97uurb3/WvV6axVGddbvJXF4GvXNr52anbLWdEhgqBDAEGHAIIOAfamjBs5cGGpYqb3PWg3Tn/SjJ2//qgZq3bGVaef9t5v9X3VtdX8lirAev+maazoEEDQIYCgQwBBhwB7U8ZVliqEqgMXqt1o2/Qo59TKR2s7H8E9Oztrxqp30E1tnw96sKJDAEGHAIIOAQQdAux1GTdi6iKv91HOSrULbqndXuXjsdUuveox1c5HcJmeFR0CCDoEEHQIIOgQQBk3k+qRz9VpO1TtqttF1X1Uu9t6H61ljBUdAgg6BBB0CCDoEGCvy7il3gV35bm/NWPVqaa9hdXxxXEzNse99R4IUanuo7rf6u9S/f3e+nTjqbCyokMEQYcAgg4BBB0C7HUZt01Of/OtZuzJ6lHTH7RD5bvlOh9THdllVu7mK1TFYFW8/f7P15uxL8p3xrVlHGOs6BBA0CGAoEMAQYcAyrjHmHrnWfV9z3YWatWBBnOodq1NbakTVtNY0SGAoEMAQYcAgg4BDi5XzQGSO6k6CbNSnY7Ze+2Iu9evNGPVCatPPX+r6/vu3bs3PKep3Lx5s+tzn7/fviSvKhpfffDx8Jw2sS8np1as6BBA0CGAoEMAQYcAe1PGVaqSbakyrlIVdJWlyqkRS93byP9XGQfsNEGHAIIOAQQdAijj1riW7aeMq1nRIYCgQwBBhwCCDgH2uoyb2tQF3Tbt0ttFI8XqPhdvFSs6BBB0CCDoEEDQIYAybtBIeWaXXr+08mxqVnQIIOgQQNAhgKBDAKepDpq6UEsr3pRs87CiQwBBhwCCDgEEHQIo42ZSlU7fLYq378wwlw+KsTl+l+VY0SGAoEMAQYcAgg4BlHFb5s7PXt742ouLi2bs7N33mrHeYvDk+99rrj08PNx4frd/++bG1zLGig4BBB0CCDoEEHQI4J1xC6oKsDn8pbOMW2ouTM+KDgEEHQIIOgQQdAigjIMAVnQIIOgQQNAhgKBDAEGHAIIOAQQdAgg6BBB0CCDoEEDQIYCgQwBBhwCCDgH+C5NluP6jnBV0AAAAAElFTkSuQmCC;clipPath=inset(11.6% 20% 6.4% 19.2%);" parent="1" vertex="1">
          <mxGeometry x="1067" y="731.91" width="39.37" height="53.09" as="geometry" />
        </mxCell>
        <mxCell id="fgCzt5P4TZWiUm7buIOH-172" value="" style="shape=image;verticalLabelPosition=bottom;labelBackgroundColor=default;verticalAlign=top;aspect=fixed;imageAspect=0;image=data:image/png,iVBORw0KGgoAAAANSUhEUgAAAPoAAAD6CAYAAACI7Fo9AAAACXBIWXMAAA7EAAAOxAGVKw4bAAAH8UlEQVR4nO3dz4tkVxkG4KoQRslA/oFgb0YYstFkEMZFw4CYwU1AXThbIQVqD4zIgBoXHdKLRAMTycB0FEpwOy5EyEY74qoFV/nhJkZcFbhzFUjQIJRLxfOJZ+rerls97/MsD111T93m5cDLuffM17P1DHi4PTL1BICzJ+gQQNAhgKBDAEGHAIIOAQQdAgg6BBB0CCDoEEDQIYCgQwBBhwCCDgEEHQIIOgQQdAgg6BBA0CGAoEMAQYcAgg4BBB0CCDoEEHQIIOgQQNAhgKBDAEGHAI9OPQH+v+P9+bk78vbgdD2feg78mxUdAgg6BBB0CCDoEEAZN6Hekm2xWDRjF/b2Nr7ux6tVM7Yqxj69v7/x9x3P+n6b0m47rOgQQNAhgKBDAEGHAMq4Lekt3q5fv775RToLugvVR4uxqmS7UBR01fdVBWJV+FWlnYJufFZ0CCDoEEDQIYCgQ4D5enbunoDceVXxdnB01P5hVZ4VhVVVilXK3XK9O+g6r1uVcWPP+fjwsBlT0A1jRYcAgg4BBB0CCDoEsDNuoN4db385PW3GysdAi3Kq2nlWlV1DrlEpH13t+uT4yoJTQdfNig4BBB0CCDoEEHQIoIw7A9UuuEHl2dg6d7KdnJw0Y73zWy6XzVjvfake1a3mQj8rOgQQdAgg6BBA0CGAx1QfQO8uuN7SqSqsGHb/7JarWdEhgKBDAEGHAIIOAeyMG6g6qKB651nl6y/c2/i6jxWPmn5UFFZT/V2vn794sxlTXI7Pig4BBB0CCDoEEHQIoIwbqHqvWlXQDSmTdr14G7ugq+6VR1eHsaJDAEGHAIIOAQQdAijjzkBVJvXughtS2lUl4NiF2tjzq+5LtVuOYazoEEDQIYCgQwBBhwDeGfcAet8Zd7M9l2EyH765+aOwF5/ZnVLsXue5Ft4ZV7OiQwBBhwCCDgEEHQLYGTfQP594uhh9uxlZr6cpPefzzbupXZpzdZ8f/Wt7n6lZ0SGAoEMAQYcAgg4BlHEPoCqEqneZze63JdHHf/59M/b8T3/ZjB0cHDRjx8fHzdidO3easdu3b7dzKVS75apdcNX39V6393e8/I2v/s95/qf6nXFdH2VmRYcIgg4BBB0CCDoEUMYNtFe8a63Xl596ohm7dOlSM3blkeeasd7ibWzVdav5Vb+j+r29htxnrOgQQdAhgKBDAEGHAMq4M/DajXYH3Scuty89+8f7m79crirA9j7z62bs1Y2vUJdnqz9+aePvu3r1ajNW3Zfq/jGMFR0CCDoEEHQIIOgQwAEOA929caXrBlaPWT753I9Gn89/W7//xsafnV9+dsSZ1N772feasZPO509v3X/LYQ2drOgQQNAhgKBDAEGHAHbGDVQVQr0FXfXutseqxzGrsdWq5xKzu4eHXX9X6S7yOuf3UTG26vwdirdhrOgQQNAhgKBDAEGHAHbGbUlV0FW75ap3o5UFXXWNonj77Ld+3PXZyruvf6cZu3V01IxVJVulKt6qXXCKt/FZ0SGAoEMAQYcAgg4B7IzbknIH3axvB91isdj4uteuXdv4s+++3o71Fm/L5bLr7xRv22FFhwCCDgEEHQIIOgSwM+4cGPJeut73r439fUq23WJFhwCCDgEEHQIIOgRQxj1Eeku7IZRs55MVHQIIOgQQdAgg6BBAGbdj5rP5xv+Qp377izGnUnrni1/b+LPr2VqRNxErOgQQdAgg6BBA0CGAMm5CQ4q36qCH3pNJq9Kut2Qbct2Kgm47rOgQQNAhgKBDAEGHAA5w2DG9ZVc11vvZd05eHXUuY3+W8VnRIYCgQwBBhwCCDgHsjNuS3l1w2yixjv7eHsJw+Mn2sIYhhvwOu+XGZ0WHAIIOAQQdAgg6BLAzbscMKd56C7DT09NRv69iF9xusaJDAEGHAIIOAQQdAijjzsAu7YKr7O/vN2PtXrnx9f7e6v7ZLTeMFR0CCDoEEHQIIOgQQBk3obF3wW2D3XLnkxUdAgg6BBB0CCDoEEAZtyW95dnDXFi5B9OxokMAQYcAgg4BBB0CKOPOwEs3v9+M/eDeD0e9xjYKq7Gv0ft91f2b3Rt1KnGs6BBA0CGAoEMAQYcAyrgzcPFvv2nGyoLud0VB917fNYbsMustxUbfyfZkO/TSF9r7Ut2/2ezlvmtQsqJDAEGHAIIOAQQdAijjtuQrV9ozHZ6/9UYzNr/8bNf3ncedcetftb/3T8XJrifbOE0ijBUdAgg6BBB0CCDoEGC+nnUd/MlAd2+0bdxisWj+7uIzN/u+8LufHzyn0bzyh64/+/DN9lnT5XLZjN26/5aTU0dmRYcAgg4BBB0CCDoEUMZNqCroKt++//ZZT2V0r914uuvvFG/bYUWHAIIOAQQdAgg6BFDGnQPz2XzUf9J6tm4KsG1cg+lY0SGAoEMAQYcAgg4BBB0CCDoEEHQIIOgQQNAhgKBDAEGHAIIOAQQdAgg6BHCa6o4Z+3HRqVS/w6Or07GiQwBBhwCCDgEEHQIo4ybUW7zt7e01Y6vVqhn7yeMvNmPLD9rTSiufm32qGVs83p72+s0PXth4fgq66VjRIYCgQwBBhwCCDgGUcTumKrbOo96Cju2wokMAQYcAgg4BBB0COE11QlM9krqN01SHzIXxWdEhgKBDAEGHAIIOAZRxEMCKDgEEHQIIOgQQdAgg6BBA0CGAoEMAQYcAgg4BBB0CCDoEEHQIIOgQQNAhwL8A7VYi/CpYn4cAAAAASUVORK5CYII=;clipPath=inset(12% 27.6% 6% 30%);" parent="1" vertex="1">
          <mxGeometry x="1126.77" y="732.53" width="27.9" height="53.95" as="geometry" />
        </mxCell>
        <mxCell id="fgCzt5P4TZWiUm7buIOH-173" value="" style="shape=image;verticalLabelPosition=bottom;labelBackgroundColor=default;verticalAlign=top;aspect=fixed;imageAspect=0;image=data:image/png,iVBORw0KGgoAAAANSUhEUgAAAPoAAAD6CAYAAACI7Fo9AAAACXBIWXMAAA7EAAAOxAGVKw4bAAAKaUlEQVR4nO3dQYhdVx3H8fuiwTKCFklpgjgKbhKiEA2SBF/ILoItNo0LJVDSxXRRLROiCyc0SXFSmEEwsYNaIbOILYhFnImihQ4IKU5JqqSJtCFuBB2VJCSUoDCbQF43Wfn/Bf9557z35r3f97M83Df3zpv5ceDHOee2Ok2nATDa1g36AQD0HkEHDBB0wABBBwwQdMAAQQcMEHTAAEEHDBB0wABBBwwQdMAAQQcMEHTAAEEHDBB0wABBBwwQdMAAQQcMEHTAAEEHDBB0wABBBwwQdMAAQQcMEHTAAEEHDBB0wABBBwwQdMDAhwf9APj/5o492fNX3k6eWGzVvK/6eRgcZnTAAEEHDBB0wABBBwxQxq0xqgDbu3dv6rPj4+Pd37eJ952YmEh9dmVlJfXzFEq7/mBGBwwQdMAAQQcMEHTAAGVcn2RXmaniTZVsYwXF26ooz7LUfTeLMfXM2dKOgq4+ZnTAAEEHDBB0wABBBwy0Ok3Pd0Daya5uKynZVKGmyq4SS0tLYSy7Sk/JFnTqvhR0ZZjRAQMEHTBA0AEDBB0wwMq4QiXFm/LX5eWun6X2CjpVim1ut1OfzZaF6pnV98cKujLM6IABgg4YIOiAAYIOGKCM64Fs8ZZdyZYv2bLFW7xvduuqum5sPBZ06vnGm1g0Zgs6lGFGBwwQdMAAQQcMEHTAANtUH0DJyxWyWz7LirdcyTY/Py+f8X9NfuPZMDb32sthTL3oIfvMqyuxoFPPp74rtrPmMaMDBgg6YICgAwYIOmCAlXE9ULt4mzt+vM6D3XNg12NhbIO47y1R5MmCbj4WdMrk9HQYU79vtnhDHjM6YICgAwYIOmCAoAMGKOMK9aN4UwWYKsqyhVrt67LPJ383UdBlz6WjoMtjRgcMEHTAAEEHDBB0wABl3ACpcmr1yrUwNiuumxIl1qAKOvV8WdmCDmWY0QEDBB0wQNABAwQdMEAZdx/qfDglu6VSnaumqOvUGWqqAFOfVYWakr0uW7xlf99fnP996jqUYUYHDBB0wABBBwwQdMAAZVzTNLP7d4bibazZFK7LvqxBUW8NVSvA1EqxIwtvd33fbCmmqBIw+yzqupeO7Qtj6jtQL53IbklVf0tlauGC1YsemNEBAwQdMEDQAQMEHTBAGVeo5My4Ep1O7JxardgvlZRxqlDL3vfcuXNh7C9/+FHqvqq4zMquLHTDjA4YIOiAAYIOGCDogAHKuEavkppt4gqrpSa3OksVb9lCaHJ6MYwdnL8exlQB1g/qvrc3xXPuPr5nYxg7P/e9MKZWAmYLxPYnPx/G1PfstgpOYUYHDBB0wABBBwwQdMAAZdx9ZAu6sa1xO6sqhA7seqzWozVNowuwl3fFbaAlL2aY2b8jjD17/mz2EYNsyZb9/ije8pjRAQMEHTBA0AEDBB0w0Oo0qSO20ORf6qDeiJrdurqh3e7iye4p2N6ZVrDd9tbychhTW1Kz58NRvOUxowMGCDpggKADBgg6YICVcYVUyXb2ys+7/4GqUBMF2OzTT3d/j8qmzpyJg5WLQbUCsVmoeouRxowOGCDogAGCDhgg6IAByrj7UKvgstss9x0+GMbOnooFXfbtrBtSVzXN1K8vJK/s3uzXd4YxteJNya6CU9+fWkU418S/0eSJRVbLCczogAGCDhgg6IABgg4YoIxryoq3LLWyK7sdM/ss/33xxQd6pl7KvrAiW7yNiTH1vVDQaczogAGCDhgg6IABgg4YsDszLlu8qfJnVazsKjnzLEudQad8+wuPV72v8pNLv0tdJ7eVJmXP18v+jVQx6FbQMaMDBgg6YICgAwYIOmBgpMu4YSzelEMPX05dN/PWoz1+kqY58uUbqeteur2t6n0p6MowowMGCDpggKADBgg6YGBktqkOqnhTJVG2oFOf3fKnH4Sx7Zf/HcYuvnonjE28/nzqviWOfPWZMLb9qfVh7JDo4rIFXfY7VddtLnjb6yhjRgcMEHTAAEEHDBB0wMDIlHFZ/Sjesi9m2LL7W3Hwh58JQ3d//EIYe+KVWDo9cvJ4/Hnf/XsYuvn66fhZUbKpZ3mi80oYW/mPeHOqWHl26MTZMHb1jz8NYyXfqfr7ghkdsEDQAQMEHTBA0AEDQ1nGlbxwoaR4U7LXpYnyrKn7Lonm5IHcVtMi6vdIql16um1JVZjRAQMEHTBA0AEDBB0wMJRlXG3VCzVBroJLWvfc98PYv8R1T4otmoviuunpuJ11ZvJo/Hnvfyh++Gh8lnUFq9HU96JWy2XPjIPGjA4YIOiAAYIOGCDogIGRKePUirdhLGvUM198Nf5u6py2rOXlP3f9WfU9q/PrBoVVcBozOmCAoAMGCDpggKADBoayjFPlylwTt64OajXVRz/9eOo69Syq7JLnyIltuXc/Jn63T8Rz5NrrvxSv2yHu8Z14Vt1ddT7ctliAqW2q2d83u1oOeczogAGCDhgg6IABgg4YGMoyTskWdLX1Y4sr8tTZger/wG21HDM6YICgAwYIOmCAoAMGWp2m533VSFMvk1BvDa3tkT25626+GcfuzMW/+frJ2E2V3KO27Mq47MpHtZ01axiLPGZ0wABBBwwQdMAAQQcMjMzKuLUuWxLJbary58Uz49Q9Ft/8W+rnKe32Z8OYer6bTe7MuNrfQfaz6r7Zt+8qw7jSjhkdMEDQAQMEHTBA0AEDlHEPQK2CU6XO6pVrYezIwtvd37jymXErKzdy96h8Zly2ZJvZvyN1XVa+4MyVhcO4FZYZHTBA0AEDBB0wQNABA5RxhcaSBc7Fnx0LY19st8NY63NfSf28S2Kb5aXUJ/N+czIWeSU6770Rxt5ZXg5jS0tLVe+blV1Vp/7ma72gY0YHDBB0wABBBwwQdMAAZVwPTJ6Kxdvc4RNhLP1m1+SbSRVVMM0/LFay3a57D+WWuE4Vb/sOH0z9vH6QBZ24LlvKDgozOmCAoAMGCDpggKADBijjCq0miyhVMM2f6v4lAiXnqs089G7P76GolyaMbd0UxrIr43iTbR4zOmCAoAMGCDpggKADBijjCmW3NiqqoMueLVeyau3qr+JrUrfsfq3qPZSphQtxi+ZC6qOS2gaaVbvIy5ayg8KMDhgg6IABgg4YIOiAAcq4B6DO+1KFkCp60ltSk0pWrWVXntVeGVdbyflr2b9bllr1xwscAPQVQQcMEHTAAEEHDLQ6TdeLi3Af6q2rJQ6d/kgY+5p4YYAqzy6L4q1z/ZehJGpt/GZ45m3JUvG3oohS91jr1N8tW6xSxgEYOIIOGCDogAGCDhigjFtjVClWW7aM68d9B2WUizeFGR0wQNABAwQdMEDQAQOUcQPU+lQrfPmtia3hupKz2zrzV+LYPzuxjFtDz1Ki9qpEZa0XbwozOmCAoAMGCDpggKADBjgzbo2pfbbcoKjf4x9NLONqG8airB+Y0QEDBB0wQNABAwQdMMDKuAFSq9H6IbsyblDPgvqY0QEDBB0wQNABAwQdMEAZBxhgRgcMEHTAAEEHDBB0wABBBwwQdMAAQQcMEHTAAEEHDBB0wABBBwwQdMAAQQcMEHTAwAdte1m6enZhSAAAAABJRU5ErkJggg==;clipPath=inset(11.6% 11.6% 5.6% 18.8%);" parent="1" vertex="1">
          <mxGeometry x="1115.77" y="831.69" width="49.59" height="59" as="geometry" />
        </mxCell>
        <mxCell id="fgCzt5P4TZWiUm7buIOH-174" value="" style="shape=image;verticalLabelPosition=bottom;labelBackgroundColor=default;verticalAlign=top;aspect=fixed;imageAspect=0;image=data:image/png,iVBORw0KGgoAAAANSUhEUgAAAPoAAAD6CAYAAACI7Fo9AAAACXBIWXMAAA7EAAAOxAGVKw4bAAAJEUlEQVR4nO3dTYidVx0G8PeKgbrQohg/0A5CQAWRFlO01IGkELKIQrEuGkQ3ZQLd6EI3CWKFijYbu1AXlYwu2k1dGBFswbFgCkOp0jQiCBooyDQiaVz4sVAIZFy6OP/oyZw79974/H7LQ+a+977w5MDD+ZjtTrsT8P/tTcv+AsD+E3QIIOgQQNAhgKBDAEGHAIIOAQQdAgg6BBB0CCDoEEDQIYCgQwBBhwCCDgEEHQIIOgQQdAgg6BBA0CGAoEMAQYcAgg4BBB0CCDoEEHQIIOgQQNAhgKBDgDcv+wvwv82m2W135e3utDtb9nfgP8zoEEDQIYCgQwBBhwDKuCXqLdk++P4Dzdja2tqen7uzs9OOXbnejK3ff2jPnze70vfblHaLYUaHAIIOAQQdAgg6BJjtTrfdoqvb0rJWtz1y8oFmrCzjirHLRUE34o5i7F/FmIJu/szoEEDQIYCgQwBBhwDKuH0wUrwd61yNVukt1KqC7ofP/rIZm/eKvBdeem3Pf6ugG2NGhwCCDgEEHQIIOgRQxg3qLd6qAmxE7+q2SlXQVcVbpSrjRgq6SlUMVhR0/czoEEDQIYCgQwBBhwDKuEFVGde7NbQqsap/t12sKKu2d1aqkq23jOvdplptP63Om+v9vdW/qwo6ZVw/MzoEEHQIIOgQQNAhgDLuFqx68bZKFHSrxYwOAQQdAgg6BBB0COA21SWqSqeqeLv2/Llm7J1FOfWX4vOW9e8OnjjVjPWWbMyfGR0CCDoEEHQIIOgQwMq4m6hWwY1crlCpLjS4HYu3kYJuEe/UajkzOkQQdAgg6BBA0CGAMu4mqjJu5HbR8sKF4ky2amXcEw99ohk7/fjjzdiyirezjz3WjJ05/6tmrNq6ujbnd1qdc6eMM6NDBEGHAIIOAQQdAijjbsFIQTdSxlWr5TY3N5uxjY2N4q/nq/e51Sq4kTJO8TbGjA4BBB0CCDoEEHQIoIybpunsQ/d1vYSR1V69xduIagXdSEFXFW/VOxgx7/dXvYPK6fMvR5V2ZnQIIOgQQNAhgKBDABc43ERVYvUWUdXKrstX2rPMKhcuXGjGjh492ozt7rb94WzW9ksjZVz1e3uf2/s7qkKtXBnX+f6q31uVimnM6BBA0CGAoEMAQYcAyripXiU1O99uSX3k5ANdn1dtqex15MiRZuyv7/1zM1YVYItQPbf6fnceec9cn/u5zndfbY+1ddWMDhEEHQIIOgQQdAigjBvUW7xVZ8tVZ571qgqwyp1rv23Gei9m6H3GiOq9VKr33HvRA2Z0iCDoEEDQIYCgQwBnxt1EdVlD5dj9h5qx3oJu5By5Zd2w2ntzaqX3fLhKVby98FLf1lUr48zoEEHQIYCgQwBBhwDKuJvovTl1ZHVb7+ddfOprzdjH1tebsd5CrVfv5726vd2MHX70G83Yst6fMs6MDhEEHQIIOgQQdAhgm+qgarVXtbptZAVdVbxVFnFRQbX6bmS7aPVeqhVv1XumnxkdAgg6BBB0CCDoEEAZtyBV8Vat4qq2n1Yr1Kri7fSPX97jt+t39rP3NWPVDabV76i3s+79sgv6mdEhgKBDAEGHAIIOAZRx+2BkO2bv+WuVV7/fnue2CFUx2Ps7qvdSvb/qfD36mdEhgKBDAEGHAIIOAZRxg3ovXOjdZll93plPXu37462tzqfsXfd3Od8OjWw17X3P1MzoEEDQIYCgQwBBhwAucLgF1aUO1eUAvTexlufNffsDzdjh3/ypGbv4TLtS7Nrz53oeO+TgiVPN2OEvtCvZLt7zvmbsjq/8sRnrLdl637PLGmpmdAgg6BBA0CGAoEMAK+MWZKS0u/G9rzdjDz7dXppw8Mlim2pRgFWlXVWyTUUx+ODu083Yzt+Lc9+KratV8TbyXuhnRocAgg4BBB0CCDoEUMbdgt5VV0Ors4rybGrvRxjygxOX5/uBlep3dFrIew5jRocAgg4BBB0CCDoEsE11QUZWe1XbQCtra+1quZ9887VmbPfUP5ux2bm3NGOf+eqhrudWN8VW22h7Kdnmz4wOAQQdAgg6BBB0CGBl3IqpCrWLz7RlV29BV7m0vb3nv5138cZimNEhgKBDAEGHAIIOAZRx+6B3FVxVvFVlV3V2242Ndu/qjbe1nze9oz1H7qMHjrX/7nrxjC+3Z9XdqM6Hu6c9H67aptr7e13MMH9mdAgg6BBA0CGAoEMAQYcAgg4BBB0CCDoEEHQI4My4fbCI20APHun7d9debMeuf6f9ege+1C48G3nGvFkZN8aMDgEEHQIIOgQQdAhgm+qCVFs0K+U21fLz2jPjygscXmwvcOi1vt5e4FB9v2tT35lx834H9DOjQwBBhwCCDgEEHQIo4/bBu6YPNWM7O3/Y+wfO+cy4vz13ue8Zcz4zrrdkq94fY8zoEEDQIYCgQwBBhwDKuAX5/PTFZmz93vVm7NFXHu76vEubbQF26da/1n/10yfbIm/EU/f+qBnbfqW92XVr2prrczGjQwRBhwCCDgEEHQIo4/bB1en3zflm754+3BzUtrbTt22z92bSSrUabXMqVrL9fL7P6P13VfFWvT/GmNEhgKBDAEGHAIIOAVzgsERVQffGNLCdtdOnpo83Y89Nv97351bbTxVvi2FGhwCCDgEEHQIIOgRQxq2Y3ptYR1atVTeTVs+d98o4N6IujxkdAgg6BBB0CCDoEEAZt2J6y7gRvWXcIp7LYpjRIYCgQwBBhwCCDgGcGbdiyqLsrrYom218pP3baoXa1j/asdeLB99VjB1/azM0K1bL7W7+rh17XfG2SszoEEDQIYCgQwBBhwDKuBVz8tNPNMXbLzbe6PrbnbcXFyRcLW4mLcq4h+/+VjN2/O7jzVi5dfW77dDJzfZ3PPuzMwq6JTGjQwBBhwCCDgEEHQLYprpEvSvehs6H61y1tkrfhfkzo0MAQYcAgg4BBB0CKOOW6HRxTtvxOf/fuzXdaMbOFlthV+m7MH9mdAgg6BBA0CGAoEMA21RXTFVYLcsqfRfGmNEhgKBDAEGHAIIOAayMgwBmdAgg6BBA0CGAoEMAQYcAgg4BBB0CCDoEEHQIIOgQQNAhgKBDAEGHAIIOAf4NqT3J2zWIoqEAAAAASUVORK5CYII=;clipPath=inset(10.8% 24.8% 5.6% 25.2%);" parent="1" vertex="1">
          <mxGeometry x="1071.9099999999999" y="834.19" width="32.29" height="54" as="geometry" />
        </mxCell>
        <mxCell id="fgCzt5P4TZWiUm7buIOH-175" style="edgeStyle=orthogonalEdgeStyle;rounded=0;orthogonalLoop=1;jettySize=auto;html=1;exitX=0;exitY=0.5;exitDx=0;exitDy=0;entryX=1;entryY=0.5;entryDx=0;entryDy=0;dashed=1;endArrow=none;endFill=0;" parent="1" source="fgCzt5P4TZWiUm7buIOH-170" target="fgCzt5P4TZWiUm7buIOH-170" edge="1">
          <mxGeometry relative="1" as="geometry">
            <Array as="points">
              <mxPoint x="1110" y="818" />
              <mxPoint x="1110" y="818" />
            </Array>
          </mxGeometry>
        </mxCell>
        <mxCell id="fgCzt5P4TZWiUm7buIOH-176" value="&lt;b&gt;Crypto Team&lt;/b&gt;" style="text;html=1;strokeColor=none;fillColor=default;align=center;verticalAlign=middle;whiteSpace=wrap;rounded=0;labelBackgroundColor=#FFFFFF;" parent="1" vertex="1">
          <mxGeometry x="1073.55" y="910" width="81.12" height="10" as="geometry" />
        </mxCell>
        <mxCell id="fgCzt5P4TZWiUm7buIOH-177" value="&lt;b&gt;Market Team&lt;/b&gt;" style="text;html=1;strokeColor=none;fillColor=default;align=center;verticalAlign=middle;whiteSpace=wrap;rounded=0;labelBackgroundColor=#FFFFFF;" parent="1" vertex="1">
          <mxGeometry x="1073.55" y="715" width="81.12" height="10" as="geometry" />
        </mxCell>
        <mxCell id="fgCzt5P4TZWiUm7buIOH-193" value="Fine-Tuning" style="text;html=1;strokeColor=none;fillColor=none;align=center;verticalAlign=middle;whiteSpace=wrap;rounded=0;" parent="1" vertex="1">
          <mxGeometry x="1031.91" y="774.66" width="40" height="22" as="geometry" />
        </mxCell>
        <mxCell id="HFMLCY8LKGdPsLyM4RTW-4" value="&lt;p style=&quot;line-height: 100%;&quot;&gt;News Expert&lt;/p&gt;" style="text;html=1;strokeColor=none;fillColor=none;align=center;verticalAlign=middle;whiteSpace=wrap;rounded=0;" parent="1" vertex="1">
          <mxGeometry x="1073.3700000000003" y="784.83" width="33" height="20" as="geometry" />
        </mxCell>
        <mxCell id="HFMLCY8LKGdPsLyM4RTW-6" value="&lt;p style=&quot;line-height: 110%;&quot;&gt;Market Factors Expert&lt;/p&gt;" style="text;html=1;strokeColor=none;fillColor=none;align=center;verticalAlign=middle;whiteSpace=wrap;rounded=0;" parent="1" vertex="1">
          <mxGeometry x="1160.2900000000002" y="746.5" width="33" height="20" as="geometry" />
        </mxCell>
        <mxCell id="HFMLCY8LKGdPsLyM4RTW-7" value="&lt;p style=&quot;line-height: 110%;&quot;&gt;Crypto Factors Expert&lt;/p&gt;" style="text;html=1;strokeColor=none;fillColor=none;align=center;verticalAlign=middle;whiteSpace=wrap;rounded=0;" parent="1" vertex="1">
          <mxGeometry x="1160.2900000000002" y="837" width="33" height="20" as="geometry" />
        </mxCell>
        <mxCell id="HFMLCY8LKGdPsLyM4RTW-8" value="&lt;p style=&quot;line-height: 100%;&quot;&gt;Technical Expert&lt;/p&gt;" style="text;html=1;strokeColor=none;fillColor=none;align=center;verticalAlign=middle;whiteSpace=wrap;rounded=0;" parent="1" vertex="1">
          <mxGeometry x="1073.3700000000003" y="888.19" width="33" height="20" as="geometry" />
        </mxCell>
        <mxCell id="ZE1h9BG7geVj5wyi6m1N-14" style="edgeStyle=orthogonalEdgeStyle;rounded=0;orthogonalLoop=1;jettySize=auto;html=1;entryX=0;entryY=0.25;entryDx=0;entryDy=0;" parent="1" source="ZE1h9BG7geVj5wyi6m1N-13" target="fgCzt5P4TZWiUm7buIOH-59" edge="1">
          <mxGeometry relative="1" as="geometry" />
        </mxCell>
        <mxCell id="ZE1h9BG7geVj5wyi6m1N-13" value="Prompt" style="rounded=1;whiteSpace=wrap;html=1;strokeColor=none;" parent="1" vertex="1">
          <mxGeometry x="166" y="752" width="52" height="20" as="geometry" />
        </mxCell>
        <mxCell id="ZE1h9BG7geVj5wyi6m1N-21" style="edgeStyle=orthogonalEdgeStyle;rounded=1;orthogonalLoop=1;jettySize=auto;html=1;exitX=0.5;exitY=1;exitDx=0;exitDy=0;entryX=0;entryY=0.75;entryDx=0;entryDy=0;curved=0;" parent="1" source="ZE1h9BG7geVj5wyi6m1N-15" target="fgCzt5P4TZWiUm7buIOH-96" edge="1">
          <mxGeometry relative="1" as="geometry" />
        </mxCell>
        <mxCell id="ZE1h9BG7geVj5wyi6m1N-15" value="Prompt" style="rounded=1;whiteSpace=wrap;html=1;strokeColor=none;" parent="1" vertex="1">
          <mxGeometry x="435.25" y="819" width="52" height="20" as="geometry" />
        </mxCell>
        <mxCell id="XoGl2x5tU3r6ecWaeNb8-2" value="Prompt" style="text;html=1;strokeColor=none;fillColor=none;align=center;verticalAlign=middle;whiteSpace=wrap;rounded=0;" parent="1" vertex="1">
          <mxGeometry x="717.75" y="740" width="46.38" height="20" as="geometry" />
        </mxCell>
        <mxCell id="XoGl2x5tU3r6ecWaeNb8-3" value="Prompt" style="text;html=1;strokeColor=none;fillColor=none;align=center;verticalAlign=middle;whiteSpace=wrap;rounded=0;" parent="1" vertex="1">
          <mxGeometry x="717.75" y="792.5" width="46.38" height="20" as="geometry" />
        </mxCell>
        <mxCell id="XoGl2x5tU3r6ecWaeNb8-4" value="Prompt" style="text;html=1;strokeColor=none;fillColor=none;align=center;verticalAlign=middle;whiteSpace=wrap;rounded=0;" parent="1" vertex="1">
          <mxGeometry x="717.75" y="839" width="46.38" height="20" as="geometry" />
        </mxCell>
        <mxCell id="KsrdHVBfr6KVUB-R_dGB-1" value="+" style="text;html=1;strokeColor=none;fillColor=none;align=center;verticalAlign=middle;whiteSpace=wrap;rounded=0;" parent="1" vertex="1">
          <mxGeometry x="622" y="754.4999999999999" width="12.5" height="10" as="geometry" />
        </mxCell>
        <mxCell id="KsrdHVBfr6KVUB-R_dGB-2" value="+" style="text;html=1;strokeColor=none;fillColor=none;align=center;verticalAlign=middle;whiteSpace=wrap;rounded=0;" parent="1" vertex="1">
          <mxGeometry x="622" y="853.4999999999999" width="12.5" height="10" as="geometry" />
        </mxCell>
        <mxCell id="KsrdHVBfr6KVUB-R_dGB-6" value="Historical&amp;nbsp;Multi-Modal Data" style="text;html=1;strokeColor=none;fillColor=none;align=center;verticalAlign=middle;whiteSpace=wrap;rounded=0;" parent="1" vertex="1">
          <mxGeometry x="864.3800000000001" y="875" width="90" height="22" as="geometry" />
        </mxCell>
        <mxCell id="KsrdHVBfr6KVUB-R_dGB-7" value="" style="shape=image;verticalLabelPosition=bottom;labelBackgroundColor=default;verticalAlign=top;aspect=fixed;imageAspect=0;image=data:image/png,iVBORw0KGgoAAAANSUhEUgAAAgAAAAIACAYAAAD0eNT6AAAABHNCSVQICAgIfAhkiAAAAAlwSFlzAAAOxAAADsQBlSsOGwAAABl0RVh0U29mdHdhcmUAd3d3Lmlua3NjYXBlLm9yZ5vuPBoAACAASURBVHic7d15vGVVdeDxXwFFUYhMIjIJahSNKGqMEyLOU9TExI5xRqPEbjVqYqKxTT6dWWM0jnHWoDGtBDWJGlBR1IjzAFFEBUQEcQBkkAKkoOr1H+dV+3jUfe++u9c56+y7f9/PZ39i94d71lpnqLPevufuA5IkSZIkSZIkSZIkSZIkSZIkSZIkSZIkSZIkSZIkSZIkSZIkSZIkSZIkSZIkSZIkabl1PWzzjsAzgAcCtwBu1EMMSWrBlcC5wEnAW4EzUrPRXIlsADYArwKeCewQuF1JEmwB3gi8ANicnIvmQFQDsAE4Ebh/0PYkSdv3KeBRwKbkPFS5qL/UX403f0kawv3o/uDaLTkPVS5iBuCOwGk47S9JQzoFeDjOBGhGETftZwRtR5I0vSOBjwI3zk5EdYq4cT8oYBuSpLU7AjgBvw7QDCK+ArgCTz5JyvQ54GF0/x5LU4loABYCtiFJKmMToDXxu3tJmg9HAB/BZwI0JRsASZofNgGamg2AJM0XmwBNxQZAkuaPTYBWZQMgSfPJJkArsgGQpPllE6CJbAAkab7ZBGi7xrAOQOQriSWpJq6jMm5XAucCHwfeBpyemk0wGwBJymMDUI8twJuAPwQ2J+cSwgZAkvLYANTnZLq3MFbfBPgMgCRJ03sA8MrsJCI4AyBJeZwBqNMW4E7AN7MTKeEMgCRJa7Mj8PTsJErZAEiStHYPzk6glF8BSFIevwKo1xXA7tlJlLABkKQ8NgB1q/r+5VcAkiQ1yAZAkqQG2QBIUr1OyU5A9bIBkKR6PQz4VHYSqpMNgCTV60rgkdgEaAY2AJJUN5sAzcQGQJLqZxOgFAuFIzv+LONjAXlPq8X9W1N9tRtb/XcEXkP33vVNAfm1dv7dCPhkT7V+FrhxQM1jkn38q5e9AzMu+i3AwQG5T6PF/VtTfbUbS/0bgDfQXVvZ51Tt559NwPSyj3/1sndg1oX/koDcp9Hq/q2lvtqNof4NdO9Yzz6X5un8swmYTvbxr172Dsy68M9kmGUgW92/tdRXuzHU/8aAPDz/bsgmYHXZx7962Tsw8+K/d0D+fdeXHb/vkV1f7bLrvyP1TfvXdP7ZBKws+/in8lcAZY7OTkCq3DPw36E+9fnrgCOAj1B/E9CseXgbYGYX9jNgf+CqHmO0vH+nkV1f1W8DI7/+bwK3L9xGplrOvxsBHwbuVxhvez5HtyLhFT1su2/Z538qO+8yuwO/mZ2EVLGhfk3TOmcCdAM2AOX8GkCa3W7ZCTTkSuBR9PMCoSOAE2jvePb9jMkmujUxXg3cYaCa1iT7IYq+D8Bqo+81AVrfv2Ovr3bZ9WefP7XXP4vdgM8ExN7e+Ax1NQHZ589axnXA64Gdo4p3BqDcDsCTs5OQpCltAh5OPzMBRwInUlcTUIsdgWfT7d+wJqBU7R10xOhzTQD377jrq112/dnnT+31l3AmIP/8mXW8LqJ4fwUQ50i638VGc/+uLLu+qp8CJr/+sZ9fq8muvzT+bnR/UR5ZuJ3tOYVupmFTD9uOUuv5twW4E92vaGbmVwBxjs5OQJLWaBPdT/g+1cO2jwQ+ir8O6MOOwNNLN+IMQJy+1gRw/64suz5nAHLjZ8uuP+r8a3UmoObz73S6lTRn5gxAHNcEkFQrZwLqc0h2AjA/D9E8MWBbHwuop6/6ao3ft3mvbzXZ9WfHzza2+lt7d0AfdQ450mUXEBV/I3Bp4bb6WBNgXvbvWM17favJrj87frYx1t9SE9BHjUOOIn4F8AtXA8cXbsM1ASTVzmWDNbXsDjYy/r0Dthe9JsA87d8xmvf6VpNdf3b8bGOuv4WZgD5qG3Kkyy4gOv63ArZ574C6+qqvtvh9m/f6VpNdf3b8bGOvf96bgD7qGnIU8SuAG3p3wDaODtiGJGXz6wCtKLuDjY5/IN1LF0q2eTmwa0BtfdRXW/y+zXt9q8muPzt+tlrqn9eZgD7qGXIUcQbghi4ATi7chmsCSJonzgTMIRuA7XtnwDaODtiG2nNX4M3AWcDmxXEW8CbgVxLzkmwCbmhd4ahe9hRWH/HHtCbAPO7fMRlLfbsCbwO2rhBrK/BWuvMzSnb92fGz1Vj/PH0dkL3/s+MXyy6gr/hvCdj2S0ZcXy3x+zaG+nalWy992pifJq4JyK4/O362WuuflyYge/9nxy+WXUBf8ceyJsC87t+xGEN9b5sh7puDYmfXnx0/W831z0MTkL3/s+MXyy6gz/hjWBNgnvfvGGTXdydWnvafNLYufrZUdv3Z8bPVXn/tTUD2/k+N70OAK3NNAPXt+cw2S7QOeF5wLtJa+WBg4+a5gxrDmgDzvH/HILO+Pej+AZ019lXAXoU5ZB/f7PjZ5qX+WmcCsvd/anxnAFbmmgDq01Moaw430r3GWsrmTECj5r2DemJAjI+NuL6+4/c9susrcWpA/K8X5lD7/u97bAJOB14N3CGg3uj6x6a2mYDs/Z8dv1h2AX3Hz14ToPb92/fIrm9W9wqIvW3csyCP2vf/kOM64PXAzgF1R9U/RjU1Adn7PzW+XwGs7mrg+MJt7AA8OSAXzY/fG+m2NNmOwLOBE4ltAuaNXwc0pIUOKnNNgNr3b98ju75ZlD78t3yUPAxY+/7PGq8LqD2i/jGrYSYge/9nxy+WXcBQ8bPWBKh9//Y9suubxXMC4i4fz54xl9r3f9a4DjhsBPWP3dibgOz9nxrfrwCm55oAivL0Hrb5zB62qcl2pJ/jOG/8OmDOtdJBZa0JUPv+7Xtk17dWkQ//LR+zPAxY+/7PHN8YQf21GOtMQPb+T43vDMD0XBNAEfp8YM+HAYd1SHYCFXEmYE611EFlrAlQ+/7te2TXtxbRD/8tH7M8DJi9/38WkIPnXz3GNhOQvf9T4zsDsDYfAC4r3MYDmX1NANXtyZSt/LeajcATetx+H87PTkCDciZgRGwA1sY1AVRiiIfGavsa4KTsBDQ4m4A50toUytBrAtS+f/se2fVNq8+H/5aPtTwMmL3/70D5w7Wef3Uaw9cB2fs/O36x7AIy4g+5JkDt+7fvkV3ftN4REGva8fYR1r+S1wfk4flXp+wmIHv/Z8cvll1ARvyXBMR9y4jri4zf98iubxp70L1UZqh9spaHAbP3P3TL6n48IBfPvzplNgHZ+z87frHsAjLiD7kmQO37t++RXd80+lj5b7Ux7cqA2ft/m53pltet7euAUtnxxyKrCcje/9nxi2UXkBX/YwGxp3mXe+37t++RXd80Il77u9bx3yOqfy0OA/6BbpGdKwLy8/yrR0YTkL3/s+MXyy4gK/5QawK0un+H0nd99wyIMeu4xwjqH7vs+rPjj83QTUD2/s+OXyy7gKz4G4FLC2NvYfU1AVrdv0Ppu74hH/5bPqZ5GHDej+9qsuvPjj9GQzYB2fs/O36x7AIy478lIP5LRlzfGOL3rc/6hn74b/m4Ctgzsf4aZNefHX+shmoCsvd/anwXAirzzoBtHM30awKoLk+i+4csS40rA0rgYkHVaLqDov81AbLry47ftz7ry3j4b/lY7WHAeT++q8muPzv+2O0GfIZ+ro2I7ZZKje8MQLl3B2zj6IBtaFzuAdy5cBtXLo4ShzPdw4DSGG0CHkY/MwFH9rDNqtgAlDuW7mG+Er9Dvy+J0fCeGbCN9wLHBWyntvcDSEv1+XWACjU9hbKozzUBsuvLjt+3PuqLevjv7nR/vZduZ6WHAef9+K4mu/7s+DXp88HAJo+/MwAxoh4G1HyIePjv68CXgC/SPUtQwocBNQ+cCRihpjuoRX2uCZBdX3b8vvVR39cCtvusJdt7dsD2Jj0MOO/HdzXZ9WfHr9GYZgJKZccvll1Advxt+loTILu+7Ph9i64vYuW/5VP2UV8pbO9hwHk/vqvJrj87fq3G0gSUSo3vVwBxXBNAAMcEbOM9wGVL/t+XA/8asN2I3KQx8OuAkWi6g1qmjzUBsuvLjt+3yPr6/Es9YmbhSm74MOC8H9/VZNefHb922TMBpVLjOwMQyzUB2hb18N8Xt/P//wXgtMJt74oPA2q+OBOQrOkOapkDKX+f+eVcf02A7Pqy4/ctsr7oh/+W6+NhwHk/vqvJrj87/rzImgkolR2/WHYB2fGXi14TILu+7Ph9i6qv79/rQ+z6AtH11yq7/uz48ySjCSiVGj/igbPSJEpzyI6/3BOJ+SogSvb+7ds81fcO4OlT/DdPGyCXac3T/p9F6/W3Lvv4F8W3AYhvADYCP2T117AOJXv/9m2e6rsX3Xf9q/03nxsgl2nN0/6fRev1ty77+BfF9yHAeFcDx2cnoep8ndVv/gCfp/xhQEmyAehJxJoAastb1vDfvr23LCQ1w68A+lt451vA7Xra9lpk79++zUN9V9P9guTSKf/7Pei+ZhrDGyTnYf+XaL3+1mUff78CGKkxPQiocXsv09/8IW5lQEkNswHoz7F0L/iRVrOW6f+Sz0jS/2cD0J8LgJOzk9DofYPpHv5bzocBJRWxAeiXDwOO36bk+CV/yb8jLIvZ/Cw5fraI+q8I2IY0ExuAfn2A67/VTeNzXmLsqyh7VuSfF7eRJXPfjUFE/ecHbEOaiQ1Av1wTYPw+lhj7OMoaxMvIfRgwc9+NQUT9JwVsQ0rT9FrKU7h3QI4179+x13d7yl/gNMvYChwekP/hi9saOv/rFvddqezzJ7v+O5Bz/jliRqnU+M4A9O+zwLezk9BEZwBvTIj7JrrV/0p9nZxfBPwj3b5rVVT9p9OdC1KVmu6gpvSSgDxr3b9jrw9gZ+DjA+b8Cbp3RkTZyLBvQTsJWB+Ue/b5k10/DH/+OeJGqez4xbILyI4/jQPJm+YrlX2BDXX8dgZeR7/HaQvdX44bAvPeZhfgDYsx+sr/OuA1xN78ss+f7Pq3GeL8c8SPUtnxi2UXkB1/Wh8LyLXG/Tv2+pY7DHgV3e/zNwXkdyXdVPHrgDv2kO9yhwOvX4x5ZUD+V9Dti1cS8533ctnnT3b9yx0G/MNizCsGqM9RNkqlxp+HdwFIkjSL7PtXanwfApQkqUE2AJIkNcgGQJKkBtkASJLUIBsASZIaZAMgSVKDbAAkSWqQDYAkSQ2yAZAkqUE2AJIkNcgGQJKkBtkASJLUIBsASZIaZAMgSVKDbAAkSWrQTtkJBCh9n7IkqU7rshOomTMAkiQ1yAZAkqQG2QBIktQgGwBJkhpkAyBJUoNsACRJapANgCRJDbIBkCSpQTYAkiQ1yAZAkqQG2QBIktQgGwBJkhpkAyBJUoNsACRJapANgCRJDdopO4EAvg9akqQ1cgZAkqQG2QBIktQgGwBJkhpkAyBJUoNsACRJapANgCRJDbIBkCSpQTYAkiQ1yAZAkqQG2QBIktQgGwBJkhpkAyBJUoNsACRJapANgCRJDbIBkCSpQTYAkiQ1yAZAkqQG2QBIktQgGwBJkhpkAyBJUoNsACRJapANgCRJDbIBkCSpQTtlJxBgITsBKdG67AQasQ7YDzhocdx8cRwE7A/sBuwCbFz83+uBPej+yLoS2Ly4nUuBK4CLgIsXx4+A7wHnLv7fHw9QjxTyj0fpDbg0BxsAtcwGIN4G4A7AnZeMOwE3Hij+JuB04OvAfy/+368BVw0UvyW137+K4tsASHWzASh3I+C+wIOA+wOH0f0FPybXAqcCnwNOAT5NN3ugMrXfv2wACj8v1cwGYO12AO4GPJjupn8vYOfUjNZuK/Bl4CPAiYv/e2tqRnWq/f5lA1D4ealmNgDTOwz4beDJwK2Sc4n2U+AE4F3AydgMTKv2+5cNQOHnpZrZAKzs9sDjgccBt07OZSjnA+8B3g6cmZzL2NV+/7IBKPy8VDMbgBvaCfgt4LnAvZNzybRA96zAW4H3A9fkpjNKtd+/bAAKPy/VzAbgF/YAngr8IXBwbiqjcyHwRuD1+PDgUrXfv2wACj8v1cwGoPs+/8XAE+l+h6/JrgKOBV5Bt+ZA62q/f9kAFH5eqlnLDcC+dH/tP5/ut/ua3rXAe4E/B87JTSVV7fcvG4DCz0s1a7EBuCnwJ8D/wr/4S10DvBn4a7rVCVtT+/3LBqDw81LNWmoAdgFeBLyA4Vbla8VlwF8Br6ObHWhF7fcvG4DCz0s1a6UBeDDwBtr5KV+W79B9rXJCdiIDqf3+VRTftwFKGrP96Ba3+Rje/IdwW+A/gQ8BBybnop7ZAEgao3XAs4Bv0a3cp2E9ku4lRE+lnVmm5vgVgFS3efzHeX/gnXTT/sp3AvC7wE+yE+lB7fev9Ot/oXDUHl8q4fl7fQ8BfkT5fnHEjguBR61w3GqVff1lxy+WXUB2fKmE529nF+C1dC+xyb7ZObY/ti4eo9renLiS7OsvNb5fAYxgCkVN8/yFQ4H3AXfMTkRT+TzdWxUvyE4kQPb1lxrfhwAlZXog8AXybv6b6N6c99fU8QrdLcBfAO8GLk/K4V7AV4GjkuJrRJqeQpEKtXz+/k9gM8NPZW8BTqT7K3YjsBfdcrhD5zHr+C6wJ93yx4+m+8nedQl5bAaOucFRrUv29Zcdv1h2AdnxpRItnr87Aq9h+BvWj+n+ej5kSS7r6G6gQ+dSOv6d60//Hgj8KfCDhFxeSr1fRWVff9nxi2UXkB1fKtHa+bsb3V/fQ96gvgk8ne2/MOjFA+cSOV64nXp2Bp4CnDZwLu+le5CzNtnXX3b8YtkFZMeXSrR0/u4BfI7hbkrfoJsin/TX6VHkTJ1HjWuBe6+wvx9B9139UPl8HLjRCvmMUfb1lx2/WHYB2fGlEq2cv3sDX2aYG9GZwBNY+SHnPYFzB8qnz3EOsPsKda4Dfgs4faB8TqFr9GqRff1lxy+WXUB2fKlEC+fvTYFT6f/mcxnwR0z3O/V/GSCfocY7p6h3J+DZwMUD5PMV4CZT5DQG2ddfdvxi2QVkx5dKzPv5ux/9//W5FXgHcLMpc3piz/lkjMdOWfvewOvpfgnRZz5foY6ZgOzrLzt+sewCsuNLJeb5/N2b7gG8Pm8059CtJTCtQ+hmCvrMKWNcAhy0hv1wBHBGzzmdwvifCci+/rLjF8suIDu+VGJez99dgP+iv5vLtmVp13KDWQd8NDCHnwds46rAfD68hn0B3a8i/pZ+H4Q8ie3/+mIssq+/7PjFsgvIji+VmMfzdwfgePq7qVxI94T7Wj0tOI/fD9jGMcE5PWmG/XJP+l0I6TjGu+ps9vWXHb9YdgHZ8aUS83j+9rnIz0l0zxWs1f500+RRebyfbkYh4vi9OzCvi4F9Z9g/ewMfCMxj+fjbGXIaQvb1lx2/WHYB2fGlEvN2/v4x/dxAtgJ/R7eK4Cwib27n0P2MkIBtQbc40rcD8ztuxn20jm5hpL4eEHzGjHn1Kfv6y45fLLuA7PhSiXk6fx9OPzePK4HHF+T16MBcrgHutmTbUcfvcGKfB5jlK5JtHg5cGpjLtrEZuE9BXn3Ivv6y4xfLLiA7vlRiXs7fQ+jnN+Y/4fo33LXaCHwvMJ/nL9t+5PH7vcA8z6Zsad7b0c9CST8CDijIK1r29Zcdv1h2AdnxpRLzcP6uBz5L/M3iu8Chhbn9ZWA+H+KGywpHH79/Dsz3z9a2q25gP/pZSvjzTLdY0xCyr7/s+MWyC8iOL5WYh/P39cTfJL5Ct4JgiV8Crg7K50d0D8otF338dgfOC8r5KuAW0+6sCXYHPhmUz9LxqsK8omRff9nxi2UXkB1fKlH7+ft44m8OXwL2Csjtg4E5PWZCjD6O368F5v1vU+yn1exK96KfyGO8FXhYQG6lsq+/7PjFsgvIji+VqPn8PRj4GeU1LB1f4BdP2Jd4QGBOx68Qp6/j967A/O+7QpxpbSR2EaUFulmV0lmeUtnXX3b8YtkFZMeXStR8/n6E8vyXjtOIufnvQPcVQkROF7PyOwb6On57Az8OquGLTH4l8lpsBD4dlNO28cGAvEpkX3/Z8YtlF5AdXypR6/kbvare2XSL9UR4UmBeq62s1+fx+/XAOn5nlVjT2p34BwOfHJTbLLKvv+z4xbILyI4vlajx/I1eVe9HwK2CcttA3M/+/nOKeH0fv/cF1XI2cU/e70f3C42o438ReV8FZF9/2fGLZReQHV8qUeP5G7mq3s/p1qKP8vygvC5nurfr9X38bgb8NKim50wRb1q3J/ativ8SmNtaZF9/2fGLZReQHV8qUdv5+5jCfJePowNz20g3mxCR1x9PGXOI4/ecoJp+QNniQMv9GrFvEnxoYG7Tyr7+suMXyy4gO75UoqbzdwOxU7+vDM4v6q//s5n+FbZDHL+dgDOCaoucBYDYdz+cQbeo1JCyr7/s+MWyC8iOL5Wo6fx9QUC+28YXiV0Nbhe6v3AjcvvNNcQd6vhFrQ3wQ7qZkijr6NYaiDovnheY2zSyr7/s+MWyC8iOL5Wo5fzdi7i1/i+hfIW65Z4XlNsn1xh3yON3YlCNz15j3NXsRdyDl5cA+wTnt5Ls6y87frHsArLjSyVqOX9fGZDrtvEbwbmtB84PyGsLcJc1xh7y+B0GXBsQ8zzip9qPIO55gCGXCc6+/rLjF8suIDu+VKKG8/eWdE/rR/zjfmwP+T0lKLe3zhB76OP3jwExF4AnzBB7NS8Lyu1qpvsFRoTs6y87frHsArLjSyVqOH+jlqW9gJg1/pc7NSC3K+h+375WQx+/fYj5+d1XZ4i9ml2AbwbktkDX6Awh+/rLjl8su4Ds+FKJsZ+/Nwc2B+S5QLeyXbQHBeX20hnjZxy/vwiIuwDcf8b4K7k7MV8FXAMc0kN+y2Vff9nxi2UXkB1fKjH28/cfAnJcAP6jp/wi3kdwJbDvjPEzjt/exLyE6cMzxl/NGwNyWwBe01N+S2Vff9nxi2UXkB1fKjHm83dPYm40VxO31O9Sh9K9VrY0v5L1CLKO30sDYm8Fbl2QwyR70y3vW5rfpsVt9Sn7+suOXyy7gOz4Uokxn78vCshvgW7Kug+vCMjtaspeQpR1/G5Kd4Msjf/yghxWckxAbgvA/+4pv22yr7/s+MWyC8iOL5UY6/m7ge6hvdL8fgLs1lN+EX9lvrYwj8zjF9EAXcT0qx6uxY7EPBD4o57y2yb7+suOXyy7gOz4Uomxnr9Rr9Tta2W3Jwbk9nPKf26Wefz2A64KyKGPnwRCt6JixDkU9Srj7cm+/rLjF8suIDu+VGKs5+8nAnI7l/7+evuvgPzeFJBH9vF7bUAOnw7IY5LPBeR3Uo/5ZR+/1PjrSjcQkERpDtnxpRJjPH8Port579jDtqW1WqB74PPsnrZdour71w6FwSXNn6Px5q/xWAc8LTuJeeQMgDMAyjXG8/fbwG172K40q/PoXiAV/bVX9vXnDICk0TgCb/4an4PpVhlUIBsASUs9KTsBaYI+fw3QJL8C8CsA5Rrb+Xse3fr/0tj8gG4mIPJrgOzrz68AJI3C4Xjz13gdBNwlO4l5YgMgaZuHZycgrcJzNJANgKRt/MdVY+c5GshnAHwGQLnGcv7uDlwMrA/antSHLXSvbr4kaHvZ15/PAEhK9xC8+Wv8dgSOyk5iXtgASAK4T3YC0pTunZ3AvLABkARwt+wEpCnZAATxGQCfAVCuMZy/64HLgY0B25L6di2wJ92rkEtlX38+AyAp1R3w5q96rAfunJ3EPLABkHSP7ASkNTo8O4F5YAMgqfT7/0/RTUX2Nf6sML+v95hbqb7y+kZhXn/WY27rgC8W5nfHws8LGwBJ5X9NfTUki8nuUPj5L4VkUZfSmg8LyWKyrxR+3hmAADYAkm5V+PnSf8xXU/rXXulfmzUqbQBKm67VlJ4zfefXBBsAqW17AnsXbqPPBmADcGjhNmwA1u62wM4RiUxQes7sCewTkUjLbACktpX+9X81cE5EIhPcCtip4PPXAt8OyqUmZwDXFXx+PXBIUC7b8x26Y1PiFgF5NM0GQGpbaQPwXWBrRCITlN6Evkv5jaZGm4FzC7dxi/I0JroW+H7hNm4ZkUjLbACktpU2AGeFZDHZLQo//52IJCpVWvstIpJYwZmFn7cBKGQDILWt9C/ss0OymKw0v9KbTM3mvQE4MCSLhtkASG0rfZDqvJAsJjug8POl08w1Kz02+4VkMdn5hZ/3IcBCNgBS2/Ys/PxPQrKYrPQXCn3nN2altd8kJIvJxp7f3LMBkNq2R+HnLwzJYrLSf+RtAGY39gbAGYBCNgBS225c+Pm+G4DSGYC+8xuz0hts6b5fzdjzm3s2AFLb9ir8/OUhWUxW2qBcFpJFnUqPzW4hWUxWmt8uIVk0zAZAalvpVwDXhGQxWelqdH3nN2Y/L/z8hpAsJht7fnPPBkBq2/rCz5f+I76a0vxsAGbX51LA0K0iWcIGoJANgNS2LYWf77sBKP1H3gZgdn3fYG0AktkASG0rbQCkLAvZCdTOBkBqW8kLY6D/B7E2F36+72nsMSs9Nn3Pnmws/PxVIVk0zAZAatu8NwAtPyleWnvpvl9NaX42AIVsAKS2lTYAfX8PW3oTavl7YmcAtCIbAKltpTfY0qWEV3NF4ef7zm/MSn/iuSkki8l2L/x86UOEzbMBkNp2UeHn9w3JYrKfFn7+ZiFZ1Kn0ZT6l+341pfk5A1DIBkBqW+lSuTYA41V6bC4JyWKymxZ+/sqQLBpmAyC1rXQ99r5vsDYAsyv9C/vikCwmKz02PwzJomE7ZScwAv6WVC0rnQG4eUgWk/248PMHh2RRp9JjU7rvV3NQ4ed/EJJFw5wBkNpW2gDcOiSLyb5f+PnbhmRRp9sVfr5036/m0MLPnx+SRcNsAKS2lX4FcJuQLCY7t/DzLTcApTfYcyOSWEFp8+gMQCEbAKlt3yv8/C/R778jpX+F3oryFwrVaGfgFoXbOLc8jYl2oDs2Jc6LSKRlNgBS284o/PxGuiagL+dQtljResqnwmt0e8qe8dpMv18BHEr5Ik0XRCTSMhsAqW2XUP6w169GJDLBNcCZhdu4GZinwQAAE0RJREFUR0Qilbl74efPpN+lgO9a+PnLKV/Donk2AJK+Vfj50n/MV3N64edbbABKay7d56spbRpPw19wFbMBkFTaAPQ5AwDwjcLPt9gAlM4AfDMki8lKz5lTQ7Jo3LqAbZR2YaU52AWqZRHX8HOA1wVsRxrKU4F3Bmyn9vtXUXxnACSdlp2AtEaeswGcAZDqFnENbwAuo/z1sdIQNgM3JuYhxdrvX84ASCpyDfDl7CSkKX2dfn+h0AwbAEkAp2QnIE3pk9kJzAsbAElgA6B6fDw7gXnhMwBS3SKuYYA96F69u2PQ9qQ+bAb2Bq4M2l7t9y+fAZBU7HJ8slrjdwpxN//mlawVPRZRfwFJrfsg/a/qJ5Vw+j+QMwCStvm37ASkVdgABJqHZwAkxTkTuE12EtJ2nEf3iuPI576y718+AyBpND6YnYA0wXvwoe9QNgCSlvJrAI3Ve7ITmDd+BSBpqR2A84EDshORlvgWcPsetpt9//IrAEmjsRU4NjsJaRn/+u+BMwCSlrslcDb+gaDxOBQ4q4ftZt+/suMXWygcksbno5Rf22fS31oj/xWQ32sC8sj+9+9NATl8OiCPST4XkN8neswv+/hlxy9WfQGSbuB/UH5tLwDH9JTfEwNyu5ryZx0y//27OfDzgBweX5jHJI8JyG0B+I2e8iMgt9rjF6u+AEk3sB74IeXX9wXArj3ktwG4MCC/vy/MI/Pfv9cHxL+Ibl9G2xH4ZkB+59Lv+ymy71/Z8YtVX4Ck7fobyq/vBeBPesrv7wNy2wTsU5BD1r9/B9DNYJTG/7uCHFbyzIDcFoAX9JTfNtn3r+z4xaovQNJ27Uv34pXSa/wK4KAe8rsN3a8WSvP7m4Icsv79e1VA7C3ALxXkMMlNgIsD8tsE7NlDfktl37+y4xervgBJE0XcaBaA43rK74SA3C4H9poxfsa/fzcjpjH70IzxV/PmgNwWgDf0lN9S2fev7PjFqi9A0kQHEvOg2QLwkB7ye2BQbv9nxvgZ//69PCDuAnC/GeOv5B50Mwuluf0cOLiH/JbLvn9lxy9WfQGSVvRGYm443wd27yG/UwNyu5Ru6nqthv737wC6qfHSuF+ZIfZqdgHOCMhtgZifaE4j+/6VHb9YdgERJ5vDUesYwsHANUH5vqWH/J4UlNvrZog99PE7NiDmAvC4GWKvJuKhzAW6Bme/HvLbnuzrLzt+sewCIk44h6PWMZSIBWcW6B7ae3hwbuvp3l9Qmtu1rH29+SGP312JmV7/PvELNB0JXBeQ2wLw0uDcVpJ9/WXHL5ZdQMQJ53DUOoayN/DToJwvpHu2INJzg3I7aY1xhzx+EasfLgDPWmPc1exF93v9iNwuozvXhpJ9/WXHL5ZdQMRJ53DUOob0B4F5f4rYBV52oVt0KCK3h60h7lDH77eDajuf2IV/1tH9miDqvOhrzYhJsq+/7PjFsguIOvEcjhrHkNbTvZY1Kve/Dc7veUF5fZPpp8iHOH67AOcE1Rb91/8Lg/JaoHuAcOfg/FaTff1lxy+WXUDUyedw1DiG9qDCfJeOrcATAnOLnAV49pQxhzh+Lw6q6YfAxiljTuNhxH3vvxV4QGBu08q+/rLjF8suIOLkczhqHRk+vMYcVxpXAXcLzC1qFuCndAvurKbv43cw8LOgmiL/+r9DYF4LwLsCc1uL7OsvO36x7AKiTkCHo8aR4WC6h7WiargAuEVQbhuImy4/fop4fR+/jwTVchbdVzgRDgC+F5TXAl2ztW9QbmuVff1lxy+WXUDUSehw1DiyPHWFnGYZZxJ3E3h8YF6PWSVWn8fvqYF1/PYqsaa1F/D1wLwWgN8Lym0W2ddfdvxi2QVEnogOR20j038QW8tXiVkpcB3w5aCcfsTKP0vr6/jtD1wSVMMXFvdJqV2BzwTltG2cEJTbrLKvv+z4xbILiDwZHY7aRqabAj8htp7PEtME3Dcwp3euEKev4/f+wPzvv0Kcae1Kt0ZC5LH+CcOt+DdJ9vWXHb9YdgGRJ6TDUdvIFvX79KXj88AeAblFzlBMWr2wj+P32MC8PzDFflrNjYCTA3NaoHvq/6EBuZXKvv6y4xfLLiDypHQ4ahtj8Hbi6/oSsE9hXrcCrg7K5zy2PzMRffz2IW5W5UrgkKn31vbtAXw6KJ+l4xWFeUXJvv6y4xfLLiD6xHQ4ahpjsAH4IvG1nQ3cujC3vwjM57jtbD/y+K0D/j0w3z9d2666gf2JedPi8vFVhl/wZ5Ls6y87frHsAqJPToejpjEWNyf+eYAFuofw7lKQ10bifha4wA2fWI88fi8IzPMsypb8vT3dS4Oij+dFwC0L8oqWff1lxy+WXUD0Cepw1DTG5L7AZuJr3ETZz9h+PTCXq4DDl2w76vjdg9h992sz7y14JLHrPGwb1wD3KcirD9nXX3b8YtUXIClM1Fv5lo+twMuY/QVC7wvM5Ux+8TxAxL9/exI7S/F/Z9xH64AXEfPK4e2NY2bMq0/Z96/s+MWqL0BSqLfSzw1kAfgo0y3Ru9x+xL3OeAF49+J2S7ezju5J/ai8LqL7eeZa7QN8MDCP5ePvZshpCNn3r+z4xaovQFKoHekemOvrZnIh8IgZ8jo6OI9nBGwjesbk8TPsl/sDPwjOY+k4gdhXP0fKvn9lxy9WfQGSwm0gfuGYpWMr8Gq636ivxYmBOVwVsI2fB+bzoTXui43Ay+lvyn8B+BTdIkJjlX3/yo5frPoCJPViN7plaPu6uSwA3wUeuIacDgYu7TmnjPFT4MA17Iej6J5l6DOnz9KdA2OWff/Kjl+s+gIk9WZv4HT6vdFsBf6J6Z8NiHxZ0FjGtL+S2Ad4C90+6zOfLxGzmmPfsu9f2fGLVV+ApF7tT/9NwAJwOfBHTLfIzLsHyGeocewU9e4EPI+4FwytNL5G99bAGmTfv7LjF6u+AEm925v+vw7YNs4EngDssEI+exD7Tvus8V1WfnnSOrrZgTMGyudUypdwHlL2/Ss7frHqC5A0iN3o98HA5eMbwG8xuRE4Erh2wHyix7XAERNqW0e3ANJpA+bzcWLe5Dik7PtXdvxi1RcgaTA7A//KsDfKs+imvzduJ58XDZxL5PijCfv3KXTNz5C5HA/ssp18xi77/pUdv1j1BUga1I50D6INfcP8MfCXXP8NeeuIfW3wUOPfF3Pf5ubA/wF+mJDL3y/LpSbZ96/s+MWqL0BSit+nn3cHrDa2AB8BHks3K7AX3XfpQ+cx6zibbvngXYDH0C200+dv+SeN6+hmVmqWff/Kjl+s+gIkpTmK7i/zrJvpFcB7gL8i5yY6y033z+l+xfCzxDwuBB50w8NZnez7V3b8YtUXICnVgcDnyb+5OqYbX+L6X6PULPv+lR2/WPUFSEq3AXgb+Tc3x+SxFXglsH7CMaxR9v0rO36x6guQNBqPoZtezr7ZOa4/LgV+c4XjVqvs+1dq/IgnN0uTKM0h4iBI2r6Mp7v3Bd7EfN5wanQC8Ey6NwbOm9rvX0XxV1opS5IyXEi3gM9j6ZauVY5L6W78j2A+b/7NswGQNFbHA3dm7a+5VbnjgNvRrdegOWUDIGnMzqdb0vahwLeSc2nBWcBvAI+jm4nRHLMBkFSDjwGH001JX5ycyzy6BPgT4I7AB5Nz0UB8CFDSSsa4xOs+dEv6PoP5+klahp8DrwFeSvc65dbUfv8qim8DIGklY2wAtjkEeCHwu9T5IppMm4F/oVtV8LzcVFLVfv+yASj8vKTJxtwAbLMv8CzgD6jvdbRDuwL4J+AVdM9XtK72+5cNQOHnJU1WQwOwzT7Ac+m+Gtg/OZex+SHdVP+baXOqf5La7182AIWflzRZTQ3ANjsBjwKOofv1QKsPO28FPgkcC/wr3bS/rq/2+5cNQOHnJU1WYwOw1CHA04GnAQcl5zKUbwPvontjoNP8K6v9/mUDUPh5SZPV3gBsswNwd7rlhR8NHJqbTrhzgQ/T3fS/mJtKVWq/f9kAFH5e0mTz0gAsd3u6RuDRwK8AO+ams2abgc8AJy6OM3LTqVbt9y8bgMLPS5psXhuApW4MHAEcCRwF3A3YmJrRDV0JfA34Mt2N/xN0T/SrTO33LxuAws9LmqyFBmC5nYFfBe5EN1NwO+CXgQMHin8hcA5wGt0N/8t0f+FvGSh+S2q/f9kAFH5e0mQtNgCT7EHXDNwauCnd+gP7Lf7vbWMdsOeyz+1Ct+LezxbH5Uv+90V039+fs2Rs6rcMLVH7/av5BkCSpFlk379S47f6+1hJkppmAyBJUoNsACRJapANgCRJDbIBkCSpQTYAkiQ1yAZAkqQG2QBIktQgGwBJkhpkAyBJUoNsACRJapANgCRJDbIBkCSpQTYAkiQ1yAZAkqQG7ZSdQIDS9ymrTPb7sKVMnv+5Svd/05wBkCSpQTYAkiQ1yAZAkqQG2QBIktQgGwBJkhpkAyBJUoNsACRJapANgCRJDbIBkCSpQTYAkiQ1yAZAkqQG2QBIktQgGwBJkhpkAyBJUoNsACRJatBO2QkE8H3QdfP4qWWe/0rjDIAkSQ2yAZAkqUE2AJIkNcgGQJKkBtkASJLUIBsASZIaZAMgSVKDbAAkSWqQDYAkSQ2yAZAkqUE2AJIkNcgGQJKkBtkASJLUIBsASZIaZAMgSVKDdspOIMBCdgKNK32fee3HL7v+7PirGXt+pea9vr6V7j8VcAZAkqQG2QBIktQgGwBJkhpkAyBJUoNsACRJapANgCRJDbIBkCSpQTYAkiQ1yAZAkqQG2QBIktQgGwBJkhpkAyBJUoNsACRJapANgCRJDbIBkCSpQRHvYs5+n7kkSbPIvn+lxncGQJKkBtkASJLUIBsASZIaZAMgSVKDbAAkSWqQDYAkSQ2yAZAkqUE2AJIkNcgGQJKkBtkASJLUIBsASZIaZAMgSVKDbAAkSWqQDYAkSQ2yAZAkqUE7ZScQoPR9yiqT/T5sKZPnf67S/d80ZwAkSWqQDYAkSQ2yAZAkqUE2AJIkNcgGQJKkBtkASJLUIBsASZIaZAMgSVKDbAAkSWqQDYAkSQ2yAZAkqUE2AJIkNcgGQJKkBtkASJLUIBsASZIatFPANjYDOxd8fufFbczK90HXzeOnlnn+t+tGhZ+/pjSBiBmATYWf3y0gB0mSarJv4ed/VppARANQmsReATlIklSTfQo/f0VpAhENQGkStw7IQZKkmtys8POjmAH4ceHnbxuQgyRJNblr4edL770hDcCZhZ+/Z0AOkiTV5KjCz3+nNIGIBqA0iQfgk7CSpHasp/yP31E0AN8u/PzNgF8NyEOSpBrcF9i1cBvFDUCEfYAtwELBeO3gWUuSWldy31ooiHt8YdwtwN4F8UOdRlkxF1O+KIIkSWuR0QAcQLf4XUncr8wY+3qilgI+ufDzNwGOiUhEkqQReybdMwAlSu+5oR5JeSf1A5wFkCQNZ+gZgIPo1s4pjfuwGWL3ZhfgUsqLetnQiUuSmjV0A3BcQMxLgA0zxO7VWygvbDNwl6ETlyQ1acgG4EEB8RaAN85SaN/uQ0xxZwG7D5y7JKk9QzUABwAXBMRbAO41Y629Wke3KmBEgR8Adhw2fUlSY4ZoAG4EnBoQa4Fu3Z3RLpx3DDFFLgBvHjh3SVJb+m4Adgb+IyDOtvG7ZeX2az3wfeKK/Sdgp0ErkCS1os8GYDfgxIAY28b36RqKUXsucQUvAP8G3HjQCiRJLeirATiA8gXylo9nhVTcs13oHuSLLPxM/HWAJClWHw3A44CfBGx76fg2I/zp3yQPIbb4BeBa4DU4GyBJihHZAOwPvD9gm9sbo1r4Zxrvo58d8UPgD3DVQElSmYgG4FC63+ZfGbC97Y339lN6vw6ie8lPHztkYXHbrwPuwYh/FiFJGq3S+9AHKX8b7krjIrrnCXrR943zkXQ7qO84FwKfBL5A913J9+h23Ca61QUlSVpuYfX/JM0C8Ai6XxL0Yoi/nF8BvGCAOJIkzYuXAS/uM8AQDcB64CTgvgPEkiSpdicDDwWu6zPIUN+d7w58Cn/KJ0nSSr4BHAVc1negIR+e2xc4BbjNgDElSarFOcC9gR8PEWyHIYIsuhB4ON0DepIk6RfOAR7MQDd/GLYBAPgucATdEomSJAlOp5v2P2fIoEM3ANB1N/cDPp0QW5KkMTmZbtr/gqED7zh0wEXXAO+m+53jUbiQjySpLQt0i9k9Bbg6I4Ex3HgfCRwL3CQ5D0mShnAxcDRwQmYSGV8BLPdh4E507w6QJGmeHUd3z0u9+cM4ZgCWuj/wj8AvZyciSVKgs4HfBz6Sncg2Y5gBWOqTdIsFPQc4LzkXSZJKfR94NnAYI7r5w/hmAJbaGXgy8EK61y1KklSL7wAvB/4ZuDY5l+0acwOw1F3pnpR8ArBPci6SJG3PZcCHgHcBn2DcbxuspgHYZgPwgCXjzozvawxJUhu2AqfS/Zb/ZLqvsa9JzWgNamsAltub7pmBQ4HbAbele+fAHovjxnRfJUiStFabgSuAyxfHhcC36ab3z6S7+V+Slp0kSZIkSZIkSZIkSZIkSZIkSZIkSZIkSZIkSZIkSZIkSZIkSZIkSZIkSZIkSZIkSQr3/wAUGz8F9U7a2QAAAABJRU5ErkJggg==;" parent="1" vertex="1">
          <mxGeometry x="896.88" y="746" width="25" height="25" as="geometry" />
        </mxCell>
        <mxCell id="KsrdHVBfr6KVUB-R_dGB-8" value="" style="shape=singleArrow;direction=north;whiteSpace=wrap;html=1;arrowWidth=0.5;arrowSize=0.25;fillColor=#d5e8d4;strokeColor=#82b366;strokeWidth=2;" parent="1" vertex="1">
          <mxGeometry x="929.76" y="748" width="10" height="20" as="geometry" />
        </mxCell>
        <mxCell id="KsrdHVBfr6KVUB-R_dGB-9" value="" style="shape=image;verticalLabelPosition=bottom;labelBackgroundColor=default;verticalAlign=top;aspect=fixed;imageAspect=0;image=https://cdn-icons-png.flaticon.com/128/2386/2386473.png;" parent="1" vertex="1">
          <mxGeometry x="896.88" y="796.66" width="24.34" height="24.34" as="geometry" />
        </mxCell>
        <mxCell id="KsrdHVBfr6KVUB-R_dGB-10" value="" style="shape=singleArrow;direction=north;whiteSpace=wrap;html=1;arrowWidth=0.5;arrowSize=0.25;fillColor=#f8cecc;strokeColor=#b85450;rotation=-180;strokeWidth=2;" parent="1" vertex="1">
          <mxGeometry x="929.76" y="799.83" width="10" height="20" as="geometry" />
        </mxCell>
        <mxCell id="KsrdHVBfr6KVUB-R_dGB-11" value="" style="shape=image;verticalLabelPosition=bottom;labelBackgroundColor=default;verticalAlign=top;aspect=fixed;imageAspect=0;image=data:image/png,iVBORw0KGgoAAAANSUhEUgAAADoAAAA5CAYAAABnLziGAAABW2lDQ1BJQ0MgUHJvZmlsZQAAKJF1kDtLA1EQhU8eEjUpLLQQFIJgoawSYhrTxYgxsMgSDT5QcHPzEpL1ullRwR9hpX8giJVtUqazESwEBREstRSENBquc7PqJooDw3wczgwzA7h7dc5LXgBlwzJTibng2vpG0PcCP/owhGGM6qzCY5qmkgXftTuad3DJejslZ13e5C/OlhqzY8+T1cPNJ89ff1f0Z3MVRvWDMsS4aQEuhVg7sLjkY+JBk5YiPpFcsLkqOWNzve1ZScWJr4kHWFHPEj8SK5kOvdDB5dI++9pBbh/IGellOYdyBCoSCGIBaSKVaBHz//gjbX8cu+A4gokdFFCERT0xUjhKyBEnYYBhGgpxGCHKiPzz7/852h7dFU0C7rKjbWtA/VWe52jj9KvAFdDY4rqp/3zV1fRW8jNhm/01oOdUiLdVwDcBtO6FeK8J0ToHPA/U2/wEtRJi8ihLqmkAAABWZVhJZk1NACoAAAAIAAGHaQAEAAAAAQAAABoAAAAAAAOShgAHAAAAEgAAAESgAgAEAAAAAQAAADqgAwAEAAAAAQAAADkAAAAAQVNDSUkAAABTY3JlZW5zaG90v9r1yQAAAdRpVFh0WE1MOmNvbS5hZG9iZS54bXAAAAAAADx4OnhtcG1ldGEgeG1sbnM6eD0iYWRvYmU6bnM6bWV0YS8iIHg6eG1wdGs9IlhNUCBDb3JlIDYuMC4wIj4KICAgPHJkZjpSREYgeG1sbnM6cmRmPSJodHRwOi8vd3d3LnczLm9yZy8xOTk5LzAyLzIyLXJkZi1zeW50YXgtbnMjIj4KICAgICAgPHJkZjpEZXNjcmlwdGlvbiByZGY6YWJvdXQ9IiIKICAgICAgICAgICAgeG1sbnM6ZXhpZj0iaHR0cDovL25zLmFkb2JlLmNvbS9leGlmLzEuMC8iPgogICAgICAgICA8ZXhpZjpQaXhlbFlEaW1lbnNpb24+NTc8L2V4aWY6UGl4ZWxZRGltZW5zaW9uPgogICAgICAgICA8ZXhpZjpQaXhlbFhEaW1lbnNpb24+NTg8L2V4aWY6UGl4ZWxYRGltZW5zaW9uPgogICAgICAgICA8ZXhpZjpVc2VyQ29tbWVudD5TY3JlZW5zaG90PC9leGlmOlVzZXJDb21tZW50PgogICAgICA8L3JkZjpEZXNjcmlwdGlvbj4KICAgPC9yZGY6UkRGPgo8L3g6eG1wbWV0YT4KuLnPzQAAA+dJREFUaAXtWk1ME0EUfktrMFGoP6FYwXgxVBM9WGOip5azXtR4MJFEI6jRmwlXm148epIIWL2SiCaGaOJFU06SqL34F4rxYgWBeAGRQqDrvMVZZrcz+1N2ya67L9nMvPdm3rxv3pufbleSCUEAqCEAGBWIIdD/LdJhRL0aUTk/CNUTxwGK7225aCmi+TfPoVgu2TLstcZRvUMI6CEBxpIiGwNItXewYug7f0vDswzOPBSLrAjkf1GQUsfW5akUSN1X13mXajVAcRxR9ERykW8UmF7PyiW90iWeCxTHSjTvNhxyau6XoZ4qpVOnibEEZTWl/EKbORqlw4wQKKapCCxG1ipQh/2t25ylzahu6x7q6DughfESjM7N255CYeratiTqMDUp0liSFwoFpV0ulwNaf30oaakv28h1oLJyxGiPGdYBSOzVsBQMC4w2yCQ7IN3UBLDwe+2o0l0ajI4p14FSJ41KBIfAkChQrGcyGYBSCW7HmiDdTABSInU5/4BySqk5mzWaNcY1oDi77OB4dqJzUncPjJJfwLkBcqEgVLg/AIAPIQSGTzabVUqUyTeuqxcN5Osl14AqDpEbEI1Qrn8Q5AmykfRcU31lgaEQ+RrCmxN5VCJLASdNmURGzk6q2papOAZUBcRJQWY8wHWW7V+PIKvj1fXrbu1qSYCSzAD2KsnrzMhsAx0vfoAfs2Uoj72DzpFOxRQFydhVo4NpiJQh66pK0hAdlHiRYzsb1JUlUcfd2BJQBDfyaAiwZKlMGEw3fNLptFKiHnkeNYy95Yk3RWYJaDJ1BIAAxTJ59DBI7TthYvY7fOob2RQnnRjEElAcqPfeHXU8vOtOl1dV3g+VBj846YSPIVAnZtFLNsKIeikaTvgSmIgKjxejVyVGOidm3w0bQqB23/i54ZyTNiXe34Z6kDeH7yrvdK+cJG/0GNK/52VUnqtyIyoCIJJ7DhXHocBsRiFQTvR9LQpMRLm7rj50dBf282ZkCageuB/5wKRuCNSP6WnkcxhRo9nxo67mrotfBn4e/2aKJRKNwMED+03beaVBDVB0rLK0DM+eDgl9jEaicKHrslDvRQUXKDq6VFkU+hvdxvyFJ2zlLYUQ6EbdJCvAMhl9grO4vArz8wumtmLN26Fxi3hvdQ3oykoVPn75aupge1sCWnYZZ8iT4cdQqfwR2tqTaINzZ88I9ahwDSgan5osQ+HVS6xyKdG2Dy52XeLq9MKfxJaIEKgZiWNt1tNn+sAAFaZuSyv/sza7gfSKHe7PtOnpGUt4WlvjwnZ48ZiZMbfTuLURdsRiG7YTj8dBMti+uUCFo/pYEZg1GhigfwHwMCZAke0M+gAAAABJRU5ErkJggg==;imageBorder=default;strokeWidth=2;" parent="1" vertex="1">
          <mxGeometry x="899.2" y="849.5" width="20.35" height="20" as="geometry" />
        </mxCell>
        <mxCell id="KsrdHVBfr6KVUB-R_dGB-12" value="" style="shape=singleArrow;direction=north;whiteSpace=wrap;html=1;arrowWidth=0.5;arrowSize=0.25;fillColor=#d5e8d4;strokeColor=#82b366;strokeWidth=2;" parent="1" vertex="1">
          <mxGeometry x="929.76" y="849.5" width="10" height="20" as="geometry" />
        </mxCell>
        <mxCell id="KsrdHVBfr6KVUB-R_dGB-13" value="+" style="text;html=1;strokeColor=none;fillColor=none;align=center;verticalAlign=middle;whiteSpace=wrap;rounded=0;" parent="1" vertex="1">
          <mxGeometry x="953.88" y="802.8299999999999" width="12.5" height="10" as="geometry" />
        </mxCell>
        <mxCell id="KsrdHVBfr6KVUB-R_dGB-14" value="+" style="text;html=1;strokeColor=none;fillColor=none;align=center;verticalAlign=middle;whiteSpace=wrap;rounded=0;" parent="1" vertex="1">
          <mxGeometry x="953.88" y="753.4999999999999" width="12.5" height="10" as="geometry" />
        </mxCell>
        <mxCell id="KsrdHVBfr6KVUB-R_dGB-15" value="+" style="text;html=1;strokeColor=none;fillColor=none;align=center;verticalAlign=middle;whiteSpace=wrap;rounded=0;" parent="1" vertex="1">
          <mxGeometry x="953.88" y="852.4999999999999" width="12.5" height="10" as="geometry" />
        </mxCell>
        <mxCell id="KsrdHVBfr6KVUB-R_dGB-22" style="edgeStyle=orthogonalEdgeStyle;rounded=0;orthogonalLoop=1;jettySize=auto;html=1;entryX=0;entryY=0.5;entryDx=0;entryDy=0;endArrow=oval;endFill=1;" parent="1" source="fgCzt5P4TZWiUm7buIOH-167" target="fgCzt5P4TZWiUm7buIOH-171" edge="1">
          <mxGeometry relative="1" as="geometry" />
        </mxCell>
        <mxCell id="KsrdHVBfr6KVUB-R_dGB-24" style="edgeStyle=orthogonalEdgeStyle;rounded=0;orthogonalLoop=1;jettySize=auto;html=1;exitX=1;exitY=0.5;exitDx=0;exitDy=0;endArrow=oval;endFill=1;" parent="1" source="fgCzt5P4TZWiUm7buIOH-169" target="fgCzt5P4TZWiUm7buIOH-174" edge="1">
          <mxGeometry relative="1" as="geometry" />
        </mxCell>
        <mxCell id="KsrdHVBfr6KVUB-R_dGB-27" style="edgeStyle=orthogonalEdgeStyle;rounded=0;orthogonalLoop=1;jettySize=auto;html=1;entryX=0.5;entryY=1;entryDx=0;entryDy=0;endArrow=oval;endFill=1;" parent="1" source="fgCzt5P4TZWiUm7buIOH-168" target="fgCzt5P4TZWiUm7buIOH-172" edge="1">
          <mxGeometry relative="1" as="geometry">
            <Array as="points">
              <mxPoint x="1141" y="808" />
            </Array>
          </mxGeometry>
        </mxCell>
        <mxCell id="KsrdHVBfr6KVUB-R_dGB-28" style="edgeStyle=orthogonalEdgeStyle;rounded=0;orthogonalLoop=1;jettySize=auto;html=1;exitX=1;exitY=0.5;exitDx=0;exitDy=0;entryX=0.5;entryY=0;entryDx=0;entryDy=0;endArrow=oval;endFill=1;" parent="1" source="fgCzt5P4TZWiUm7buIOH-168" target="fgCzt5P4TZWiUm7buIOH-173" edge="1">
          <mxGeometry relative="1" as="geometry" />
        </mxCell>
        <mxCell id="KsrdHVBfr6KVUB-R_dGB-29" value="Fine-Tuning" style="text;html=1;strokeColor=none;fillColor=none;align=center;verticalAlign=middle;whiteSpace=wrap;rounded=0;" parent="1" vertex="1">
          <mxGeometry x="1031.91" y="826.5" width="40" height="22" as="geometry" />
        </mxCell>
      </root>
    </mxGraphModel>
  </diagram>
</mxfile>
